M48
; DRILL file {KiCad (5.1.6)-1} date 05/22/21 18:42:01
; FORMAT={-:-/ absolute / inch / decimal}
; #@! TF.CreationDate,2021-05-22T18:42:01+09:00
; #@! TF.GenerationSoftware,Kicad,Pcbnew,(5.1.6)-1
FMAT,2
INCH
T1C0.0157
T2C0.0256
T3C0.0591
T4C0.0669
T5C0.1575
%
G90
G05
T1
X3.365Y-2.395
X3.365Y-3.055
X3.365Y-3.1352
X3.365Y-3.7952
X3.365Y-4.07
X3.365Y-4.73
X3.365Y-4.8102
X3.365Y-5.4702
X3.415Y-2.755
X3.415Y-3.4952
X3.415Y-4.43
X3.415Y-5.1702
X3.525Y-2.795
X3.525Y-3.5352
X3.525Y-4.47
X3.525Y-5.2102
X3.645Y-2.895
X3.645Y-3.6352
X3.645Y-4.57
X3.645Y-5.3102
X3.795Y-2.865
X3.795Y-3.6052
X3.795Y-4.54
X3.795Y-5.2802
X3.915Y-2.605
X3.915Y-3.3452
X3.915Y-4.28
X3.915Y-5.0202
X4.015Y-2.405
X4.015Y-3.055
X4.015Y-3.1452
X4.015Y-3.7952
X4.015Y-4.08
X4.015Y-4.73
X4.015Y-4.8202
X4.015Y-5.4702
X4.1052Y-2.395
X4.1052Y-3.055
X4.1052Y-3.1352
X4.1052Y-3.7952
X4.1052Y-4.07
X4.1052Y-4.73
X4.1052Y-4.8102
X4.1052Y-5.4702
X4.1552Y-2.755
X4.1552Y-3.4952
X4.1552Y-4.43
X4.1552Y-5.1702
X4.2652Y-2.795
X4.2652Y-3.5352
X4.2652Y-4.47
X4.2652Y-5.2102
X4.3852Y-2.895
X4.3852Y-3.6352
X4.3852Y-4.57
X4.3852Y-5.3102
X4.5352Y-2.865
X4.5352Y-3.6052
X4.5352Y-4.54
X4.5352Y-5.2802
X4.6552Y-2.605
X4.6552Y-3.3452
X4.6552Y-4.28
X4.6552Y-5.0202
X4.7552Y-2.405
X4.7552Y-3.055
X4.7552Y-3.1452
X4.7552Y-3.7952
X4.7552Y-4.08
X4.7552Y-4.73
X4.7552Y-4.8202
X4.7552Y-5.4702
X4.8453Y-2.395
X4.8453Y-3.055
X4.8453Y-3.1352
X4.8453Y-3.7952
X4.8453Y-4.07
X4.8453Y-4.73
X4.8453Y-4.8102
X4.8453Y-5.4702
X4.8953Y-2.755
X4.8953Y-3.4952
X4.8953Y-4.43
X4.8953Y-5.1702
X5.0053Y-2.795
X5.0053Y-3.5352
X5.0053Y-4.47
X5.0053Y-5.2102
X5.1253Y-2.895
X5.1253Y-3.6352
X5.1253Y-4.57
X5.1253Y-5.3102
X5.2753Y-2.865
X5.2753Y-3.6052
X5.2753Y-4.54
X5.2753Y-5.2802
X5.3953Y-2.605
X5.3953Y-3.3452
X5.3953Y-4.28
X5.3953Y-5.0202
X5.4953Y-2.405
X5.4953Y-3.055
X5.4953Y-3.1452
X5.4953Y-3.7952
X5.4953Y-4.08
X5.4953Y-4.73
X5.4953Y-4.8202
X5.4953Y-5.4702
X5.5855Y-2.395
X5.5855Y-3.055
X5.5855Y-3.1352
X5.5855Y-3.7952
X5.5855Y-4.07
X5.5855Y-4.73
X5.5855Y-4.8102
X5.5855Y-5.4702
X5.6355Y-2.755
X5.6355Y-3.4952
X5.6355Y-4.43
X5.6355Y-5.1702
X5.7455Y-2.795
X5.7455Y-3.5352
X5.7455Y-4.47
X5.7455Y-5.2102
X5.8655Y-2.895
X5.8655Y-3.6352
X5.8655Y-4.57
X5.8655Y-5.3102
X6.0155Y-2.865
X6.0155Y-3.6052
X6.0155Y-4.54
X6.0155Y-5.2802
X6.1355Y-2.605
X6.1355Y-3.3452
X6.1355Y-4.28
X6.1355Y-5.0202
X6.2355Y-2.405
X6.2355Y-3.055
X6.2355Y-3.1452
X6.2355Y-3.7952
X6.2355Y-4.08
X6.2355Y-4.73
X6.2355Y-4.8202
X6.2355Y-5.4702
T2
X5.6355Y-4.12
X5.6355Y-4.17
X5.6355Y-4.22
X5.6355Y-4.27
X5.6355Y-4.32
X4.8953Y-3.1852
X4.8953Y-3.2352
X4.8953Y-3.2852
X4.8953Y-3.3352
X4.8953Y-3.3852
X5.6355Y-3.1852
X5.6355Y-3.2352
X5.6355Y-3.2852
X5.6355Y-3.3352
X5.6355Y-3.3852
X4.8953Y-4.8602
X4.8953Y-4.9102
X4.8953Y-4.9602
X4.8953Y-5.0102
X4.8953Y-5.0602
X3.415Y-4.8602
X3.415Y-4.9102
X3.415Y-4.9602
X3.415Y-5.0102
X3.415Y-5.0602
X3.415Y-3.1852
X3.415Y-3.2352
X3.415Y-3.2852
X3.415Y-3.3352
X3.415Y-3.3852
X4.1552Y-4.12
X4.1552Y-4.17
X4.1552Y-4.22
X4.1552Y-4.27
X4.1552Y-4.32
X4.1552Y-2.445
X4.1552Y-2.495
X4.1552Y-2.545
X4.1552Y-2.595
X4.1552Y-2.645
X3.415Y-4.12
X3.415Y-4.17
X3.415Y-4.22
X3.415Y-4.27
X3.415Y-4.32
X4.8953Y-4.12
X4.8953Y-4.17
X4.8953Y-4.22
X4.8953Y-4.27
X4.8953Y-4.32
X3.415Y-2.445
X3.415Y-2.495
X3.415Y-2.545
X3.415Y-2.595
X3.415Y-2.645
X5.6355Y-2.445
X5.6355Y-2.495
X5.6355Y-2.545
X5.6355Y-2.595
X5.6355Y-2.645
X4.1552Y-4.8602
X4.1552Y-4.9102
X4.1552Y-4.9602
X4.1552Y-5.0102
X4.1552Y-5.0602
X5.6355Y-4.8602
X5.6355Y-4.9102
X5.6355Y-4.9602
X5.6355Y-5.0102
X5.6355Y-5.0602
X4.8953Y-2.445
X4.8953Y-2.495
X4.8953Y-2.545
X4.8953Y-2.595
X4.8953Y-2.645
X4.1552Y-3.1852
X4.1552Y-3.2352
X4.1552Y-3.2852
X4.1552Y-3.3352
X4.1552Y-3.3852
T3
X4.2852Y-5.0402
X4.5352Y-4.9402
X4.2852Y-2.625
X4.5352Y-2.525
X3.545Y-3.3652
X3.795Y-3.2652
X3.545Y-2.625
X3.795Y-2.525
X5.0253Y-2.625
X5.2753Y-2.525
X5.0253Y-3.3652
X5.2753Y-3.2652
X3.545Y-4.3
X3.795Y-4.2
X5.7655Y-3.3652
X6.0155Y-3.2652
X3.545Y-5.0402
X3.795Y-4.9402
X5.7655Y-4.3
X6.0155Y-4.2
X5.7655Y-2.625
X6.0155Y-2.525
X4.2852Y-4.3
X4.5352Y-4.2
X5.0253Y-4.3
X5.2753Y-4.2
X5.7655Y-5.0402
X6.0155Y-4.9402
X4.2852Y-3.3652
X4.5352Y-3.2652
X5.0253Y-5.0402
X5.2753Y-4.9402
T4
X4.2352Y-5.1402
X4.6352Y-5.1402
X4.2352Y-2.725
X4.6352Y-2.725
X3.495Y-3.4652
X3.895Y-3.4652
X3.495Y-2.725
X3.895Y-2.725
X4.9753Y-2.725
X5.3753Y-2.725
X4.9753Y-3.4652
X5.3753Y-3.4652
X3.495Y-4.4
X3.895Y-4.4
X5.7155Y-3.4652
X6.1155Y-3.4652
X3.495Y-5.1402
X3.895Y-5.1402
X5.7155Y-4.4
X6.1155Y-4.4
X5.7155Y-2.725
X6.1155Y-2.725
X4.2352Y-4.4
X4.6352Y-4.4
X4.9753Y-4.4
X5.3753Y-4.4
X5.7155Y-5.1402
X6.1155Y-5.1402
X4.2352Y-3.4652
X4.6352Y-3.4652
X4.9753Y-5.1402
X5.3753Y-5.1402
T5
X4.4352Y-5.1402
X4.4352Y-2.725
X3.695Y-3.4652
X3.695Y-2.725
X5.1753Y-2.725
X5.1753Y-3.4652
X3.695Y-4.4
X5.9155Y-3.4652
X3.695Y-5.1402
X5.9155Y-4.4
X5.9155Y-2.725
X4.4352Y-4.4
X5.1753Y-4.4
X5.9155Y-5.1402
X4.4352Y-3.4652
X5.1753Y-5.1402
T0
M30
