%TF.GenerationSoftware,KiCad,Pcbnew,(5.1.6)-1*%
%TF.CreationDate,2021-05-22T18:41:59+09:00*%
%TF.ProjectId,TinyIR-Panel,54696e79-4952-42d5-9061-6e656c2e6b69,rev?*%
%TF.SameCoordinates,Original*%
%TF.FileFunction,Other,ECO1*%
%FSLAX46Y46*%
G04 Gerber Fmt 4.6, Leading zero omitted, Abs format (unit mm)*
G04 Created by KiCad (PCBNEW (5.1.6)-1) date 2021-05-22 18:41:59*
%MOMM*%
%LPD*%
G01*
G04 APERTURE LIST*
%ADD10C,0.150000*%
%ADD11C,0.100000*%
G04 APERTURE END LIST*
D10*
X109077571Y-146024380D02*
X108506142Y-146024380D01*
X108791857Y-146024380D02*
X108791857Y-145024380D01*
X108696619Y-145167238D01*
X108601380Y-145262476D01*
X108506142Y-145310095D01*
X109649000Y-145452952D02*
X109553761Y-145405333D01*
X109506142Y-145357714D01*
X109458523Y-145262476D01*
X109458523Y-145214857D01*
X109506142Y-145119619D01*
X109553761Y-145072000D01*
X109649000Y-145024380D01*
X109839476Y-145024380D01*
X109934714Y-145072000D01*
X109982333Y-145119619D01*
X110029952Y-145214857D01*
X110029952Y-145262476D01*
X109982333Y-145357714D01*
X109934714Y-145405333D01*
X109839476Y-145452952D01*
X109649000Y-145452952D01*
X109553761Y-145500571D01*
X109506142Y-145548190D01*
X109458523Y-145643428D01*
X109458523Y-145833904D01*
X109506142Y-145929142D01*
X109553761Y-145976761D01*
X109649000Y-146024380D01*
X109839476Y-146024380D01*
X109934714Y-145976761D01*
X109982333Y-145929142D01*
X110029952Y-145833904D01*
X110029952Y-145643428D01*
X109982333Y-145548190D01*
X109934714Y-145500571D01*
X109839476Y-145452952D01*
X110458523Y-145929142D02*
X110506142Y-145976761D01*
X110458523Y-146024380D01*
X110410904Y-145976761D01*
X110458523Y-145929142D01*
X110458523Y-146024380D01*
X110839476Y-145024380D02*
X111506142Y-145024380D01*
X111077571Y-146024380D01*
X111934714Y-146024380D02*
X112125190Y-146024380D01*
X112220428Y-145976761D01*
X112268047Y-145929142D01*
X112363285Y-145786285D01*
X112410904Y-145595809D01*
X112410904Y-145214857D01*
X112363285Y-145119619D01*
X112315666Y-145072000D01*
X112220428Y-145024380D01*
X112029952Y-145024380D01*
X111934714Y-145072000D01*
X111887095Y-145119619D01*
X111839476Y-145214857D01*
X111839476Y-145452952D01*
X111887095Y-145548190D01*
X111934714Y-145595809D01*
X112029952Y-145643428D01*
X112220428Y-145643428D01*
X112315666Y-145595809D01*
X112363285Y-145548190D01*
X112410904Y-145452952D01*
X113268047Y-145024380D02*
X113077571Y-145024380D01*
X112982333Y-145072000D01*
X112934714Y-145119619D01*
X112839476Y-145262476D01*
X112791857Y-145452952D01*
X112791857Y-145833904D01*
X112839476Y-145929142D01*
X112887095Y-145976761D01*
X112982333Y-146024380D01*
X113172809Y-146024380D01*
X113268047Y-145976761D01*
X113315666Y-145929142D01*
X113363285Y-145833904D01*
X113363285Y-145595809D01*
X113315666Y-145500571D01*
X113268047Y-145452952D01*
X113172809Y-145405333D01*
X112982333Y-145405333D01*
X112887095Y-145452952D01*
X112839476Y-145500571D01*
X112791857Y-145595809D01*
X114553761Y-146024380D02*
X114553761Y-145357714D01*
X114553761Y-145452952D02*
X114601380Y-145405333D01*
X114696619Y-145357714D01*
X114839476Y-145357714D01*
X114934714Y-145405333D01*
X114982333Y-145500571D01*
X114982333Y-146024380D01*
X114982333Y-145500571D02*
X115029952Y-145405333D01*
X115125190Y-145357714D01*
X115268047Y-145357714D01*
X115363285Y-145405333D01*
X115410904Y-145500571D01*
X115410904Y-146024380D01*
X115887095Y-146024380D02*
X115887095Y-145357714D01*
X115887095Y-145452952D02*
X115934714Y-145405333D01*
X116029952Y-145357714D01*
X116172809Y-145357714D01*
X116268047Y-145405333D01*
X116315666Y-145500571D01*
X116315666Y-146024380D01*
X116315666Y-145500571D02*
X116363285Y-145405333D01*
X116458523Y-145357714D01*
X116601380Y-145357714D01*
X116696619Y-145405333D01*
X116744238Y-145500571D01*
X116744238Y-146024380D01*
X103251000Y-144272000D02*
X122047000Y-144272000D01*
X103251000Y-139954000D02*
X103251000Y-144858421D01*
X122047000Y-139954000D02*
X122047000Y-144858421D01*
X122047000Y-144272000D02*
X120920496Y-144858421D01*
X122047000Y-144272000D02*
X120920496Y-143685579D01*
X103251000Y-144272000D02*
X104377504Y-144858421D01*
X103251000Y-144272000D02*
X104377504Y-143685579D01*
X73685619Y-65643571D02*
X73685619Y-65072142D01*
X73685619Y-65357857D02*
X74685619Y-65357857D01*
X74542761Y-65262619D01*
X74447523Y-65167380D01*
X74399904Y-65072142D01*
X74257047Y-66215000D02*
X74304666Y-66119761D01*
X74352285Y-66072142D01*
X74447523Y-66024523D01*
X74495142Y-66024523D01*
X74590380Y-66072142D01*
X74638000Y-66119761D01*
X74685619Y-66215000D01*
X74685619Y-66405476D01*
X74638000Y-66500714D01*
X74590380Y-66548333D01*
X74495142Y-66595952D01*
X74447523Y-66595952D01*
X74352285Y-66548333D01*
X74304666Y-66500714D01*
X74257047Y-66405476D01*
X74257047Y-66215000D01*
X74209428Y-66119761D01*
X74161809Y-66072142D01*
X74066571Y-66024523D01*
X73876095Y-66024523D01*
X73780857Y-66072142D01*
X73733238Y-66119761D01*
X73685619Y-66215000D01*
X73685619Y-66405476D01*
X73733238Y-66500714D01*
X73780857Y-66548333D01*
X73876095Y-66595952D01*
X74066571Y-66595952D01*
X74161809Y-66548333D01*
X74209428Y-66500714D01*
X74257047Y-66405476D01*
X73780857Y-67024523D02*
X73733238Y-67072142D01*
X73685619Y-67024523D01*
X73733238Y-66976904D01*
X73780857Y-67024523D01*
X73685619Y-67024523D01*
X74685619Y-67405476D02*
X74685619Y-68072142D01*
X73685619Y-67643571D01*
X73685619Y-68500714D02*
X73685619Y-68691190D01*
X73733238Y-68786428D01*
X73780857Y-68834047D01*
X73923714Y-68929285D01*
X74114190Y-68976904D01*
X74495142Y-68976904D01*
X74590380Y-68929285D01*
X74638000Y-68881666D01*
X74685619Y-68786428D01*
X74685619Y-68595952D01*
X74638000Y-68500714D01*
X74590380Y-68453095D01*
X74495142Y-68405476D01*
X74257047Y-68405476D01*
X74161809Y-68453095D01*
X74114190Y-68500714D01*
X74066571Y-68595952D01*
X74066571Y-68786428D01*
X74114190Y-68881666D01*
X74161809Y-68929285D01*
X74257047Y-68976904D01*
X74685619Y-69834047D02*
X74685619Y-69643571D01*
X74638000Y-69548333D01*
X74590380Y-69500714D01*
X74447523Y-69405476D01*
X74257047Y-69357857D01*
X73876095Y-69357857D01*
X73780857Y-69405476D01*
X73733238Y-69453095D01*
X73685619Y-69548333D01*
X73685619Y-69738809D01*
X73733238Y-69834047D01*
X73780857Y-69881666D01*
X73876095Y-69929285D01*
X74114190Y-69929285D01*
X74209428Y-69881666D01*
X74257047Y-69834047D01*
X74304666Y-69738809D01*
X74304666Y-69548333D01*
X74257047Y-69453095D01*
X74209428Y-69405476D01*
X74114190Y-69357857D01*
X73685619Y-71119761D02*
X74352285Y-71119761D01*
X74257047Y-71119761D02*
X74304666Y-71167380D01*
X74352285Y-71262619D01*
X74352285Y-71405476D01*
X74304666Y-71500714D01*
X74209428Y-71548333D01*
X73685619Y-71548333D01*
X74209428Y-71548333D02*
X74304666Y-71595952D01*
X74352285Y-71691190D01*
X74352285Y-71834047D01*
X74304666Y-71929285D01*
X74209428Y-71976904D01*
X73685619Y-71976904D01*
X73685619Y-72453095D02*
X74352285Y-72453095D01*
X74257047Y-72453095D02*
X74304666Y-72500714D01*
X74352285Y-72595952D01*
X74352285Y-72738809D01*
X74304666Y-72834047D01*
X74209428Y-72881666D01*
X73685619Y-72881666D01*
X74209428Y-72881666D02*
X74304666Y-72929285D01*
X74352285Y-73024523D01*
X74352285Y-73167380D01*
X74304666Y-73262619D01*
X74209428Y-73310238D01*
X73685619Y-73310238D01*
X75438000Y-59817000D02*
X75438000Y-78613000D01*
X84455000Y-59817000D02*
X74851579Y-59817000D01*
X84455000Y-78613000D02*
X74851579Y-78613000D01*
X75438000Y-78613000D02*
X74851579Y-77486496D01*
X75438000Y-78613000D02*
X76024421Y-77486496D01*
X75438000Y-59817000D02*
X74851579Y-60943504D01*
X75438000Y-59817000D02*
X76024421Y-60943504D01*
X87805071Y-47716380D02*
X87233642Y-47716380D01*
X87519357Y-47716380D02*
X87519357Y-46716380D01*
X87424119Y-46859238D01*
X87328880Y-46954476D01*
X87233642Y-47002095D01*
X88138404Y-46716380D02*
X88757452Y-46716380D01*
X88424119Y-47097333D01*
X88566976Y-47097333D01*
X88662214Y-47144952D01*
X88709833Y-47192571D01*
X88757452Y-47287809D01*
X88757452Y-47525904D01*
X88709833Y-47621142D01*
X88662214Y-47668761D01*
X88566976Y-47716380D01*
X88281261Y-47716380D01*
X88186023Y-47668761D01*
X88138404Y-47621142D01*
X89186023Y-47621142D02*
X89233642Y-47668761D01*
X89186023Y-47716380D01*
X89138404Y-47668761D01*
X89186023Y-47621142D01*
X89186023Y-47716380D01*
X89805071Y-47144952D02*
X89709833Y-47097333D01*
X89662214Y-47049714D01*
X89614595Y-46954476D01*
X89614595Y-46906857D01*
X89662214Y-46811619D01*
X89709833Y-46764000D01*
X89805071Y-46716380D01*
X89995547Y-46716380D01*
X90090785Y-46764000D01*
X90138404Y-46811619D01*
X90186023Y-46906857D01*
X90186023Y-46954476D01*
X90138404Y-47049714D01*
X90090785Y-47097333D01*
X89995547Y-47144952D01*
X89805071Y-47144952D01*
X89709833Y-47192571D01*
X89662214Y-47240190D01*
X89614595Y-47335428D01*
X89614595Y-47525904D01*
X89662214Y-47621142D01*
X89709833Y-47668761D01*
X89805071Y-47716380D01*
X89995547Y-47716380D01*
X90090785Y-47668761D01*
X90138404Y-47621142D01*
X90186023Y-47525904D01*
X90186023Y-47335428D01*
X90138404Y-47240190D01*
X90090785Y-47192571D01*
X89995547Y-47144952D01*
X91043166Y-47049714D02*
X91043166Y-47716380D01*
X90805071Y-46668761D02*
X90566976Y-47383047D01*
X91186023Y-47383047D01*
X91471738Y-46716380D02*
X92090785Y-46716380D01*
X91757452Y-47097333D01*
X91900309Y-47097333D01*
X91995547Y-47144952D01*
X92043166Y-47192571D01*
X92090785Y-47287809D01*
X92090785Y-47525904D01*
X92043166Y-47621142D01*
X91995547Y-47668761D01*
X91900309Y-47716380D01*
X91614595Y-47716380D01*
X91519357Y-47668761D01*
X91471738Y-47621142D01*
X93281261Y-47716380D02*
X93281261Y-47049714D01*
X93281261Y-47144952D02*
X93328880Y-47097333D01*
X93424119Y-47049714D01*
X93566976Y-47049714D01*
X93662214Y-47097333D01*
X93709833Y-47192571D01*
X93709833Y-47716380D01*
X93709833Y-47192571D02*
X93757452Y-47097333D01*
X93852690Y-47049714D01*
X93995547Y-47049714D01*
X94090785Y-47097333D01*
X94138404Y-47192571D01*
X94138404Y-47716380D01*
X94614595Y-47716380D02*
X94614595Y-47049714D01*
X94614595Y-47144952D02*
X94662214Y-47097333D01*
X94757452Y-47049714D01*
X94900309Y-47049714D01*
X94995547Y-47097333D01*
X95043166Y-47192571D01*
X95043166Y-47716380D01*
X95043166Y-47192571D02*
X95090785Y-47097333D01*
X95186023Y-47049714D01*
X95328880Y-47049714D01*
X95424119Y-47097333D01*
X95471738Y-47192571D01*
X95471738Y-47716380D01*
D11*
X98298000Y-48514000D02*
X84455000Y-48514000D01*
X98298000Y-54610000D02*
X98298000Y-47927579D01*
X84455000Y-54610000D02*
X84455000Y-47927579D01*
X84455000Y-48514000D02*
X85581504Y-47927579D01*
X84455000Y-48514000D02*
X85581504Y-49100421D01*
X98298000Y-48514000D02*
X97171496Y-47927579D01*
X98298000Y-48514000D02*
X97171496Y-49100421D01*
D10*
X101873714Y-55450976D02*
X102540380Y-55450976D01*
X101492761Y-55689071D02*
X102207047Y-55927166D01*
X102207047Y-55308119D01*
X102445142Y-54927166D02*
X102492761Y-54879547D01*
X102540380Y-54927166D01*
X102492761Y-54974785D01*
X102445142Y-54927166D01*
X102540380Y-54927166D01*
X101540380Y-54022404D02*
X101540380Y-54212880D01*
X101588000Y-54308119D01*
X101635619Y-54355738D01*
X101778476Y-54450976D01*
X101968952Y-54498595D01*
X102349904Y-54498595D01*
X102445142Y-54450976D01*
X102492761Y-54403357D01*
X102540380Y-54308119D01*
X102540380Y-54117642D01*
X102492761Y-54022404D01*
X102445142Y-53974785D01*
X102349904Y-53927166D01*
X102111809Y-53927166D01*
X102016571Y-53974785D01*
X101968952Y-54022404D01*
X101921333Y-54117642D01*
X101921333Y-54308119D01*
X101968952Y-54403357D01*
X102016571Y-54450976D01*
X102111809Y-54498595D01*
X102540380Y-53450976D02*
X102540380Y-53260500D01*
X102492761Y-53165261D01*
X102445142Y-53117642D01*
X102302285Y-53022404D01*
X102111809Y-52974785D01*
X101730857Y-52974785D01*
X101635619Y-53022404D01*
X101588000Y-53070023D01*
X101540380Y-53165261D01*
X101540380Y-53355738D01*
X101588000Y-53450976D01*
X101635619Y-53498595D01*
X101730857Y-53546214D01*
X101968952Y-53546214D01*
X102064190Y-53498595D01*
X102111809Y-53450976D01*
X102159428Y-53355738D01*
X102159428Y-53165261D01*
X102111809Y-53070023D01*
X102064190Y-53022404D01*
X101968952Y-52974785D01*
X102540380Y-52498595D02*
X102540380Y-52308119D01*
X102492761Y-52212880D01*
X102445142Y-52165261D01*
X102302285Y-52070023D01*
X102111809Y-52022404D01*
X101730857Y-52022404D01*
X101635619Y-52070023D01*
X101588000Y-52117642D01*
X101540380Y-52212880D01*
X101540380Y-52403357D01*
X101588000Y-52498595D01*
X101635619Y-52546214D01*
X101730857Y-52593833D01*
X101968952Y-52593833D01*
X102064190Y-52546214D01*
X102111809Y-52498595D01*
X102159428Y-52403357D01*
X102159428Y-52212880D01*
X102111809Y-52117642D01*
X102064190Y-52070023D01*
X101968952Y-52022404D01*
X102540380Y-50831928D02*
X101873714Y-50831928D01*
X101968952Y-50831928D02*
X101921333Y-50784309D01*
X101873714Y-50689071D01*
X101873714Y-50546214D01*
X101921333Y-50450976D01*
X102016571Y-50403357D01*
X102540380Y-50403357D01*
X102016571Y-50403357D02*
X101921333Y-50355738D01*
X101873714Y-50260500D01*
X101873714Y-50117642D01*
X101921333Y-50022404D01*
X102016571Y-49974785D01*
X102540380Y-49974785D01*
X102540380Y-49498595D02*
X101873714Y-49498595D01*
X101968952Y-49498595D02*
X101921333Y-49450976D01*
X101873714Y-49355738D01*
X101873714Y-49212880D01*
X101921333Y-49117642D01*
X102016571Y-49070023D01*
X102540380Y-49070023D01*
X102016571Y-49070023D02*
X101921333Y-49022404D01*
X101873714Y-48927166D01*
X101873714Y-48784309D01*
X101921333Y-48689071D01*
X102016571Y-48641452D01*
X102540380Y-48641452D01*
D11*
X100838000Y-54610000D02*
X100838000Y-49911000D01*
X98298000Y-54610000D02*
X101424421Y-54610000D01*
X98298000Y-49911000D02*
X101424421Y-49911000D01*
X100838000Y-49911000D02*
X101424421Y-51037504D01*
X100838000Y-49911000D02*
X100251579Y-51037504D01*
X100838000Y-54610000D02*
X101424421Y-53483496D01*
X100838000Y-54610000D02*
X100251579Y-53483496D01*
D10*
X94583714Y-58360380D02*
X95202761Y-58360380D01*
X94869428Y-58741333D01*
X95012285Y-58741333D01*
X95107523Y-58788952D01*
X95155142Y-58836571D01*
X95202761Y-58931809D01*
X95202761Y-59169904D01*
X95155142Y-59265142D01*
X95107523Y-59312761D01*
X95012285Y-59360380D01*
X94726571Y-59360380D01*
X94631333Y-59312761D01*
X94583714Y-59265142D01*
X95631333Y-59265142D02*
X95678952Y-59312761D01*
X95631333Y-59360380D01*
X95583714Y-59312761D01*
X95631333Y-59265142D01*
X95631333Y-59360380D01*
X96298000Y-58360380D02*
X96393238Y-58360380D01*
X96488476Y-58408000D01*
X96536095Y-58455619D01*
X96583714Y-58550857D01*
X96631333Y-58741333D01*
X96631333Y-58979428D01*
X96583714Y-59169904D01*
X96536095Y-59265142D01*
X96488476Y-59312761D01*
X96393238Y-59360380D01*
X96298000Y-59360380D01*
X96202761Y-59312761D01*
X96155142Y-59265142D01*
X96107523Y-59169904D01*
X96059904Y-58979428D01*
X96059904Y-58741333D01*
X96107523Y-58550857D01*
X96155142Y-58455619D01*
X96202761Y-58408000D01*
X96298000Y-58360380D01*
X97250380Y-58360380D02*
X97345619Y-58360380D01*
X97440857Y-58408000D01*
X97488476Y-58455619D01*
X97536095Y-58550857D01*
X97583714Y-58741333D01*
X97583714Y-58979428D01*
X97536095Y-59169904D01*
X97488476Y-59265142D01*
X97440857Y-59312761D01*
X97345619Y-59360380D01*
X97250380Y-59360380D01*
X97155142Y-59312761D01*
X97107523Y-59265142D01*
X97059904Y-59169904D01*
X97012285Y-58979428D01*
X97012285Y-58741333D01*
X97059904Y-58550857D01*
X97107523Y-58455619D01*
X97155142Y-58408000D01*
X97250380Y-58360380D01*
X98202761Y-58360380D02*
X98298000Y-58360380D01*
X98393238Y-58408000D01*
X98440857Y-58455619D01*
X98488476Y-58550857D01*
X98536095Y-58741333D01*
X98536095Y-58979428D01*
X98488476Y-59169904D01*
X98440857Y-59265142D01*
X98393238Y-59312761D01*
X98298000Y-59360380D01*
X98202761Y-59360380D01*
X98107523Y-59312761D01*
X98059904Y-59265142D01*
X98012285Y-59169904D01*
X97964666Y-58979428D01*
X97964666Y-58741333D01*
X98012285Y-58550857D01*
X98059904Y-58455619D01*
X98107523Y-58408000D01*
X98202761Y-58360380D01*
X99726571Y-59360380D02*
X99726571Y-58693714D01*
X99726571Y-58788952D02*
X99774190Y-58741333D01*
X99869428Y-58693714D01*
X100012285Y-58693714D01*
X100107523Y-58741333D01*
X100155142Y-58836571D01*
X100155142Y-59360380D01*
X100155142Y-58836571D02*
X100202761Y-58741333D01*
X100298000Y-58693714D01*
X100440857Y-58693714D01*
X100536095Y-58741333D01*
X100583714Y-58836571D01*
X100583714Y-59360380D01*
X101059904Y-59360380D02*
X101059904Y-58693714D01*
X101059904Y-58788952D02*
X101107523Y-58741333D01*
X101202761Y-58693714D01*
X101345619Y-58693714D01*
X101440857Y-58741333D01*
X101488476Y-58836571D01*
X101488476Y-59360380D01*
X101488476Y-58836571D02*
X101536095Y-58741333D01*
X101631333Y-58693714D01*
X101774190Y-58693714D01*
X101869428Y-58741333D01*
X101917047Y-58836571D01*
X101917047Y-59360380D01*
D11*
X96798000Y-57658000D02*
X99798000Y-57658000D01*
X96798000Y-54610000D02*
X96798000Y-58244421D01*
X99798000Y-54610000D02*
X99798000Y-58244421D01*
X99798000Y-57658000D02*
X98671496Y-58244421D01*
X99798000Y-57658000D02*
X98671496Y-57071579D01*
X96798000Y-57658000D02*
X97924504Y-58244421D01*
X96798000Y-57658000D02*
X97924504Y-57071579D01*
D10*
X141827714Y-140188380D02*
X142446761Y-140188380D01*
X142113428Y-140569333D01*
X142256285Y-140569333D01*
X142351523Y-140616952D01*
X142399142Y-140664571D01*
X142446761Y-140759809D01*
X142446761Y-140997904D01*
X142399142Y-141093142D01*
X142351523Y-141140761D01*
X142256285Y-141188380D01*
X141970571Y-141188380D01*
X141875333Y-141140761D01*
X141827714Y-141093142D01*
X142875333Y-141093142D02*
X142922952Y-141140761D01*
X142875333Y-141188380D01*
X142827714Y-141140761D01*
X142875333Y-141093142D01*
X142875333Y-141188380D01*
X143542000Y-140188380D02*
X143637238Y-140188380D01*
X143732476Y-140236000D01*
X143780095Y-140283619D01*
X143827714Y-140378857D01*
X143875333Y-140569333D01*
X143875333Y-140807428D01*
X143827714Y-140997904D01*
X143780095Y-141093142D01*
X143732476Y-141140761D01*
X143637238Y-141188380D01*
X143542000Y-141188380D01*
X143446761Y-141140761D01*
X143399142Y-141093142D01*
X143351523Y-140997904D01*
X143303904Y-140807428D01*
X143303904Y-140569333D01*
X143351523Y-140378857D01*
X143399142Y-140283619D01*
X143446761Y-140236000D01*
X143542000Y-140188380D01*
X144494380Y-140188380D02*
X144589619Y-140188380D01*
X144684857Y-140236000D01*
X144732476Y-140283619D01*
X144780095Y-140378857D01*
X144827714Y-140569333D01*
X144827714Y-140807428D01*
X144780095Y-140997904D01*
X144732476Y-141093142D01*
X144684857Y-141140761D01*
X144589619Y-141188380D01*
X144494380Y-141188380D01*
X144399142Y-141140761D01*
X144351523Y-141093142D01*
X144303904Y-140997904D01*
X144256285Y-140807428D01*
X144256285Y-140569333D01*
X144303904Y-140378857D01*
X144351523Y-140283619D01*
X144399142Y-140236000D01*
X144494380Y-140188380D01*
X145446761Y-140188380D02*
X145542000Y-140188380D01*
X145637238Y-140236000D01*
X145684857Y-140283619D01*
X145732476Y-140378857D01*
X145780095Y-140569333D01*
X145780095Y-140807428D01*
X145732476Y-140997904D01*
X145684857Y-141093142D01*
X145637238Y-141140761D01*
X145542000Y-141188380D01*
X145446761Y-141188380D01*
X145351523Y-141140761D01*
X145303904Y-141093142D01*
X145256285Y-140997904D01*
X145208666Y-140807428D01*
X145208666Y-140569333D01*
X145256285Y-140378857D01*
X145303904Y-140283619D01*
X145351523Y-140236000D01*
X145446761Y-140188380D01*
X146970571Y-141188380D02*
X146970571Y-140521714D01*
X146970571Y-140616952D02*
X147018190Y-140569333D01*
X147113428Y-140521714D01*
X147256285Y-140521714D01*
X147351523Y-140569333D01*
X147399142Y-140664571D01*
X147399142Y-141188380D01*
X147399142Y-140664571D02*
X147446761Y-140569333D01*
X147542000Y-140521714D01*
X147684857Y-140521714D01*
X147780095Y-140569333D01*
X147827714Y-140664571D01*
X147827714Y-141188380D01*
X148303904Y-141188380D02*
X148303904Y-140521714D01*
X148303904Y-140616952D02*
X148351523Y-140569333D01*
X148446761Y-140521714D01*
X148589619Y-140521714D01*
X148684857Y-140569333D01*
X148732476Y-140664571D01*
X148732476Y-141188380D01*
X148732476Y-140664571D02*
X148780095Y-140569333D01*
X148875333Y-140521714D01*
X149018190Y-140521714D01*
X149113428Y-140569333D01*
X149161047Y-140664571D01*
X149161047Y-141188380D01*
D11*
X144042000Y-141986000D02*
X147042000Y-141986000D01*
X144042000Y-144780000D02*
X144042000Y-141399579D01*
X147042000Y-144780000D02*
X147042000Y-141399579D01*
X147042000Y-141986000D02*
X145915496Y-142572421D01*
X147042000Y-141986000D02*
X145915496Y-141399579D01*
X144042000Y-141986000D02*
X145168504Y-142572421D01*
X144042000Y-141986000D02*
X145168504Y-141399579D01*
D10*
X140902619Y-144177142D02*
X140902619Y-143700952D01*
X140426428Y-143653333D01*
X140474047Y-143700952D01*
X140521666Y-143796190D01*
X140521666Y-144034285D01*
X140474047Y-144129523D01*
X140426428Y-144177142D01*
X140331190Y-144224761D01*
X140093095Y-144224761D01*
X139997857Y-144177142D01*
X139950238Y-144129523D01*
X139902619Y-144034285D01*
X139902619Y-143796190D01*
X139950238Y-143700952D01*
X139997857Y-143653333D01*
X139997857Y-144653333D02*
X139950238Y-144700952D01*
X139902619Y-144653333D01*
X139950238Y-144605714D01*
X139997857Y-144653333D01*
X139902619Y-144653333D01*
X140902619Y-145320000D02*
X140902619Y-145415238D01*
X140855000Y-145510476D01*
X140807380Y-145558095D01*
X140712142Y-145605714D01*
X140521666Y-145653333D01*
X140283571Y-145653333D01*
X140093095Y-145605714D01*
X139997857Y-145558095D01*
X139950238Y-145510476D01*
X139902619Y-145415238D01*
X139902619Y-145320000D01*
X139950238Y-145224761D01*
X139997857Y-145177142D01*
X140093095Y-145129523D01*
X140283571Y-145081904D01*
X140521666Y-145081904D01*
X140712142Y-145129523D01*
X140807380Y-145177142D01*
X140855000Y-145224761D01*
X140902619Y-145320000D01*
X140474047Y-146224761D02*
X140521666Y-146129523D01*
X140569285Y-146081904D01*
X140664523Y-146034285D01*
X140712142Y-146034285D01*
X140807380Y-146081904D01*
X140855000Y-146129523D01*
X140902619Y-146224761D01*
X140902619Y-146415238D01*
X140855000Y-146510476D01*
X140807380Y-146558095D01*
X140712142Y-146605714D01*
X140664523Y-146605714D01*
X140569285Y-146558095D01*
X140521666Y-146510476D01*
X140474047Y-146415238D01*
X140474047Y-146224761D01*
X140426428Y-146129523D01*
X140378809Y-146081904D01*
X140283571Y-146034285D01*
X140093095Y-146034285D01*
X139997857Y-146081904D01*
X139950238Y-146129523D01*
X139902619Y-146224761D01*
X139902619Y-146415238D01*
X139950238Y-146510476D01*
X139997857Y-146558095D01*
X140093095Y-146605714D01*
X140283571Y-146605714D01*
X140378809Y-146558095D01*
X140426428Y-146510476D01*
X140474047Y-146415238D01*
X140902619Y-147224761D02*
X140902619Y-147320000D01*
X140855000Y-147415238D01*
X140807380Y-147462857D01*
X140712142Y-147510476D01*
X140521666Y-147558095D01*
X140283571Y-147558095D01*
X140093095Y-147510476D01*
X139997857Y-147462857D01*
X139950238Y-147415238D01*
X139902619Y-147320000D01*
X139902619Y-147224761D01*
X139950238Y-147129523D01*
X139997857Y-147081904D01*
X140093095Y-147034285D01*
X140283571Y-146986666D01*
X140521666Y-146986666D01*
X140712142Y-147034285D01*
X140807380Y-147081904D01*
X140855000Y-147129523D01*
X140902619Y-147224761D01*
X139902619Y-148748571D02*
X140569285Y-148748571D01*
X140474047Y-148748571D02*
X140521666Y-148796190D01*
X140569285Y-148891428D01*
X140569285Y-149034285D01*
X140521666Y-149129523D01*
X140426428Y-149177142D01*
X139902619Y-149177142D01*
X140426428Y-149177142D02*
X140521666Y-149224761D01*
X140569285Y-149320000D01*
X140569285Y-149462857D01*
X140521666Y-149558095D01*
X140426428Y-149605714D01*
X139902619Y-149605714D01*
X139902619Y-150081904D02*
X140569285Y-150081904D01*
X140474047Y-150081904D02*
X140521666Y-150129523D01*
X140569285Y-150224761D01*
X140569285Y-150367619D01*
X140521666Y-150462857D01*
X140426428Y-150510476D01*
X139902619Y-150510476D01*
X140426428Y-150510476D02*
X140521666Y-150558095D01*
X140569285Y-150653333D01*
X140569285Y-150796190D01*
X140521666Y-150891428D01*
X140426428Y-150939047D01*
X139902619Y-150939047D01*
D11*
X141605000Y-144780000D02*
X141605000Y-149860000D01*
X145542000Y-144780000D02*
X141018579Y-144780000D01*
X145542000Y-149860000D02*
X141018579Y-149860000D01*
X141605000Y-149860000D02*
X141018579Y-148733496D01*
X141605000Y-149860000D02*
X142191421Y-148733496D01*
X141605000Y-144780000D02*
X141018579Y-145906504D01*
X141605000Y-144780000D02*
X142191421Y-145906504D01*
D10*
X149019071Y-154483380D02*
X148447642Y-154483380D01*
X148733357Y-154483380D02*
X148733357Y-153483380D01*
X148638119Y-153626238D01*
X148542880Y-153721476D01*
X148447642Y-153769095D01*
X149876214Y-153816714D02*
X149876214Y-154483380D01*
X149638119Y-153435761D02*
X149400023Y-154150047D01*
X150019071Y-154150047D01*
X150400023Y-154388142D02*
X150447642Y-154435761D01*
X150400023Y-154483380D01*
X150352404Y-154435761D01*
X150400023Y-154388142D01*
X150400023Y-154483380D01*
X151066690Y-153483380D02*
X151161928Y-153483380D01*
X151257166Y-153531000D01*
X151304785Y-153578619D01*
X151352404Y-153673857D01*
X151400023Y-153864333D01*
X151400023Y-154102428D01*
X151352404Y-154292904D01*
X151304785Y-154388142D01*
X151257166Y-154435761D01*
X151161928Y-154483380D01*
X151066690Y-154483380D01*
X150971452Y-154435761D01*
X150923833Y-154388142D01*
X150876214Y-154292904D01*
X150828595Y-154102428D01*
X150828595Y-153864333D01*
X150876214Y-153673857D01*
X150923833Y-153578619D01*
X150971452Y-153531000D01*
X151066690Y-153483380D01*
X151876214Y-154483380D02*
X152066690Y-154483380D01*
X152161928Y-154435761D01*
X152209547Y-154388142D01*
X152304785Y-154245285D01*
X152352404Y-154054809D01*
X152352404Y-153673857D01*
X152304785Y-153578619D01*
X152257166Y-153531000D01*
X152161928Y-153483380D01*
X151971452Y-153483380D01*
X151876214Y-153531000D01*
X151828595Y-153578619D01*
X151780976Y-153673857D01*
X151780976Y-153911952D01*
X151828595Y-154007190D01*
X151876214Y-154054809D01*
X151971452Y-154102428D01*
X152161928Y-154102428D01*
X152257166Y-154054809D01*
X152304785Y-154007190D01*
X152352404Y-153911952D01*
X152685738Y-153483380D02*
X153352404Y-153483380D01*
X152923833Y-154483380D01*
X154495261Y-154483380D02*
X154495261Y-153816714D01*
X154495261Y-153911952D02*
X154542880Y-153864333D01*
X154638119Y-153816714D01*
X154780976Y-153816714D01*
X154876214Y-153864333D01*
X154923833Y-153959571D01*
X154923833Y-154483380D01*
X154923833Y-153959571D02*
X154971452Y-153864333D01*
X155066690Y-153816714D01*
X155209547Y-153816714D01*
X155304785Y-153864333D01*
X155352404Y-153959571D01*
X155352404Y-154483380D01*
X155828595Y-154483380D02*
X155828595Y-153816714D01*
X155828595Y-153911952D02*
X155876214Y-153864333D01*
X155971452Y-153816714D01*
X156114309Y-153816714D01*
X156209547Y-153864333D01*
X156257166Y-153959571D01*
X156257166Y-154483380D01*
X156257166Y-153959571D02*
X156304785Y-153864333D01*
X156400023Y-153816714D01*
X156542880Y-153816714D01*
X156638119Y-153864333D01*
X156685738Y-153959571D01*
X156685738Y-154483380D01*
D11*
X145542000Y-152781000D02*
X159639000Y-152781000D01*
X145542000Y-144780000D02*
X145542000Y-153367421D01*
X159639000Y-144780000D02*
X159639000Y-153367421D01*
X159639000Y-152781000D02*
X158512496Y-153367421D01*
X159639000Y-152781000D02*
X158512496Y-152194579D01*
X145542000Y-152781000D02*
X146668504Y-153367421D01*
X145542000Y-152781000D02*
X146668504Y-152194579D01*
D10*
X83487023Y-142807715D02*
X83487023Y-143474381D01*
X83248928Y-142426762D02*
X83010833Y-143141048D01*
X83629880Y-143141048D01*
X84010833Y-143379143D02*
X84058452Y-143426762D01*
X84010833Y-143474381D01*
X83963214Y-143426762D01*
X84010833Y-143379143D01*
X84010833Y-143474381D01*
X84915595Y-142807715D02*
X84915595Y-143474381D01*
X84677500Y-142426762D02*
X84439404Y-143141048D01*
X85058452Y-143141048D01*
X85867976Y-142807715D02*
X85867976Y-143474381D01*
X85629880Y-142426762D02*
X85391785Y-143141048D01*
X86010833Y-143141048D01*
X86867976Y-142474381D02*
X86391785Y-142474381D01*
X86344166Y-142950572D01*
X86391785Y-142902953D01*
X86487023Y-142855334D01*
X86725119Y-142855334D01*
X86820357Y-142902953D01*
X86867976Y-142950572D01*
X86915595Y-143045810D01*
X86915595Y-143283905D01*
X86867976Y-143379143D01*
X86820357Y-143426762D01*
X86725119Y-143474381D01*
X86487023Y-143474381D01*
X86391785Y-143426762D01*
X86344166Y-143379143D01*
X88106071Y-143474381D02*
X88106071Y-142807715D01*
X88106071Y-142902953D02*
X88153690Y-142855334D01*
X88248928Y-142807715D01*
X88391785Y-142807715D01*
X88487023Y-142855334D01*
X88534642Y-142950572D01*
X88534642Y-143474381D01*
X88534642Y-142950572D02*
X88582261Y-142855334D01*
X88677500Y-142807715D01*
X88820357Y-142807715D01*
X88915595Y-142855334D01*
X88963214Y-142950572D01*
X88963214Y-143474381D01*
X89439404Y-143474381D02*
X89439404Y-142807715D01*
X89439404Y-142902953D02*
X89487023Y-142855334D01*
X89582261Y-142807715D01*
X89725119Y-142807715D01*
X89820357Y-142855334D01*
X89867976Y-142950572D01*
X89867976Y-143474381D01*
X89867976Y-142950572D02*
X89915595Y-142855334D01*
X90010833Y-142807715D01*
X90153690Y-142807715D01*
X90248928Y-142855334D01*
X90296547Y-142950572D01*
X90296547Y-143474381D01*
D11*
X88900000Y-144272001D02*
X84455000Y-144272001D01*
X88900000Y-144780000D02*
X88900000Y-143685580D01*
X84455000Y-144780000D02*
X84455000Y-143685580D01*
X84455000Y-144272001D02*
X85581504Y-143685580D01*
X84455000Y-144272001D02*
X85581504Y-144858422D01*
X88900000Y-144272001D02*
X87773496Y-143685580D01*
X88900000Y-144272001D02*
X87773496Y-144858422D01*
D10*
X93237619Y-144177142D02*
X93237619Y-143700952D01*
X92761428Y-143653333D01*
X92809047Y-143700952D01*
X92856666Y-143796190D01*
X92856666Y-144034285D01*
X92809047Y-144129523D01*
X92761428Y-144177142D01*
X92666190Y-144224761D01*
X92428095Y-144224761D01*
X92332857Y-144177142D01*
X92285238Y-144129523D01*
X92237619Y-144034285D01*
X92237619Y-143796190D01*
X92285238Y-143700952D01*
X92332857Y-143653333D01*
X92332857Y-144653333D02*
X92285238Y-144700952D01*
X92237619Y-144653333D01*
X92285238Y-144605714D01*
X92332857Y-144653333D01*
X92237619Y-144653333D01*
X93237619Y-145320000D02*
X93237619Y-145415238D01*
X93190000Y-145510476D01*
X93142380Y-145558095D01*
X93047142Y-145605714D01*
X92856666Y-145653333D01*
X92618571Y-145653333D01*
X92428095Y-145605714D01*
X92332857Y-145558095D01*
X92285238Y-145510476D01*
X92237619Y-145415238D01*
X92237619Y-145320000D01*
X92285238Y-145224761D01*
X92332857Y-145177142D01*
X92428095Y-145129523D01*
X92618571Y-145081904D01*
X92856666Y-145081904D01*
X93047142Y-145129523D01*
X93142380Y-145177142D01*
X93190000Y-145224761D01*
X93237619Y-145320000D01*
X92809047Y-146224761D02*
X92856666Y-146129523D01*
X92904285Y-146081904D01*
X92999523Y-146034285D01*
X93047142Y-146034285D01*
X93142380Y-146081904D01*
X93190000Y-146129523D01*
X93237619Y-146224761D01*
X93237619Y-146415238D01*
X93190000Y-146510476D01*
X93142380Y-146558095D01*
X93047142Y-146605714D01*
X92999523Y-146605714D01*
X92904285Y-146558095D01*
X92856666Y-146510476D01*
X92809047Y-146415238D01*
X92809047Y-146224761D01*
X92761428Y-146129523D01*
X92713809Y-146081904D01*
X92618571Y-146034285D01*
X92428095Y-146034285D01*
X92332857Y-146081904D01*
X92285238Y-146129523D01*
X92237619Y-146224761D01*
X92237619Y-146415238D01*
X92285238Y-146510476D01*
X92332857Y-146558095D01*
X92428095Y-146605714D01*
X92618571Y-146605714D01*
X92713809Y-146558095D01*
X92761428Y-146510476D01*
X92809047Y-146415238D01*
X93237619Y-147224761D02*
X93237619Y-147320000D01*
X93190000Y-147415238D01*
X93142380Y-147462857D01*
X93047142Y-147510476D01*
X92856666Y-147558095D01*
X92618571Y-147558095D01*
X92428095Y-147510476D01*
X92332857Y-147462857D01*
X92285238Y-147415238D01*
X92237619Y-147320000D01*
X92237619Y-147224761D01*
X92285238Y-147129523D01*
X92332857Y-147081904D01*
X92428095Y-147034285D01*
X92618571Y-146986666D01*
X92856666Y-146986666D01*
X93047142Y-147034285D01*
X93142380Y-147081904D01*
X93190000Y-147129523D01*
X93237619Y-147224761D01*
X92237619Y-148748571D02*
X92904285Y-148748571D01*
X92809047Y-148748571D02*
X92856666Y-148796190D01*
X92904285Y-148891428D01*
X92904285Y-149034285D01*
X92856666Y-149129523D01*
X92761428Y-149177142D01*
X92237619Y-149177142D01*
X92761428Y-149177142D02*
X92856666Y-149224761D01*
X92904285Y-149320000D01*
X92904285Y-149462857D01*
X92856666Y-149558095D01*
X92761428Y-149605714D01*
X92237619Y-149605714D01*
X92237619Y-150081904D02*
X92904285Y-150081904D01*
X92809047Y-150081904D02*
X92856666Y-150129523D01*
X92904285Y-150224761D01*
X92904285Y-150367619D01*
X92856666Y-150462857D01*
X92761428Y-150510476D01*
X92237619Y-150510476D01*
X92761428Y-150510476D02*
X92856666Y-150558095D01*
X92904285Y-150653333D01*
X92904285Y-150796190D01*
X92856666Y-150891428D01*
X92761428Y-150939047D01*
X92237619Y-150939047D01*
D11*
X91440000Y-144780000D02*
X91440000Y-149860000D01*
X88900000Y-144780000D02*
X92026421Y-144780000D01*
X88900000Y-149860000D02*
X92026421Y-149860000D01*
X91440000Y-149860000D02*
X90853579Y-148733496D01*
X91440000Y-149860000D02*
X92026421Y-148733496D01*
X91440000Y-144780000D02*
X90853579Y-145906504D01*
X91440000Y-144780000D02*
X92026421Y-145906504D01*
D10*
X85757142Y-140315380D02*
X85280952Y-140315380D01*
X85233333Y-140791571D01*
X85280952Y-140743952D01*
X85376190Y-140696333D01*
X85614285Y-140696333D01*
X85709523Y-140743952D01*
X85757142Y-140791571D01*
X85804761Y-140886809D01*
X85804761Y-141124904D01*
X85757142Y-141220142D01*
X85709523Y-141267761D01*
X85614285Y-141315380D01*
X85376190Y-141315380D01*
X85280952Y-141267761D01*
X85233333Y-141220142D01*
X86233333Y-141220142D02*
X86280952Y-141267761D01*
X86233333Y-141315380D01*
X86185714Y-141267761D01*
X86233333Y-141220142D01*
X86233333Y-141315380D01*
X86900000Y-140315380D02*
X86995238Y-140315380D01*
X87090476Y-140363000D01*
X87138095Y-140410619D01*
X87185714Y-140505857D01*
X87233333Y-140696333D01*
X87233333Y-140934428D01*
X87185714Y-141124904D01*
X87138095Y-141220142D01*
X87090476Y-141267761D01*
X86995238Y-141315380D01*
X86900000Y-141315380D01*
X86804761Y-141267761D01*
X86757142Y-141220142D01*
X86709523Y-141124904D01*
X86661904Y-140934428D01*
X86661904Y-140696333D01*
X86709523Y-140505857D01*
X86757142Y-140410619D01*
X86804761Y-140363000D01*
X86900000Y-140315380D01*
X87804761Y-140743952D02*
X87709523Y-140696333D01*
X87661904Y-140648714D01*
X87614285Y-140553476D01*
X87614285Y-140505857D01*
X87661904Y-140410619D01*
X87709523Y-140363000D01*
X87804761Y-140315380D01*
X87995238Y-140315380D01*
X88090476Y-140363000D01*
X88138095Y-140410619D01*
X88185714Y-140505857D01*
X88185714Y-140553476D01*
X88138095Y-140648714D01*
X88090476Y-140696333D01*
X87995238Y-140743952D01*
X87804761Y-140743952D01*
X87709523Y-140791571D01*
X87661904Y-140839190D01*
X87614285Y-140934428D01*
X87614285Y-141124904D01*
X87661904Y-141220142D01*
X87709523Y-141267761D01*
X87804761Y-141315380D01*
X87995238Y-141315380D01*
X88090476Y-141267761D01*
X88138095Y-141220142D01*
X88185714Y-141124904D01*
X88185714Y-140934428D01*
X88138095Y-140839190D01*
X88090476Y-140791571D01*
X87995238Y-140743952D01*
X88804761Y-140315380D02*
X88900000Y-140315380D01*
X88995238Y-140363000D01*
X89042857Y-140410619D01*
X89090476Y-140505857D01*
X89138095Y-140696333D01*
X89138095Y-140934428D01*
X89090476Y-141124904D01*
X89042857Y-141220142D01*
X88995238Y-141267761D01*
X88900000Y-141315380D01*
X88804761Y-141315380D01*
X88709523Y-141267761D01*
X88661904Y-141220142D01*
X88614285Y-141124904D01*
X88566666Y-140934428D01*
X88566666Y-140696333D01*
X88614285Y-140505857D01*
X88661904Y-140410619D01*
X88709523Y-140363000D01*
X88804761Y-140315380D01*
X90328571Y-141315380D02*
X90328571Y-140648714D01*
X90328571Y-140743952D02*
X90376190Y-140696333D01*
X90471428Y-140648714D01*
X90614285Y-140648714D01*
X90709523Y-140696333D01*
X90757142Y-140791571D01*
X90757142Y-141315380D01*
X90757142Y-140791571D02*
X90804761Y-140696333D01*
X90900000Y-140648714D01*
X91042857Y-140648714D01*
X91138095Y-140696333D01*
X91185714Y-140791571D01*
X91185714Y-141315380D01*
X91661904Y-141315380D02*
X91661904Y-140648714D01*
X91661904Y-140743952D02*
X91709523Y-140696333D01*
X91804761Y-140648714D01*
X91947619Y-140648714D01*
X92042857Y-140696333D01*
X92090476Y-140791571D01*
X92090476Y-141315380D01*
X92090476Y-140791571D02*
X92138095Y-140696333D01*
X92233333Y-140648714D01*
X92376190Y-140648714D01*
X92471428Y-140696333D01*
X92519047Y-140791571D01*
X92519047Y-141315380D01*
D11*
X86360000Y-142113000D02*
X91440000Y-142113000D01*
X86360000Y-144780000D02*
X86360000Y-141526579D01*
X91440000Y-144780000D02*
X91440000Y-141526579D01*
X91440000Y-142113000D02*
X90313496Y-142699421D01*
X91440000Y-142113000D02*
X90313496Y-141526579D01*
X86360000Y-142113000D02*
X87486504Y-142699421D01*
X86360000Y-142113000D02*
X87486504Y-141526579D01*
D10*
X152967619Y-144177142D02*
X152967619Y-143700952D01*
X152491428Y-143653333D01*
X152539047Y-143700952D01*
X152586666Y-143796190D01*
X152586666Y-144034285D01*
X152539047Y-144129523D01*
X152491428Y-144177142D01*
X152396190Y-144224761D01*
X152158095Y-144224761D01*
X152062857Y-144177142D01*
X152015238Y-144129523D01*
X151967619Y-144034285D01*
X151967619Y-143796190D01*
X152015238Y-143700952D01*
X152062857Y-143653333D01*
X152062857Y-144653333D02*
X152015238Y-144700952D01*
X151967619Y-144653333D01*
X152015238Y-144605714D01*
X152062857Y-144653333D01*
X151967619Y-144653333D01*
X152967619Y-145320000D02*
X152967619Y-145415238D01*
X152920000Y-145510476D01*
X152872380Y-145558095D01*
X152777142Y-145605714D01*
X152586666Y-145653333D01*
X152348571Y-145653333D01*
X152158095Y-145605714D01*
X152062857Y-145558095D01*
X152015238Y-145510476D01*
X151967619Y-145415238D01*
X151967619Y-145320000D01*
X152015238Y-145224761D01*
X152062857Y-145177142D01*
X152158095Y-145129523D01*
X152348571Y-145081904D01*
X152586666Y-145081904D01*
X152777142Y-145129523D01*
X152872380Y-145177142D01*
X152920000Y-145224761D01*
X152967619Y-145320000D01*
X152539047Y-146224761D02*
X152586666Y-146129523D01*
X152634285Y-146081904D01*
X152729523Y-146034285D01*
X152777142Y-146034285D01*
X152872380Y-146081904D01*
X152920000Y-146129523D01*
X152967619Y-146224761D01*
X152967619Y-146415238D01*
X152920000Y-146510476D01*
X152872380Y-146558095D01*
X152777142Y-146605714D01*
X152729523Y-146605714D01*
X152634285Y-146558095D01*
X152586666Y-146510476D01*
X152539047Y-146415238D01*
X152539047Y-146224761D01*
X152491428Y-146129523D01*
X152443809Y-146081904D01*
X152348571Y-146034285D01*
X152158095Y-146034285D01*
X152062857Y-146081904D01*
X152015238Y-146129523D01*
X151967619Y-146224761D01*
X151967619Y-146415238D01*
X152015238Y-146510476D01*
X152062857Y-146558095D01*
X152158095Y-146605714D01*
X152348571Y-146605714D01*
X152443809Y-146558095D01*
X152491428Y-146510476D01*
X152539047Y-146415238D01*
X152967619Y-147224761D02*
X152967619Y-147320000D01*
X152920000Y-147415238D01*
X152872380Y-147462857D01*
X152777142Y-147510476D01*
X152586666Y-147558095D01*
X152348571Y-147558095D01*
X152158095Y-147510476D01*
X152062857Y-147462857D01*
X152015238Y-147415238D01*
X151967619Y-147320000D01*
X151967619Y-147224761D01*
X152015238Y-147129523D01*
X152062857Y-147081904D01*
X152158095Y-147034285D01*
X152348571Y-146986666D01*
X152586666Y-146986666D01*
X152777142Y-147034285D01*
X152872380Y-147081904D01*
X152920000Y-147129523D01*
X152967619Y-147224761D01*
X151967619Y-148748571D02*
X152634285Y-148748571D01*
X152539047Y-148748571D02*
X152586666Y-148796190D01*
X152634285Y-148891428D01*
X152634285Y-149034285D01*
X152586666Y-149129523D01*
X152491428Y-149177142D01*
X151967619Y-149177142D01*
X152491428Y-149177142D02*
X152586666Y-149224761D01*
X152634285Y-149320000D01*
X152634285Y-149462857D01*
X152586666Y-149558095D01*
X152491428Y-149605714D01*
X151967619Y-149605714D01*
X151967619Y-150081904D02*
X152634285Y-150081904D01*
X152539047Y-150081904D02*
X152586666Y-150129523D01*
X152634285Y-150224761D01*
X152634285Y-150367619D01*
X152586666Y-150462857D01*
X152491428Y-150510476D01*
X151967619Y-150510476D01*
X152491428Y-150510476D02*
X152586666Y-150558095D01*
X152634285Y-150653333D01*
X152634285Y-150796190D01*
X152586666Y-150891428D01*
X152491428Y-150939047D01*
X151967619Y-150939047D01*
D11*
X153670000Y-144780000D02*
X153670000Y-149860000D01*
X156210000Y-144780000D02*
X153083579Y-144780000D01*
X156210000Y-149860000D02*
X153083579Y-149860000D01*
X153670000Y-149860000D02*
X153083579Y-148733496D01*
X153670000Y-149860000D02*
X154256421Y-148733496D01*
X153670000Y-144780000D02*
X153083579Y-145906504D01*
X153670000Y-144780000D02*
X154256421Y-145906504D01*
D10*
X154210214Y-142474380D02*
X154829261Y-142474380D01*
X154495928Y-142855333D01*
X154638785Y-142855333D01*
X154734023Y-142902952D01*
X154781642Y-142950571D01*
X154829261Y-143045809D01*
X154829261Y-143283904D01*
X154781642Y-143379142D01*
X154734023Y-143426761D01*
X154638785Y-143474380D01*
X154353071Y-143474380D01*
X154257833Y-143426761D01*
X154210214Y-143379142D01*
X155257833Y-143379142D02*
X155305452Y-143426761D01*
X155257833Y-143474380D01*
X155210214Y-143426761D01*
X155257833Y-143379142D01*
X155257833Y-143474380D01*
X156162595Y-142807714D02*
X156162595Y-143474380D01*
X155924500Y-142426761D02*
X155686404Y-143141047D01*
X156305452Y-143141047D01*
X156638785Y-142569619D02*
X156686404Y-142522000D01*
X156781642Y-142474380D01*
X157019738Y-142474380D01*
X157114976Y-142522000D01*
X157162595Y-142569619D01*
X157210214Y-142664857D01*
X157210214Y-142760095D01*
X157162595Y-142902952D01*
X156591166Y-143474380D01*
X157210214Y-143474380D01*
X157686404Y-143474380D02*
X157876880Y-143474380D01*
X157972119Y-143426761D01*
X158019738Y-143379142D01*
X158114976Y-143236285D01*
X158162595Y-143045809D01*
X158162595Y-142664857D01*
X158114976Y-142569619D01*
X158067357Y-142522000D01*
X157972119Y-142474380D01*
X157781642Y-142474380D01*
X157686404Y-142522000D01*
X157638785Y-142569619D01*
X157591166Y-142664857D01*
X157591166Y-142902952D01*
X157638785Y-142998190D01*
X157686404Y-143045809D01*
X157781642Y-143093428D01*
X157972119Y-143093428D01*
X158067357Y-143045809D01*
X158114976Y-142998190D01*
X158162595Y-142902952D01*
X159353071Y-143474380D02*
X159353071Y-142807714D01*
X159353071Y-142902952D02*
X159400690Y-142855333D01*
X159495928Y-142807714D01*
X159638785Y-142807714D01*
X159734023Y-142855333D01*
X159781642Y-142950571D01*
X159781642Y-143474380D01*
X159781642Y-142950571D02*
X159829261Y-142855333D01*
X159924500Y-142807714D01*
X160067357Y-142807714D01*
X160162595Y-142855333D01*
X160210214Y-142950571D01*
X160210214Y-143474380D01*
X160686404Y-143474380D02*
X160686404Y-142807714D01*
X160686404Y-142902952D02*
X160734023Y-142855333D01*
X160829261Y-142807714D01*
X160972119Y-142807714D01*
X161067357Y-142855333D01*
X161114976Y-142950571D01*
X161114976Y-143474380D01*
X161114976Y-142950571D02*
X161162595Y-142855333D01*
X161257833Y-142807714D01*
X161400690Y-142807714D01*
X161495928Y-142855333D01*
X161543547Y-142950571D01*
X161543547Y-143474380D01*
D11*
X156210000Y-144272000D02*
X159639000Y-144272000D01*
X156210000Y-144780000D02*
X156210000Y-143685579D01*
X159639000Y-144780000D02*
X159639000Y-143685579D01*
X159639000Y-144272000D02*
X158512496Y-144858421D01*
X159639000Y-144272000D02*
X158512496Y-143685579D01*
X156210000Y-144272000D02*
X157336504Y-144858421D01*
X156210000Y-144272000D02*
X157336504Y-143685579D01*
D10*
X153067142Y-140315380D02*
X152590952Y-140315380D01*
X152543333Y-140791571D01*
X152590952Y-140743952D01*
X152686190Y-140696333D01*
X152924285Y-140696333D01*
X153019523Y-140743952D01*
X153067142Y-140791571D01*
X153114761Y-140886809D01*
X153114761Y-141124904D01*
X153067142Y-141220142D01*
X153019523Y-141267761D01*
X152924285Y-141315380D01*
X152686190Y-141315380D01*
X152590952Y-141267761D01*
X152543333Y-141220142D01*
X153543333Y-141220142D02*
X153590952Y-141267761D01*
X153543333Y-141315380D01*
X153495714Y-141267761D01*
X153543333Y-141220142D01*
X153543333Y-141315380D01*
X154210000Y-140315380D02*
X154305238Y-140315380D01*
X154400476Y-140363000D01*
X154448095Y-140410619D01*
X154495714Y-140505857D01*
X154543333Y-140696333D01*
X154543333Y-140934428D01*
X154495714Y-141124904D01*
X154448095Y-141220142D01*
X154400476Y-141267761D01*
X154305238Y-141315380D01*
X154210000Y-141315380D01*
X154114761Y-141267761D01*
X154067142Y-141220142D01*
X154019523Y-141124904D01*
X153971904Y-140934428D01*
X153971904Y-140696333D01*
X154019523Y-140505857D01*
X154067142Y-140410619D01*
X154114761Y-140363000D01*
X154210000Y-140315380D01*
X155114761Y-140743952D02*
X155019523Y-140696333D01*
X154971904Y-140648714D01*
X154924285Y-140553476D01*
X154924285Y-140505857D01*
X154971904Y-140410619D01*
X155019523Y-140363000D01*
X155114761Y-140315380D01*
X155305238Y-140315380D01*
X155400476Y-140363000D01*
X155448095Y-140410619D01*
X155495714Y-140505857D01*
X155495714Y-140553476D01*
X155448095Y-140648714D01*
X155400476Y-140696333D01*
X155305238Y-140743952D01*
X155114761Y-140743952D01*
X155019523Y-140791571D01*
X154971904Y-140839190D01*
X154924285Y-140934428D01*
X154924285Y-141124904D01*
X154971904Y-141220142D01*
X155019523Y-141267761D01*
X155114761Y-141315380D01*
X155305238Y-141315380D01*
X155400476Y-141267761D01*
X155448095Y-141220142D01*
X155495714Y-141124904D01*
X155495714Y-140934428D01*
X155448095Y-140839190D01*
X155400476Y-140791571D01*
X155305238Y-140743952D01*
X156114761Y-140315380D02*
X156210000Y-140315380D01*
X156305238Y-140363000D01*
X156352857Y-140410619D01*
X156400476Y-140505857D01*
X156448095Y-140696333D01*
X156448095Y-140934428D01*
X156400476Y-141124904D01*
X156352857Y-141220142D01*
X156305238Y-141267761D01*
X156210000Y-141315380D01*
X156114761Y-141315380D01*
X156019523Y-141267761D01*
X155971904Y-141220142D01*
X155924285Y-141124904D01*
X155876666Y-140934428D01*
X155876666Y-140696333D01*
X155924285Y-140505857D01*
X155971904Y-140410619D01*
X156019523Y-140363000D01*
X156114761Y-140315380D01*
X157638571Y-141315380D02*
X157638571Y-140648714D01*
X157638571Y-140743952D02*
X157686190Y-140696333D01*
X157781428Y-140648714D01*
X157924285Y-140648714D01*
X158019523Y-140696333D01*
X158067142Y-140791571D01*
X158067142Y-141315380D01*
X158067142Y-140791571D02*
X158114761Y-140696333D01*
X158210000Y-140648714D01*
X158352857Y-140648714D01*
X158448095Y-140696333D01*
X158495714Y-140791571D01*
X158495714Y-141315380D01*
X158971904Y-141315380D02*
X158971904Y-140648714D01*
X158971904Y-140743952D02*
X159019523Y-140696333D01*
X159114761Y-140648714D01*
X159257619Y-140648714D01*
X159352857Y-140696333D01*
X159400476Y-140791571D01*
X159400476Y-141315380D01*
X159400476Y-140791571D02*
X159448095Y-140696333D01*
X159543333Y-140648714D01*
X159686190Y-140648714D01*
X159781428Y-140696333D01*
X159829047Y-140791571D01*
X159829047Y-141315380D01*
D11*
X158750000Y-142113000D02*
X153670000Y-142113000D01*
X158750000Y-144780000D02*
X158750000Y-141526579D01*
X153670000Y-144780000D02*
X153670000Y-141526579D01*
X153670000Y-142113000D02*
X154796504Y-141526579D01*
X153670000Y-142113000D02*
X154796504Y-142699421D01*
X158750000Y-142113000D02*
X157623496Y-141526579D01*
X158750000Y-142113000D02*
X157623496Y-142699421D01*
D10*
X83487023Y-51113715D02*
X83487023Y-51780381D01*
X83248928Y-50732762D02*
X83010833Y-51447048D01*
X83629880Y-51447048D01*
X84010833Y-51685143D02*
X84058452Y-51732762D01*
X84010833Y-51780381D01*
X83963214Y-51732762D01*
X84010833Y-51685143D01*
X84010833Y-51780381D01*
X84915595Y-51113715D02*
X84915595Y-51780381D01*
X84677500Y-50732762D02*
X84439404Y-51447048D01*
X85058452Y-51447048D01*
X85867976Y-51113715D02*
X85867976Y-51780381D01*
X85629880Y-50732762D02*
X85391785Y-51447048D01*
X86010833Y-51447048D01*
X86867976Y-50780381D02*
X86391785Y-50780381D01*
X86344166Y-51256572D01*
X86391785Y-51208953D01*
X86487023Y-51161334D01*
X86725119Y-51161334D01*
X86820357Y-51208953D01*
X86867976Y-51256572D01*
X86915595Y-51351810D01*
X86915595Y-51589905D01*
X86867976Y-51685143D01*
X86820357Y-51732762D01*
X86725119Y-51780381D01*
X86487023Y-51780381D01*
X86391785Y-51732762D01*
X86344166Y-51685143D01*
X88106071Y-51780381D02*
X88106071Y-51113715D01*
X88106071Y-51208953D02*
X88153690Y-51161334D01*
X88248928Y-51113715D01*
X88391785Y-51113715D01*
X88487023Y-51161334D01*
X88534642Y-51256572D01*
X88534642Y-51780381D01*
X88534642Y-51256572D02*
X88582261Y-51161334D01*
X88677500Y-51113715D01*
X88820357Y-51113715D01*
X88915595Y-51161334D01*
X88963214Y-51256572D01*
X88963214Y-51780381D01*
X89439404Y-51780381D02*
X89439404Y-51113715D01*
X89439404Y-51208953D02*
X89487023Y-51161334D01*
X89582261Y-51113715D01*
X89725119Y-51113715D01*
X89820357Y-51161334D01*
X89867976Y-51256572D01*
X89867976Y-51780381D01*
X89867976Y-51256572D02*
X89915595Y-51161334D01*
X90010833Y-51113715D01*
X90153690Y-51113715D01*
X90248928Y-51161334D01*
X90296547Y-51256572D01*
X90296547Y-51780381D01*
D11*
X88900000Y-52578001D02*
X84455000Y-52578001D01*
X88900000Y-54610000D02*
X88900000Y-51991580D01*
X84455000Y-54610000D02*
X84455000Y-51991580D01*
X84455000Y-52578001D02*
X85581504Y-51991580D01*
X84455000Y-52578001D02*
X85581504Y-53164422D01*
X88900000Y-52578001D02*
X87773496Y-51991580D01*
X88900000Y-52578001D02*
X87773496Y-53164422D01*
D10*
X93491714Y-55450976D02*
X94158380Y-55450976D01*
X93110761Y-55689071D02*
X93825047Y-55927166D01*
X93825047Y-55308119D01*
X94063142Y-54927166D02*
X94110761Y-54879547D01*
X94158380Y-54927166D01*
X94110761Y-54974785D01*
X94063142Y-54927166D01*
X94158380Y-54927166D01*
X93158380Y-54022404D02*
X93158380Y-54212880D01*
X93206000Y-54308119D01*
X93253619Y-54355738D01*
X93396476Y-54450976D01*
X93586952Y-54498595D01*
X93967904Y-54498595D01*
X94063142Y-54450976D01*
X94110761Y-54403357D01*
X94158380Y-54308119D01*
X94158380Y-54117642D01*
X94110761Y-54022404D01*
X94063142Y-53974785D01*
X93967904Y-53927166D01*
X93729809Y-53927166D01*
X93634571Y-53974785D01*
X93586952Y-54022404D01*
X93539333Y-54117642D01*
X93539333Y-54308119D01*
X93586952Y-54403357D01*
X93634571Y-54450976D01*
X93729809Y-54498595D01*
X94158380Y-53450976D02*
X94158380Y-53260500D01*
X94110761Y-53165261D01*
X94063142Y-53117642D01*
X93920285Y-53022404D01*
X93729809Y-52974785D01*
X93348857Y-52974785D01*
X93253619Y-53022404D01*
X93206000Y-53070023D01*
X93158380Y-53165261D01*
X93158380Y-53355738D01*
X93206000Y-53450976D01*
X93253619Y-53498595D01*
X93348857Y-53546214D01*
X93586952Y-53546214D01*
X93682190Y-53498595D01*
X93729809Y-53450976D01*
X93777428Y-53355738D01*
X93777428Y-53165261D01*
X93729809Y-53070023D01*
X93682190Y-53022404D01*
X93586952Y-52974785D01*
X94158380Y-52498595D02*
X94158380Y-52308119D01*
X94110761Y-52212880D01*
X94063142Y-52165261D01*
X93920285Y-52070023D01*
X93729809Y-52022404D01*
X93348857Y-52022404D01*
X93253619Y-52070023D01*
X93206000Y-52117642D01*
X93158380Y-52212880D01*
X93158380Y-52403357D01*
X93206000Y-52498595D01*
X93253619Y-52546214D01*
X93348857Y-52593833D01*
X93586952Y-52593833D01*
X93682190Y-52546214D01*
X93729809Y-52498595D01*
X93777428Y-52403357D01*
X93777428Y-52212880D01*
X93729809Y-52117642D01*
X93682190Y-52070023D01*
X93586952Y-52022404D01*
X94158380Y-50831928D02*
X93491714Y-50831928D01*
X93586952Y-50831928D02*
X93539333Y-50784309D01*
X93491714Y-50689071D01*
X93491714Y-50546214D01*
X93539333Y-50450976D01*
X93634571Y-50403357D01*
X94158380Y-50403357D01*
X93634571Y-50403357D02*
X93539333Y-50355738D01*
X93491714Y-50260500D01*
X93491714Y-50117642D01*
X93539333Y-50022404D01*
X93634571Y-49974785D01*
X94158380Y-49974785D01*
X94158380Y-49498595D02*
X93491714Y-49498595D01*
X93586952Y-49498595D02*
X93539333Y-49450976D01*
X93491714Y-49355738D01*
X93491714Y-49212880D01*
X93539333Y-49117642D01*
X93634571Y-49070023D01*
X94158380Y-49070023D01*
X93634571Y-49070023D02*
X93539333Y-49022404D01*
X93491714Y-48927166D01*
X93491714Y-48784309D01*
X93539333Y-48689071D01*
X93634571Y-48641452D01*
X94158380Y-48641452D01*
D11*
X92456000Y-54610000D02*
X92456000Y-49911000D01*
X88900000Y-54610000D02*
X93042421Y-54610000D01*
X88900000Y-49911000D02*
X93042421Y-49911000D01*
X92456000Y-49911000D02*
X93042421Y-51037504D01*
X92456000Y-49911000D02*
X91869579Y-51037504D01*
X92456000Y-54610000D02*
X93042421Y-53483496D01*
X92456000Y-54610000D02*
X91869579Y-53483496D01*
D10*
X85757142Y-58360380D02*
X85280952Y-58360380D01*
X85233333Y-58836571D01*
X85280952Y-58788952D01*
X85376190Y-58741333D01*
X85614285Y-58741333D01*
X85709523Y-58788952D01*
X85757142Y-58836571D01*
X85804761Y-58931809D01*
X85804761Y-59169904D01*
X85757142Y-59265142D01*
X85709523Y-59312761D01*
X85614285Y-59360380D01*
X85376190Y-59360380D01*
X85280952Y-59312761D01*
X85233333Y-59265142D01*
X86233333Y-59265142D02*
X86280952Y-59312761D01*
X86233333Y-59360380D01*
X86185714Y-59312761D01*
X86233333Y-59265142D01*
X86233333Y-59360380D01*
X86900000Y-58360380D02*
X86995238Y-58360380D01*
X87090476Y-58408000D01*
X87138095Y-58455619D01*
X87185714Y-58550857D01*
X87233333Y-58741333D01*
X87233333Y-58979428D01*
X87185714Y-59169904D01*
X87138095Y-59265142D01*
X87090476Y-59312761D01*
X86995238Y-59360380D01*
X86900000Y-59360380D01*
X86804761Y-59312761D01*
X86757142Y-59265142D01*
X86709523Y-59169904D01*
X86661904Y-58979428D01*
X86661904Y-58741333D01*
X86709523Y-58550857D01*
X86757142Y-58455619D01*
X86804761Y-58408000D01*
X86900000Y-58360380D01*
X87804761Y-58788952D02*
X87709523Y-58741333D01*
X87661904Y-58693714D01*
X87614285Y-58598476D01*
X87614285Y-58550857D01*
X87661904Y-58455619D01*
X87709523Y-58408000D01*
X87804761Y-58360380D01*
X87995238Y-58360380D01*
X88090476Y-58408000D01*
X88138095Y-58455619D01*
X88185714Y-58550857D01*
X88185714Y-58598476D01*
X88138095Y-58693714D01*
X88090476Y-58741333D01*
X87995238Y-58788952D01*
X87804761Y-58788952D01*
X87709523Y-58836571D01*
X87661904Y-58884190D01*
X87614285Y-58979428D01*
X87614285Y-59169904D01*
X87661904Y-59265142D01*
X87709523Y-59312761D01*
X87804761Y-59360380D01*
X87995238Y-59360380D01*
X88090476Y-59312761D01*
X88138095Y-59265142D01*
X88185714Y-59169904D01*
X88185714Y-58979428D01*
X88138095Y-58884190D01*
X88090476Y-58836571D01*
X87995238Y-58788952D01*
X88804761Y-58360380D02*
X88900000Y-58360380D01*
X88995238Y-58408000D01*
X89042857Y-58455619D01*
X89090476Y-58550857D01*
X89138095Y-58741333D01*
X89138095Y-58979428D01*
X89090476Y-59169904D01*
X89042857Y-59265142D01*
X88995238Y-59312761D01*
X88900000Y-59360380D01*
X88804761Y-59360380D01*
X88709523Y-59312761D01*
X88661904Y-59265142D01*
X88614285Y-59169904D01*
X88566666Y-58979428D01*
X88566666Y-58741333D01*
X88614285Y-58550857D01*
X88661904Y-58455619D01*
X88709523Y-58408000D01*
X88804761Y-58360380D01*
X90328571Y-59360380D02*
X90328571Y-58693714D01*
X90328571Y-58788952D02*
X90376190Y-58741333D01*
X90471428Y-58693714D01*
X90614285Y-58693714D01*
X90709523Y-58741333D01*
X90757142Y-58836571D01*
X90757142Y-59360380D01*
X90757142Y-58836571D02*
X90804761Y-58741333D01*
X90900000Y-58693714D01*
X91042857Y-58693714D01*
X91138095Y-58741333D01*
X91185714Y-58836571D01*
X91185714Y-59360380D01*
X91661904Y-59360380D02*
X91661904Y-58693714D01*
X91661904Y-58788952D02*
X91709523Y-58741333D01*
X91804761Y-58693714D01*
X91947619Y-58693714D01*
X92042857Y-58741333D01*
X92090476Y-58836571D01*
X92090476Y-59360380D01*
X92090476Y-58836571D02*
X92138095Y-58741333D01*
X92233333Y-58693714D01*
X92376190Y-58693714D01*
X92471428Y-58741333D01*
X92519047Y-58836571D01*
X92519047Y-59360380D01*
D11*
X86360000Y-57658000D02*
X91440000Y-57658000D01*
X86360000Y-54610000D02*
X86360000Y-58244421D01*
X91440000Y-54610000D02*
X91440000Y-58244421D01*
X91440000Y-57658000D02*
X90313496Y-58244421D01*
X91440000Y-57658000D02*
X90313496Y-57071579D01*
X86360000Y-57658000D02*
X87486504Y-58244421D01*
X86360000Y-57658000D02*
X87486504Y-57071579D01*
D10*
X163341714Y-55450976D02*
X164008380Y-55450976D01*
X162960761Y-55689071D02*
X163675047Y-55927166D01*
X163675047Y-55308119D01*
X163913142Y-54927166D02*
X163960761Y-54879547D01*
X164008380Y-54927166D01*
X163960761Y-54974785D01*
X163913142Y-54927166D01*
X164008380Y-54927166D01*
X163008380Y-54022404D02*
X163008380Y-54212880D01*
X163056000Y-54308119D01*
X163103619Y-54355738D01*
X163246476Y-54450976D01*
X163436952Y-54498595D01*
X163817904Y-54498595D01*
X163913142Y-54450976D01*
X163960761Y-54403357D01*
X164008380Y-54308119D01*
X164008380Y-54117642D01*
X163960761Y-54022404D01*
X163913142Y-53974785D01*
X163817904Y-53927166D01*
X163579809Y-53927166D01*
X163484571Y-53974785D01*
X163436952Y-54022404D01*
X163389333Y-54117642D01*
X163389333Y-54308119D01*
X163436952Y-54403357D01*
X163484571Y-54450976D01*
X163579809Y-54498595D01*
X164008380Y-53450976D02*
X164008380Y-53260500D01*
X163960761Y-53165261D01*
X163913142Y-53117642D01*
X163770285Y-53022404D01*
X163579809Y-52974785D01*
X163198857Y-52974785D01*
X163103619Y-53022404D01*
X163056000Y-53070023D01*
X163008380Y-53165261D01*
X163008380Y-53355738D01*
X163056000Y-53450976D01*
X163103619Y-53498595D01*
X163198857Y-53546214D01*
X163436952Y-53546214D01*
X163532190Y-53498595D01*
X163579809Y-53450976D01*
X163627428Y-53355738D01*
X163627428Y-53165261D01*
X163579809Y-53070023D01*
X163532190Y-53022404D01*
X163436952Y-52974785D01*
X164008380Y-52498595D02*
X164008380Y-52308119D01*
X163960761Y-52212880D01*
X163913142Y-52165261D01*
X163770285Y-52070023D01*
X163579809Y-52022404D01*
X163198857Y-52022404D01*
X163103619Y-52070023D01*
X163056000Y-52117642D01*
X163008380Y-52212880D01*
X163008380Y-52403357D01*
X163056000Y-52498595D01*
X163103619Y-52546214D01*
X163198857Y-52593833D01*
X163436952Y-52593833D01*
X163532190Y-52546214D01*
X163579809Y-52498595D01*
X163627428Y-52403357D01*
X163627428Y-52212880D01*
X163579809Y-52117642D01*
X163532190Y-52070023D01*
X163436952Y-52022404D01*
X164008380Y-50831928D02*
X163341714Y-50831928D01*
X163436952Y-50831928D02*
X163389333Y-50784309D01*
X163341714Y-50689071D01*
X163341714Y-50546214D01*
X163389333Y-50450976D01*
X163484571Y-50403357D01*
X164008380Y-50403357D01*
X163484571Y-50403357D02*
X163389333Y-50355738D01*
X163341714Y-50260500D01*
X163341714Y-50117642D01*
X163389333Y-50022404D01*
X163484571Y-49974785D01*
X164008380Y-49974785D01*
X164008380Y-49498595D02*
X163341714Y-49498595D01*
X163436952Y-49498595D02*
X163389333Y-49450976D01*
X163341714Y-49355738D01*
X163341714Y-49212880D01*
X163389333Y-49117642D01*
X163484571Y-49070023D01*
X164008380Y-49070023D01*
X163484571Y-49070023D02*
X163389333Y-49022404D01*
X163341714Y-48927166D01*
X163341714Y-48784309D01*
X163389333Y-48689071D01*
X163484571Y-48641452D01*
X164008380Y-48641452D01*
D11*
X162306000Y-54610000D02*
X162306000Y-49911000D01*
X154940000Y-54610000D02*
X162892421Y-54610000D01*
X154940000Y-49911000D02*
X162892421Y-49911000D01*
X162306000Y-49911000D02*
X162892421Y-51037504D01*
X162306000Y-49911000D02*
X161719579Y-51037504D01*
X162306000Y-54610000D02*
X162892421Y-53483496D01*
X162306000Y-54610000D02*
X161719579Y-53483496D01*
D10*
X154099023Y-56280714D02*
X154099023Y-56947380D01*
X153860928Y-55899761D02*
X153622833Y-56614047D01*
X154241880Y-56614047D01*
X154622833Y-56852142D02*
X154670452Y-56899761D01*
X154622833Y-56947380D01*
X154575214Y-56899761D01*
X154622833Y-56852142D01*
X154622833Y-56947380D01*
X155527595Y-55947380D02*
X155337119Y-55947380D01*
X155241880Y-55995000D01*
X155194261Y-56042619D01*
X155099023Y-56185476D01*
X155051404Y-56375952D01*
X155051404Y-56756904D01*
X155099023Y-56852142D01*
X155146642Y-56899761D01*
X155241880Y-56947380D01*
X155432357Y-56947380D01*
X155527595Y-56899761D01*
X155575214Y-56852142D01*
X155622833Y-56756904D01*
X155622833Y-56518809D01*
X155575214Y-56423571D01*
X155527595Y-56375952D01*
X155432357Y-56328333D01*
X155241880Y-56328333D01*
X155146642Y-56375952D01*
X155099023Y-56423571D01*
X155051404Y-56518809D01*
X156099023Y-56947380D02*
X156289500Y-56947380D01*
X156384738Y-56899761D01*
X156432357Y-56852142D01*
X156527595Y-56709285D01*
X156575214Y-56518809D01*
X156575214Y-56137857D01*
X156527595Y-56042619D01*
X156479976Y-55995000D01*
X156384738Y-55947380D01*
X156194261Y-55947380D01*
X156099023Y-55995000D01*
X156051404Y-56042619D01*
X156003785Y-56137857D01*
X156003785Y-56375952D01*
X156051404Y-56471190D01*
X156099023Y-56518809D01*
X156194261Y-56566428D01*
X156384738Y-56566428D01*
X156479976Y-56518809D01*
X156527595Y-56471190D01*
X156575214Y-56375952D01*
X157051404Y-56947380D02*
X157241880Y-56947380D01*
X157337119Y-56899761D01*
X157384738Y-56852142D01*
X157479976Y-56709285D01*
X157527595Y-56518809D01*
X157527595Y-56137857D01*
X157479976Y-56042619D01*
X157432357Y-55995000D01*
X157337119Y-55947380D01*
X157146642Y-55947380D01*
X157051404Y-55995000D01*
X157003785Y-56042619D01*
X156956166Y-56137857D01*
X156956166Y-56375952D01*
X157003785Y-56471190D01*
X157051404Y-56518809D01*
X157146642Y-56566428D01*
X157337119Y-56566428D01*
X157432357Y-56518809D01*
X157479976Y-56471190D01*
X157527595Y-56375952D01*
X158718071Y-56947380D02*
X158718071Y-56280714D01*
X158718071Y-56375952D02*
X158765690Y-56328333D01*
X158860928Y-56280714D01*
X159003785Y-56280714D01*
X159099023Y-56328333D01*
X159146642Y-56423571D01*
X159146642Y-56947380D01*
X159146642Y-56423571D02*
X159194261Y-56328333D01*
X159289500Y-56280714D01*
X159432357Y-56280714D01*
X159527595Y-56328333D01*
X159575214Y-56423571D01*
X159575214Y-56947380D01*
X160051404Y-56947380D02*
X160051404Y-56280714D01*
X160051404Y-56375952D02*
X160099023Y-56328333D01*
X160194261Y-56280714D01*
X160337119Y-56280714D01*
X160432357Y-56328333D01*
X160479976Y-56423571D01*
X160479976Y-56947380D01*
X160479976Y-56423571D02*
X160527595Y-56328333D01*
X160622833Y-56280714D01*
X160765690Y-56280714D01*
X160860928Y-56328333D01*
X160908547Y-56423571D01*
X160908547Y-56947380D01*
D11*
X154940000Y-55245000D02*
X159639000Y-55245000D01*
X154940000Y-54610000D02*
X154940000Y-55831421D01*
X159639000Y-54610000D02*
X159639000Y-55831421D01*
X159639000Y-55245000D02*
X158512496Y-55831421D01*
X159639000Y-55245000D02*
X158512496Y-54658579D01*
X154940000Y-55245000D02*
X156066504Y-55831421D01*
X154940000Y-55245000D02*
X156066504Y-54658579D01*
D10*
X151797142Y-58360380D02*
X151320952Y-58360380D01*
X151273333Y-58836571D01*
X151320952Y-58788952D01*
X151416190Y-58741333D01*
X151654285Y-58741333D01*
X151749523Y-58788952D01*
X151797142Y-58836571D01*
X151844761Y-58931809D01*
X151844761Y-59169904D01*
X151797142Y-59265142D01*
X151749523Y-59312761D01*
X151654285Y-59360380D01*
X151416190Y-59360380D01*
X151320952Y-59312761D01*
X151273333Y-59265142D01*
X152273333Y-59265142D02*
X152320952Y-59312761D01*
X152273333Y-59360380D01*
X152225714Y-59312761D01*
X152273333Y-59265142D01*
X152273333Y-59360380D01*
X152940000Y-58360380D02*
X153035238Y-58360380D01*
X153130476Y-58408000D01*
X153178095Y-58455619D01*
X153225714Y-58550857D01*
X153273333Y-58741333D01*
X153273333Y-58979428D01*
X153225714Y-59169904D01*
X153178095Y-59265142D01*
X153130476Y-59312761D01*
X153035238Y-59360380D01*
X152940000Y-59360380D01*
X152844761Y-59312761D01*
X152797142Y-59265142D01*
X152749523Y-59169904D01*
X152701904Y-58979428D01*
X152701904Y-58741333D01*
X152749523Y-58550857D01*
X152797142Y-58455619D01*
X152844761Y-58408000D01*
X152940000Y-58360380D01*
X153844761Y-58788952D02*
X153749523Y-58741333D01*
X153701904Y-58693714D01*
X153654285Y-58598476D01*
X153654285Y-58550857D01*
X153701904Y-58455619D01*
X153749523Y-58408000D01*
X153844761Y-58360380D01*
X154035238Y-58360380D01*
X154130476Y-58408000D01*
X154178095Y-58455619D01*
X154225714Y-58550857D01*
X154225714Y-58598476D01*
X154178095Y-58693714D01*
X154130476Y-58741333D01*
X154035238Y-58788952D01*
X153844761Y-58788952D01*
X153749523Y-58836571D01*
X153701904Y-58884190D01*
X153654285Y-58979428D01*
X153654285Y-59169904D01*
X153701904Y-59265142D01*
X153749523Y-59312761D01*
X153844761Y-59360380D01*
X154035238Y-59360380D01*
X154130476Y-59312761D01*
X154178095Y-59265142D01*
X154225714Y-59169904D01*
X154225714Y-58979428D01*
X154178095Y-58884190D01*
X154130476Y-58836571D01*
X154035238Y-58788952D01*
X154844761Y-58360380D02*
X154940000Y-58360380D01*
X155035238Y-58408000D01*
X155082857Y-58455619D01*
X155130476Y-58550857D01*
X155178095Y-58741333D01*
X155178095Y-58979428D01*
X155130476Y-59169904D01*
X155082857Y-59265142D01*
X155035238Y-59312761D01*
X154940000Y-59360380D01*
X154844761Y-59360380D01*
X154749523Y-59312761D01*
X154701904Y-59265142D01*
X154654285Y-59169904D01*
X154606666Y-58979428D01*
X154606666Y-58741333D01*
X154654285Y-58550857D01*
X154701904Y-58455619D01*
X154749523Y-58408000D01*
X154844761Y-58360380D01*
X156368571Y-59360380D02*
X156368571Y-58693714D01*
X156368571Y-58788952D02*
X156416190Y-58741333D01*
X156511428Y-58693714D01*
X156654285Y-58693714D01*
X156749523Y-58741333D01*
X156797142Y-58836571D01*
X156797142Y-59360380D01*
X156797142Y-58836571D02*
X156844761Y-58741333D01*
X156940000Y-58693714D01*
X157082857Y-58693714D01*
X157178095Y-58741333D01*
X157225714Y-58836571D01*
X157225714Y-59360380D01*
X157701904Y-59360380D02*
X157701904Y-58693714D01*
X157701904Y-58788952D02*
X157749523Y-58741333D01*
X157844761Y-58693714D01*
X157987619Y-58693714D01*
X158082857Y-58741333D01*
X158130476Y-58836571D01*
X158130476Y-59360380D01*
X158130476Y-58836571D02*
X158178095Y-58741333D01*
X158273333Y-58693714D01*
X158416190Y-58693714D01*
X158511428Y-58741333D01*
X158559047Y-58836571D01*
X158559047Y-59360380D01*
D11*
X152400000Y-57658000D02*
X157480000Y-57658000D01*
X152400000Y-54610000D02*
X152400000Y-58244421D01*
X157480000Y-54610000D02*
X157480000Y-58244421D01*
X157480000Y-57658000D02*
X156353496Y-58244421D01*
X157480000Y-57658000D02*
X156353496Y-57071579D01*
X152400000Y-57658000D02*
X153526504Y-58244421D01*
X152400000Y-57658000D02*
X153526504Y-57071579D01*
D10*
X79704619Y-95837880D02*
X79704619Y-96028357D01*
X79752238Y-96123595D01*
X79799857Y-96171214D01*
X79942714Y-96266452D01*
X80133190Y-96314071D01*
X80514142Y-96314071D01*
X80609380Y-96266452D01*
X80657000Y-96218833D01*
X80704619Y-96123595D01*
X80704619Y-95933119D01*
X80657000Y-95837880D01*
X80609380Y-95790261D01*
X80514142Y-95742642D01*
X80276047Y-95742642D01*
X80180809Y-95790261D01*
X80133190Y-95837880D01*
X80085571Y-95933119D01*
X80085571Y-96123595D01*
X80133190Y-96218833D01*
X80180809Y-96266452D01*
X80276047Y-96314071D01*
X79704619Y-96790261D02*
X79704619Y-96980738D01*
X79752238Y-97075976D01*
X79799857Y-97123595D01*
X79942714Y-97218833D01*
X80133190Y-97266452D01*
X80514142Y-97266452D01*
X80609380Y-97218833D01*
X80657000Y-97171214D01*
X80704619Y-97075976D01*
X80704619Y-96885500D01*
X80657000Y-96790261D01*
X80609380Y-96742642D01*
X80514142Y-96695023D01*
X80276047Y-96695023D01*
X80180809Y-96742642D01*
X80133190Y-96790261D01*
X80085571Y-96885500D01*
X80085571Y-97075976D01*
X80133190Y-97171214D01*
X80180809Y-97218833D01*
X80276047Y-97266452D01*
X79799857Y-97695023D02*
X79752238Y-97742642D01*
X79704619Y-97695023D01*
X79752238Y-97647404D01*
X79799857Y-97695023D01*
X79704619Y-97695023D01*
X79704619Y-98218833D02*
X79704619Y-98409309D01*
X79752238Y-98504547D01*
X79799857Y-98552166D01*
X79942714Y-98647404D01*
X80133190Y-98695023D01*
X80514142Y-98695023D01*
X80609380Y-98647404D01*
X80657000Y-98599785D01*
X80704619Y-98504547D01*
X80704619Y-98314071D01*
X80657000Y-98218833D01*
X80609380Y-98171214D01*
X80514142Y-98123595D01*
X80276047Y-98123595D01*
X80180809Y-98171214D01*
X80133190Y-98218833D01*
X80085571Y-98314071D01*
X80085571Y-98504547D01*
X80133190Y-98599785D01*
X80180809Y-98647404D01*
X80276047Y-98695023D01*
X80371285Y-99552166D02*
X79704619Y-99552166D01*
X80752238Y-99314071D02*
X80037952Y-99075976D01*
X80037952Y-99695023D01*
X79704619Y-100123595D02*
X79704619Y-100314071D01*
X79752238Y-100409309D01*
X79799857Y-100456928D01*
X79942714Y-100552166D01*
X80133190Y-100599785D01*
X80514142Y-100599785D01*
X80609380Y-100552166D01*
X80657000Y-100504547D01*
X80704619Y-100409309D01*
X80704619Y-100218833D01*
X80657000Y-100123595D01*
X80609380Y-100075976D01*
X80514142Y-100028357D01*
X80276047Y-100028357D01*
X80180809Y-100075976D01*
X80133190Y-100123595D01*
X80085571Y-100218833D01*
X80085571Y-100409309D01*
X80133190Y-100504547D01*
X80180809Y-100552166D01*
X80276047Y-100599785D01*
X79704619Y-101790261D02*
X80371285Y-101790261D01*
X80276047Y-101790261D02*
X80323666Y-101837880D01*
X80371285Y-101933119D01*
X80371285Y-102075976D01*
X80323666Y-102171214D01*
X80228428Y-102218833D01*
X79704619Y-102218833D01*
X80228428Y-102218833D02*
X80323666Y-102266452D01*
X80371285Y-102361690D01*
X80371285Y-102504547D01*
X80323666Y-102599785D01*
X80228428Y-102647404D01*
X79704619Y-102647404D01*
X79704619Y-103123595D02*
X80371285Y-103123595D01*
X80276047Y-103123595D02*
X80323666Y-103171214D01*
X80371285Y-103266452D01*
X80371285Y-103409309D01*
X80323666Y-103504547D01*
X80228428Y-103552166D01*
X79704619Y-103552166D01*
X80228428Y-103552166D02*
X80323666Y-103599785D01*
X80371285Y-103695023D01*
X80371285Y-103837880D01*
X80323666Y-103933119D01*
X80228428Y-103980738D01*
X79704619Y-103980738D01*
D11*
X81407000Y-49911000D02*
X81407000Y-149860000D01*
X84455000Y-49911000D02*
X80820579Y-49911000D01*
X84455000Y-149860000D02*
X80820579Y-149860000D01*
X81407000Y-149860000D02*
X80820579Y-148733496D01*
X81407000Y-149860000D02*
X81993421Y-148733496D01*
X81407000Y-49911000D02*
X80820579Y-51037504D01*
X81407000Y-49911000D02*
X81993421Y-51037504D01*
D10*
X117862523Y-43922380D02*
X118529190Y-43922380D01*
X118100619Y-44922380D01*
X119386333Y-43922380D02*
X118910142Y-43922380D01*
X118862523Y-44398571D01*
X118910142Y-44350952D01*
X119005380Y-44303333D01*
X119243476Y-44303333D01*
X119338714Y-44350952D01*
X119386333Y-44398571D01*
X119433952Y-44493809D01*
X119433952Y-44731904D01*
X119386333Y-44827142D01*
X119338714Y-44874761D01*
X119243476Y-44922380D01*
X119005380Y-44922380D01*
X118910142Y-44874761D01*
X118862523Y-44827142D01*
X119862523Y-44827142D02*
X119910142Y-44874761D01*
X119862523Y-44922380D01*
X119814904Y-44874761D01*
X119862523Y-44827142D01*
X119862523Y-44922380D01*
X120862523Y-44922380D02*
X120291095Y-44922380D01*
X120576809Y-44922380D02*
X120576809Y-43922380D01*
X120481571Y-44065238D01*
X120386333Y-44160476D01*
X120291095Y-44208095D01*
X121338714Y-44922380D02*
X121529190Y-44922380D01*
X121624428Y-44874761D01*
X121672047Y-44827142D01*
X121767285Y-44684285D01*
X121814904Y-44493809D01*
X121814904Y-44112857D01*
X121767285Y-44017619D01*
X121719666Y-43970000D01*
X121624428Y-43922380D01*
X121433952Y-43922380D01*
X121338714Y-43970000D01*
X121291095Y-44017619D01*
X121243476Y-44112857D01*
X121243476Y-44350952D01*
X121291095Y-44446190D01*
X121338714Y-44493809D01*
X121433952Y-44541428D01*
X121624428Y-44541428D01*
X121719666Y-44493809D01*
X121767285Y-44446190D01*
X121814904Y-44350952D01*
X122672047Y-43922380D02*
X122481571Y-43922380D01*
X122386333Y-43970000D01*
X122338714Y-44017619D01*
X122243476Y-44160476D01*
X122195857Y-44350952D01*
X122195857Y-44731904D01*
X122243476Y-44827142D01*
X122291095Y-44874761D01*
X122386333Y-44922380D01*
X122576809Y-44922380D01*
X122672047Y-44874761D01*
X122719666Y-44827142D01*
X122767285Y-44731904D01*
X122767285Y-44493809D01*
X122719666Y-44398571D01*
X122672047Y-44350952D01*
X122576809Y-44303333D01*
X122386333Y-44303333D01*
X122291095Y-44350952D01*
X122243476Y-44398571D01*
X122195857Y-44493809D01*
X123957761Y-44922380D02*
X123957761Y-44255714D01*
X123957761Y-44350952D02*
X124005380Y-44303333D01*
X124100619Y-44255714D01*
X124243476Y-44255714D01*
X124338714Y-44303333D01*
X124386333Y-44398571D01*
X124386333Y-44922380D01*
X124386333Y-44398571D02*
X124433952Y-44303333D01*
X124529190Y-44255714D01*
X124672047Y-44255714D01*
X124767285Y-44303333D01*
X124814904Y-44398571D01*
X124814904Y-44922380D01*
X125291095Y-44922380D02*
X125291095Y-44255714D01*
X125291095Y-44350952D02*
X125338714Y-44303333D01*
X125433952Y-44255714D01*
X125576809Y-44255714D01*
X125672047Y-44303333D01*
X125719666Y-44398571D01*
X125719666Y-44922380D01*
X125719666Y-44398571D02*
X125767285Y-44303333D01*
X125862523Y-44255714D01*
X126005380Y-44255714D01*
X126100619Y-44303333D01*
X126148238Y-44398571D01*
X126148238Y-44922380D01*
D11*
X159651000Y-45720000D02*
X84455000Y-45720000D01*
X159651000Y-49911000D02*
X159651000Y-45133579D01*
X84455000Y-49911000D02*
X84455000Y-45133579D01*
X84455000Y-45720000D02*
X85581504Y-45133579D01*
X84455000Y-45720000D02*
X85581504Y-46306421D01*
X159651000Y-45720000D02*
X158524496Y-45133579D01*
X159651000Y-45720000D02*
X158524496Y-46306421D01*
M02*
