%TF.GenerationSoftware,KiCad,Pcbnew,(5.1.6)-1*%
%TF.CreationDate,2021-05-22T18:41:59+09:00*%
%TF.ProjectId,TinyIR-Panel,54696e79-4952-42d5-9061-6e656c2e6b69,rev?*%
%TF.SameCoordinates,Original*%
%TF.FileFunction,Legend,Bot*%
%TF.FilePolarity,Positive*%
%FSLAX46Y46*%
G04 Gerber Fmt 4.6, Leading zero omitted, Abs format (unit mm)*
G04 Created by KiCad (PCBNEW (5.1.6)-1) date 2021-05-22 18:41:59*
%MOMM*%
%LPD*%
G01*
G04 APERTURE LIST*
%ADD10C,0.120000*%
%ADD11C,0.150000*%
%ADD12C,1.800000*%
%ADD13C,4.100000*%
%ADD14C,2.300000*%
%ADD15O,1.100000X1.100000*%
%ADD16R,1.100000X1.100000*%
%ADD17R,1.650000X2.300000*%
%ADD18R,2.600000X2.300000*%
%ADD19R,0.750000X2.100000*%
%ADD20R,0.600000X2.100000*%
%ADD21R,1.660000X0.750000*%
G04 APERTURE END LIST*
D10*
X159639000Y-139954000D02*
X84455000Y-139954000D01*
D11*
X84145142Y-59265380D02*
X83811809Y-60265380D01*
X83478476Y-59265380D01*
X83145142Y-59884428D02*
X82383238Y-59884428D01*
X81335619Y-60170142D02*
X81383238Y-60217761D01*
X81526095Y-60265380D01*
X81621333Y-60265380D01*
X81764190Y-60217761D01*
X81859428Y-60122523D01*
X81907047Y-60027285D01*
X81954666Y-59836809D01*
X81954666Y-59693952D01*
X81907047Y-59503476D01*
X81859428Y-59408238D01*
X81764190Y-59313000D01*
X81621333Y-59265380D01*
X81526095Y-59265380D01*
X81383238Y-59313000D01*
X81335619Y-59360619D01*
X80907047Y-59265380D02*
X80907047Y-60074904D01*
X80859428Y-60170142D01*
X80811809Y-60217761D01*
X80716571Y-60265380D01*
X80526095Y-60265380D01*
X80430857Y-60217761D01*
X80383238Y-60170142D01*
X80335619Y-60074904D01*
X80335619Y-59265380D01*
X80002285Y-59265380D02*
X79430857Y-59265380D01*
X79716571Y-60265380D02*
X79716571Y-59265380D01*
X84145142Y-78061380D02*
X83811809Y-79061380D01*
X83478476Y-78061380D01*
X83145142Y-78680428D02*
X82383238Y-78680428D01*
X81335619Y-78966142D02*
X81383238Y-79013761D01*
X81526095Y-79061380D01*
X81621333Y-79061380D01*
X81764190Y-79013761D01*
X81859428Y-78918523D01*
X81907047Y-78823285D01*
X81954666Y-78632809D01*
X81954666Y-78489952D01*
X81907047Y-78299476D01*
X81859428Y-78204238D01*
X81764190Y-78109000D01*
X81621333Y-78061380D01*
X81526095Y-78061380D01*
X81383238Y-78109000D01*
X81335619Y-78156619D01*
X80907047Y-78061380D02*
X80907047Y-78870904D01*
X80859428Y-78966142D01*
X80811809Y-79013761D01*
X80716571Y-79061380D01*
X80526095Y-79061380D01*
X80430857Y-79013761D01*
X80383238Y-78966142D01*
X80335619Y-78870904D01*
X80335619Y-78061380D01*
X80002285Y-78061380D02*
X79430857Y-78061380D01*
X79716571Y-79061380D02*
X79716571Y-78061380D01*
X84145142Y-96857380D02*
X83811809Y-97857380D01*
X83478476Y-96857380D01*
X83145142Y-97476428D02*
X82383238Y-97476428D01*
X81335619Y-97762142D02*
X81383238Y-97809761D01*
X81526095Y-97857380D01*
X81621333Y-97857380D01*
X81764190Y-97809761D01*
X81859428Y-97714523D01*
X81907047Y-97619285D01*
X81954666Y-97428809D01*
X81954666Y-97285952D01*
X81907047Y-97095476D01*
X81859428Y-97000238D01*
X81764190Y-96905000D01*
X81621333Y-96857380D01*
X81526095Y-96857380D01*
X81383238Y-96905000D01*
X81335619Y-96952619D01*
X80907047Y-96857380D02*
X80907047Y-97666904D01*
X80859428Y-97762142D01*
X80811809Y-97809761D01*
X80716571Y-97857380D01*
X80526095Y-97857380D01*
X80430857Y-97809761D01*
X80383238Y-97762142D01*
X80335619Y-97666904D01*
X80335619Y-96857380D01*
X80002285Y-96857380D02*
X79430857Y-96857380D01*
X79716571Y-97857380D02*
X79716571Y-96857380D01*
X84145142Y-101810380D02*
X83811809Y-102810380D01*
X83478476Y-101810380D01*
X83145142Y-102429428D02*
X82383238Y-102429428D01*
X81335619Y-102715142D02*
X81383238Y-102762761D01*
X81526095Y-102810380D01*
X81621333Y-102810380D01*
X81764190Y-102762761D01*
X81859428Y-102667523D01*
X81907047Y-102572285D01*
X81954666Y-102381809D01*
X81954666Y-102238952D01*
X81907047Y-102048476D01*
X81859428Y-101953238D01*
X81764190Y-101858000D01*
X81621333Y-101810380D01*
X81526095Y-101810380D01*
X81383238Y-101858000D01*
X81335619Y-101905619D01*
X80907047Y-101810380D02*
X80907047Y-102619904D01*
X80859428Y-102715142D01*
X80811809Y-102762761D01*
X80716571Y-102810380D01*
X80526095Y-102810380D01*
X80430857Y-102762761D01*
X80383238Y-102715142D01*
X80335619Y-102619904D01*
X80335619Y-101810380D01*
X80002285Y-101810380D02*
X79430857Y-101810380D01*
X79716571Y-102810380D02*
X79716571Y-101810380D01*
X84145142Y-120606380D02*
X83811809Y-121606380D01*
X83478476Y-120606380D01*
X83145142Y-121225428D02*
X82383238Y-121225428D01*
X81335619Y-121511142D02*
X81383238Y-121558761D01*
X81526095Y-121606380D01*
X81621333Y-121606380D01*
X81764190Y-121558761D01*
X81859428Y-121463523D01*
X81907047Y-121368285D01*
X81954666Y-121177809D01*
X81954666Y-121034952D01*
X81907047Y-120844476D01*
X81859428Y-120749238D01*
X81764190Y-120654000D01*
X81621333Y-120606380D01*
X81526095Y-120606380D01*
X81383238Y-120654000D01*
X81335619Y-120701619D01*
X80907047Y-120606380D02*
X80907047Y-121415904D01*
X80859428Y-121511142D01*
X80811809Y-121558761D01*
X80716571Y-121606380D01*
X80526095Y-121606380D01*
X80430857Y-121558761D01*
X80383238Y-121511142D01*
X80335619Y-121415904D01*
X80335619Y-120606380D01*
X80002285Y-120606380D02*
X79430857Y-120606380D01*
X79716571Y-121606380D02*
X79716571Y-120606380D01*
X84145142Y-139406380D02*
X83811809Y-140406380D01*
X83478476Y-139406380D01*
X83145142Y-140025428D02*
X82383238Y-140025428D01*
X81335619Y-140311142D02*
X81383238Y-140358761D01*
X81526095Y-140406380D01*
X81621333Y-140406380D01*
X81764190Y-140358761D01*
X81859428Y-140263523D01*
X81907047Y-140168285D01*
X81954666Y-139977809D01*
X81954666Y-139834952D01*
X81907047Y-139644476D01*
X81859428Y-139549238D01*
X81764190Y-139454000D01*
X81621333Y-139406380D01*
X81526095Y-139406380D01*
X81383238Y-139454000D01*
X81335619Y-139501619D01*
X80907047Y-139406380D02*
X80907047Y-140215904D01*
X80859428Y-140311142D01*
X80811809Y-140358761D01*
X80716571Y-140406380D01*
X80526095Y-140406380D01*
X80430857Y-140358761D01*
X80383238Y-140311142D01*
X80335619Y-140215904D01*
X80335619Y-139406380D01*
X80002285Y-139406380D02*
X79430857Y-139406380D01*
X79716571Y-140406380D02*
X79716571Y-139406380D01*
X140295380Y-150169857D02*
X141295380Y-150503190D01*
X140295380Y-150836523D01*
X140914428Y-151169857D02*
X140914428Y-151931761D01*
X141200142Y-152979380D02*
X141247761Y-152931761D01*
X141295380Y-152788904D01*
X141295380Y-152693666D01*
X141247761Y-152550809D01*
X141152523Y-152455571D01*
X141057285Y-152407952D01*
X140866809Y-152360333D01*
X140723952Y-152360333D01*
X140533476Y-152407952D01*
X140438238Y-152455571D01*
X140343000Y-152550809D01*
X140295380Y-152693666D01*
X140295380Y-152788904D01*
X140343000Y-152931761D01*
X140390619Y-152979380D01*
X140295380Y-153407952D02*
X141104904Y-153407952D01*
X141200142Y-153455571D01*
X141247761Y-153503190D01*
X141295380Y-153598428D01*
X141295380Y-153788904D01*
X141247761Y-153884142D01*
X141200142Y-153931761D01*
X141104904Y-153979380D01*
X140295380Y-153979380D01*
X140295380Y-154312714D02*
X140295380Y-154884142D01*
X141295380Y-154598428D02*
X140295380Y-154598428D01*
X121499380Y-150169857D02*
X122499380Y-150503190D01*
X121499380Y-150836523D01*
X122118428Y-151169857D02*
X122118428Y-151931761D01*
X122404142Y-152979380D02*
X122451761Y-152931761D01*
X122499380Y-152788904D01*
X122499380Y-152693666D01*
X122451761Y-152550809D01*
X122356523Y-152455571D01*
X122261285Y-152407952D01*
X122070809Y-152360333D01*
X121927952Y-152360333D01*
X121737476Y-152407952D01*
X121642238Y-152455571D01*
X121547000Y-152550809D01*
X121499380Y-152693666D01*
X121499380Y-152788904D01*
X121547000Y-152931761D01*
X121594619Y-152979380D01*
X121499380Y-153407952D02*
X122308904Y-153407952D01*
X122404142Y-153455571D01*
X122451761Y-153503190D01*
X122499380Y-153598428D01*
X122499380Y-153788904D01*
X122451761Y-153884142D01*
X122404142Y-153931761D01*
X122308904Y-153979380D01*
X121499380Y-153979380D01*
X121499380Y-154312714D02*
X121499380Y-154884142D01*
X122499380Y-154598428D02*
X121499380Y-154598428D01*
X102703380Y-150169857D02*
X103703380Y-150503190D01*
X102703380Y-150836523D01*
X103322428Y-151169857D02*
X103322428Y-151931761D01*
X103608142Y-152979380D02*
X103655761Y-152931761D01*
X103703380Y-152788904D01*
X103703380Y-152693666D01*
X103655761Y-152550809D01*
X103560523Y-152455571D01*
X103465285Y-152407952D01*
X103274809Y-152360333D01*
X103131952Y-152360333D01*
X102941476Y-152407952D01*
X102846238Y-152455571D01*
X102751000Y-152550809D01*
X102703380Y-152693666D01*
X102703380Y-152788904D01*
X102751000Y-152931761D01*
X102798619Y-152979380D01*
X102703380Y-153407952D02*
X103512904Y-153407952D01*
X103608142Y-153455571D01*
X103655761Y-153503190D01*
X103703380Y-153598428D01*
X103703380Y-153788904D01*
X103655761Y-153884142D01*
X103608142Y-153931761D01*
X103512904Y-153979380D01*
X102703380Y-153979380D01*
X102703380Y-154312714D02*
X102703380Y-154884142D01*
X103703380Y-154598428D02*
X102703380Y-154598428D01*
X158507952Y-127583428D02*
X157746047Y-127583428D01*
X139707952Y-115895428D02*
X138946047Y-115895428D01*
X139327000Y-116276380D02*
X139327000Y-115514476D01*
X102107952Y-108783428D02*
X101346047Y-108783428D01*
X120907952Y-115895428D02*
X120146047Y-115895428D01*
X120527000Y-116276380D02*
X120527000Y-115514476D01*
X158507952Y-134695428D02*
X157746047Y-134695428D01*
X158127000Y-135076380D02*
X158127000Y-134314476D01*
X139707952Y-134695428D02*
X138946047Y-134695428D01*
X139327000Y-135076380D02*
X139327000Y-134314476D01*
X102107952Y-134695428D02*
X101346047Y-134695428D01*
X101727000Y-135076380D02*
X101727000Y-134314476D01*
X139707952Y-108783428D02*
X138946047Y-108783428D01*
X120907952Y-108783428D02*
X120146047Y-108783428D01*
X158507952Y-115895428D02*
X157746047Y-115895428D01*
X158127000Y-116276380D02*
X158127000Y-115514476D01*
X120907952Y-134695428D02*
X120146047Y-134695428D01*
X120527000Y-135076380D02*
X120527000Y-134314476D01*
X102107952Y-115895428D02*
X101346047Y-115895428D01*
X101727000Y-116276380D02*
X101727000Y-115514476D01*
X158507952Y-108783428D02*
X157746047Y-108783428D01*
X102107952Y-127583428D02*
X101346047Y-127583428D01*
X139707952Y-127583428D02*
X138946047Y-127583428D01*
X120907952Y-127583428D02*
X120146047Y-127583428D01*
X158507952Y-85038428D02*
X157746047Y-85038428D01*
X139707952Y-85038428D02*
X138946047Y-85038428D01*
X120907952Y-85038428D02*
X120146047Y-85038428D01*
X102107952Y-85038428D02*
X101346047Y-85038428D01*
X158507952Y-66238428D02*
X157746047Y-66238428D01*
X139707952Y-66238428D02*
X138946047Y-66238428D01*
X120907952Y-66238428D02*
X120146047Y-66238428D01*
X158507952Y-92150428D02*
X157746047Y-92150428D01*
X158127000Y-92531380D02*
X158127000Y-91769476D01*
X139707952Y-92150428D02*
X138946047Y-92150428D01*
X139327000Y-92531380D02*
X139327000Y-91769476D01*
X120907952Y-92150428D02*
X120146047Y-92150428D01*
X120527000Y-92531380D02*
X120527000Y-91769476D01*
X102107952Y-92150428D02*
X101346047Y-92150428D01*
X101727000Y-92531380D02*
X101727000Y-91769476D01*
X158507952Y-73350428D02*
X157746047Y-73350428D01*
X158127000Y-73731380D02*
X158127000Y-72969476D01*
X139707952Y-73350428D02*
X138946047Y-73350428D01*
X139327000Y-73731380D02*
X139327000Y-72969476D01*
X120907952Y-73350428D02*
X120146047Y-73350428D01*
X120527000Y-73731380D02*
X120527000Y-72969476D01*
X102107952Y-73350428D02*
X101346047Y-73350428D01*
X101727000Y-73731380D02*
X101727000Y-72969476D01*
X102107952Y-66238428D02*
X101346047Y-66238428D01*
D10*
%TO.C,J1*%
X125451000Y-110423000D02*
X124648530Y-110423000D01*
X124033470Y-110423000D02*
X123231000Y-110423000D01*
X125451000Y-105408000D02*
X125451000Y-110423000D01*
X123231000Y-105408000D02*
X123231000Y-110423000D01*
X125451000Y-105408000D02*
X124904471Y-105408000D01*
X123777529Y-105408000D02*
X123231000Y-105408000D01*
X125451000Y-104648000D02*
X125451000Y-103888000D01*
X125451000Y-103888000D02*
X124341000Y-103888000D01*
X106651000Y-110423000D02*
X105848530Y-110423000D01*
X105233470Y-110423000D02*
X104431000Y-110423000D01*
X106651000Y-105408000D02*
X106651000Y-110423000D01*
X104431000Y-105408000D02*
X104431000Y-110423000D01*
X106651000Y-105408000D02*
X106104471Y-105408000D01*
X104977529Y-105408000D02*
X104431000Y-105408000D01*
X106651000Y-104648000D02*
X106651000Y-103888000D01*
X106651000Y-103888000D02*
X105541000Y-103888000D01*
X144251000Y-110423000D02*
X143448530Y-110423000D01*
X142833470Y-110423000D02*
X142031000Y-110423000D01*
X144251000Y-105408000D02*
X144251000Y-110423000D01*
X142031000Y-105408000D02*
X142031000Y-110423000D01*
X144251000Y-105408000D02*
X143704471Y-105408000D01*
X142577529Y-105408000D02*
X142031000Y-105408000D01*
X144251000Y-104648000D02*
X144251000Y-103888000D01*
X144251000Y-103888000D02*
X143141000Y-103888000D01*
%TO.C,R2*%
X97646748Y-133302000D02*
X98169252Y-133302000D01*
X97646748Y-131882000D02*
X98169252Y-131882000D01*
X154046748Y-114502000D02*
X154569252Y-114502000D01*
X154046748Y-113082000D02*
X154569252Y-113082000D01*
%TO.C,D2*%
X116085000Y-138256000D02*
X112185000Y-138256000D01*
X116085000Y-135056000D02*
X112185000Y-135056000D01*
X112185000Y-138256000D02*
X112185000Y-135056000D01*
%TO.C,Q1*%
X127397000Y-135452000D02*
X126347000Y-135452000D01*
X126347000Y-135452000D02*
X126347000Y-137302000D01*
X129397000Y-135452000D02*
X128397000Y-135452000D01*
X129407000Y-135472000D02*
X129407000Y-137902000D01*
%TO.C,R2*%
X135246748Y-114502000D02*
X135769252Y-114502000D01*
X135246748Y-113082000D02*
X135769252Y-113082000D01*
X116446748Y-133302000D02*
X116969252Y-133302000D01*
X116446748Y-131882000D02*
X116969252Y-131882000D01*
%TO.C,D2*%
X97285000Y-138256000D02*
X93385000Y-138256000D01*
X97285000Y-135056000D02*
X93385000Y-135056000D01*
X93385000Y-138256000D02*
X93385000Y-135056000D01*
X153685000Y-119456000D02*
X149785000Y-119456000D01*
X153685000Y-116256000D02*
X149785000Y-116256000D01*
X149785000Y-119456000D02*
X149785000Y-116256000D01*
X116085000Y-119456000D02*
X112185000Y-119456000D01*
X116085000Y-116256000D02*
X112185000Y-116256000D01*
X112185000Y-119456000D02*
X112185000Y-116256000D01*
%TO.C,R2*%
X135246748Y-133302000D02*
X135769252Y-133302000D01*
X135246748Y-131882000D02*
X135769252Y-131882000D01*
%TO.C,D2*%
X153685000Y-138256000D02*
X149785000Y-138256000D01*
X153685000Y-135056000D02*
X149785000Y-135056000D01*
X149785000Y-138256000D02*
X149785000Y-135056000D01*
%TO.C,R2*%
X154046748Y-133302000D02*
X154569252Y-133302000D01*
X154046748Y-131882000D02*
X154569252Y-131882000D01*
X116446748Y-114502000D02*
X116969252Y-114502000D01*
X116446748Y-113082000D02*
X116969252Y-113082000D01*
%TO.C,Q1*%
X146197000Y-135452000D02*
X145147000Y-135452000D01*
X145147000Y-135452000D02*
X145147000Y-137302000D01*
X148197000Y-135452000D02*
X147197000Y-135452000D01*
X148207000Y-135472000D02*
X148207000Y-137902000D01*
%TO.C,D2*%
X134885000Y-138256000D02*
X130985000Y-138256000D01*
X134885000Y-135056000D02*
X130985000Y-135056000D01*
X130985000Y-138256000D02*
X130985000Y-135056000D01*
X134885000Y-119456000D02*
X130985000Y-119456000D01*
X134885000Y-116256000D02*
X130985000Y-116256000D01*
X130985000Y-119456000D02*
X130985000Y-116256000D01*
X93385000Y-119456000D02*
X93385000Y-116256000D01*
X97285000Y-116256000D02*
X93385000Y-116256000D01*
X97285000Y-119456000D02*
X93385000Y-119456000D01*
%TO.C,R2*%
X97646748Y-113082000D02*
X98169252Y-113082000D01*
X97646748Y-114502000D02*
X98169252Y-114502000D01*
%TO.C,Q1*%
X91807000Y-116672000D02*
X91807000Y-119102000D01*
X91797000Y-116652000D02*
X90797000Y-116652000D01*
X88747000Y-116652000D02*
X88747000Y-118502000D01*
X89797000Y-116652000D02*
X88747000Y-116652000D01*
%TO.C,BT1*%
X101217000Y-111058000D02*
X101167000Y-111058000D01*
X101217000Y-113478000D02*
X101167000Y-113478000D01*
X102287000Y-111058000D02*
X102237000Y-111058000D01*
X102287000Y-113478000D02*
X102237000Y-113478000D01*
X102237000Y-114858000D02*
X102237000Y-113478000D01*
X101167000Y-113478000D02*
X101167000Y-111058000D01*
X102287000Y-113478000D02*
X102287000Y-111058000D01*
%TO.C,J1*%
X87851000Y-103888000D02*
X86741000Y-103888000D01*
X87851000Y-104648000D02*
X87851000Y-103888000D01*
X86177529Y-105408000D02*
X85631000Y-105408000D01*
X87851000Y-105408000D02*
X87304471Y-105408000D01*
X85631000Y-105408000D02*
X85631000Y-110423000D01*
X87851000Y-105408000D02*
X87851000Y-110423000D01*
X86433470Y-110423000D02*
X85631000Y-110423000D01*
X87851000Y-110423000D02*
X87048530Y-110423000D01*
%TO.C,U1*%
X92641000Y-107208000D02*
X89691000Y-107208000D01*
X90841000Y-103988000D02*
X92641000Y-103988000D01*
%TO.C,R1*%
X98731000Y-105402748D02*
X98731000Y-105925252D01*
X100151000Y-105402748D02*
X100151000Y-105925252D01*
%TO.C,U1*%
X147241000Y-103988000D02*
X149041000Y-103988000D01*
X149041000Y-107208000D02*
X146091000Y-107208000D01*
%TO.C,R1*%
X118951000Y-105402748D02*
X118951000Y-105925252D01*
X117531000Y-105402748D02*
X117531000Y-105925252D01*
%TO.C,U1*%
X128441000Y-122788000D02*
X130241000Y-122788000D01*
X130241000Y-126008000D02*
X127291000Y-126008000D01*
X109641000Y-122788000D02*
X111441000Y-122788000D01*
X111441000Y-126008000D02*
X108491000Y-126008000D01*
X90841000Y-122788000D02*
X92641000Y-122788000D01*
X92641000Y-126008000D02*
X89691000Y-126008000D01*
X128441000Y-103988000D02*
X130241000Y-103988000D01*
X130241000Y-107208000D02*
X127291000Y-107208000D01*
X109641000Y-103988000D02*
X111441000Y-103988000D01*
X111441000Y-107208000D02*
X108491000Y-107208000D01*
%TO.C,R1*%
X156551000Y-105402748D02*
X156551000Y-105925252D01*
X155131000Y-105402748D02*
X155131000Y-105925252D01*
X156551000Y-124202748D02*
X156551000Y-124725252D01*
X155131000Y-124202748D02*
X155131000Y-124725252D01*
X118951000Y-124202748D02*
X118951000Y-124725252D01*
X117531000Y-124202748D02*
X117531000Y-124725252D01*
X100151000Y-124202748D02*
X100151000Y-124725252D01*
X98731000Y-124202748D02*
X98731000Y-124725252D01*
X137751000Y-105402748D02*
X137751000Y-105925252D01*
X136331000Y-105402748D02*
X136331000Y-105925252D01*
X137751000Y-124202748D02*
X137751000Y-124725252D01*
X136331000Y-124202748D02*
X136331000Y-124725252D01*
%TO.C,U1*%
X147241000Y-122788000D02*
X149041000Y-122788000D01*
X149041000Y-126008000D02*
X146091000Y-126008000D01*
%TO.C,Q1*%
X108597000Y-135452000D02*
X107547000Y-135452000D01*
X107547000Y-135452000D02*
X107547000Y-137302000D01*
X110597000Y-135452000D02*
X109597000Y-135452000D01*
X110607000Y-135472000D02*
X110607000Y-137902000D01*
%TO.C,BT1*%
X158687000Y-132278000D02*
X158687000Y-129858000D01*
X157567000Y-132278000D02*
X157567000Y-129858000D01*
X158637000Y-133658000D02*
X158637000Y-132278000D01*
X158687000Y-132278000D02*
X158637000Y-132278000D01*
X158687000Y-129858000D02*
X158637000Y-129858000D01*
X157617000Y-132278000D02*
X157567000Y-132278000D01*
X157617000Y-129858000D02*
X157567000Y-129858000D01*
X158687000Y-113478000D02*
X158687000Y-111058000D01*
X157567000Y-113478000D02*
X157567000Y-111058000D01*
X158637000Y-114858000D02*
X158637000Y-113478000D01*
X158687000Y-113478000D02*
X158637000Y-113478000D01*
X158687000Y-111058000D02*
X158637000Y-111058000D01*
X157617000Y-113478000D02*
X157567000Y-113478000D01*
X157617000Y-111058000D02*
X157567000Y-111058000D01*
%TO.C,J1*%
X144251000Y-129223000D02*
X143448530Y-129223000D01*
X142833470Y-129223000D02*
X142031000Y-129223000D01*
X144251000Y-124208000D02*
X144251000Y-129223000D01*
X142031000Y-124208000D02*
X142031000Y-129223000D01*
X144251000Y-124208000D02*
X143704471Y-124208000D01*
X142577529Y-124208000D02*
X142031000Y-124208000D01*
X144251000Y-123448000D02*
X144251000Y-122688000D01*
X144251000Y-122688000D02*
X143141000Y-122688000D01*
X106651000Y-129223000D02*
X105848530Y-129223000D01*
X105233470Y-129223000D02*
X104431000Y-129223000D01*
X106651000Y-124208000D02*
X106651000Y-129223000D01*
X104431000Y-124208000D02*
X104431000Y-129223000D01*
X106651000Y-124208000D02*
X106104471Y-124208000D01*
X104977529Y-124208000D02*
X104431000Y-124208000D01*
X106651000Y-123448000D02*
X106651000Y-122688000D01*
X106651000Y-122688000D02*
X105541000Y-122688000D01*
%TO.C,BT1*%
X121087000Y-132278000D02*
X121087000Y-129858000D01*
X119967000Y-132278000D02*
X119967000Y-129858000D01*
X121037000Y-133658000D02*
X121037000Y-132278000D01*
X121087000Y-132278000D02*
X121037000Y-132278000D01*
X121087000Y-129858000D02*
X121037000Y-129858000D01*
X120017000Y-132278000D02*
X119967000Y-132278000D01*
X120017000Y-129858000D02*
X119967000Y-129858000D01*
%TO.C,Q1*%
X89797000Y-135452000D02*
X88747000Y-135452000D01*
X88747000Y-135452000D02*
X88747000Y-137302000D01*
X91797000Y-135452000D02*
X90797000Y-135452000D01*
X91807000Y-135472000D02*
X91807000Y-137902000D01*
X146197000Y-116652000D02*
X145147000Y-116652000D01*
X145147000Y-116652000D02*
X145147000Y-118502000D01*
X148197000Y-116652000D02*
X147197000Y-116652000D01*
X148207000Y-116672000D02*
X148207000Y-119102000D01*
X127397000Y-116652000D02*
X126347000Y-116652000D01*
X126347000Y-116652000D02*
X126347000Y-118502000D01*
X129397000Y-116652000D02*
X128397000Y-116652000D01*
X129407000Y-116672000D02*
X129407000Y-119102000D01*
%TO.C,BT1*%
X139887000Y-132278000D02*
X139887000Y-129858000D01*
X138767000Y-132278000D02*
X138767000Y-129858000D01*
X139837000Y-133658000D02*
X139837000Y-132278000D01*
X139887000Y-132278000D02*
X139837000Y-132278000D01*
X139887000Y-129858000D02*
X139837000Y-129858000D01*
X138817000Y-132278000D02*
X138767000Y-132278000D01*
X138817000Y-129858000D02*
X138767000Y-129858000D01*
%TO.C,J1*%
X125451000Y-129223000D02*
X124648530Y-129223000D01*
X124033470Y-129223000D02*
X123231000Y-129223000D01*
X125451000Y-124208000D02*
X125451000Y-129223000D01*
X123231000Y-124208000D02*
X123231000Y-129223000D01*
X125451000Y-124208000D02*
X124904471Y-124208000D01*
X123777529Y-124208000D02*
X123231000Y-124208000D01*
X125451000Y-123448000D02*
X125451000Y-122688000D01*
X125451000Y-122688000D02*
X124341000Y-122688000D01*
%TO.C,BT1*%
X102287000Y-132278000D02*
X102287000Y-129858000D01*
X101167000Y-132278000D02*
X101167000Y-129858000D01*
X102237000Y-133658000D02*
X102237000Y-132278000D01*
X102287000Y-132278000D02*
X102237000Y-132278000D01*
X102287000Y-129858000D02*
X102237000Y-129858000D01*
X101217000Y-132278000D02*
X101167000Y-132278000D01*
X101217000Y-129858000D02*
X101167000Y-129858000D01*
%TO.C,J1*%
X87851000Y-129223000D02*
X87048530Y-129223000D01*
X86433470Y-129223000D02*
X85631000Y-129223000D01*
X87851000Y-124208000D02*
X87851000Y-129223000D01*
X85631000Y-124208000D02*
X85631000Y-129223000D01*
X87851000Y-124208000D02*
X87304471Y-124208000D01*
X86177529Y-124208000D02*
X85631000Y-124208000D01*
X87851000Y-123448000D02*
X87851000Y-122688000D01*
X87851000Y-122688000D02*
X86741000Y-122688000D01*
%TO.C,Q1*%
X108597000Y-116652000D02*
X107547000Y-116652000D01*
X107547000Y-116652000D02*
X107547000Y-118502000D01*
X110597000Y-116652000D02*
X109597000Y-116652000D01*
X110607000Y-116672000D02*
X110607000Y-119102000D01*
%TO.C,BT1*%
X139887000Y-113478000D02*
X139887000Y-111058000D01*
X138767000Y-113478000D02*
X138767000Y-111058000D01*
X139837000Y-114858000D02*
X139837000Y-113478000D01*
X139887000Y-113478000D02*
X139837000Y-113478000D01*
X139887000Y-111058000D02*
X139837000Y-111058000D01*
X138817000Y-113478000D02*
X138767000Y-113478000D01*
X138817000Y-111058000D02*
X138767000Y-111058000D01*
X121087000Y-113478000D02*
X121087000Y-111058000D01*
X119967000Y-113478000D02*
X119967000Y-111058000D01*
X121037000Y-114858000D02*
X121037000Y-113478000D01*
X121087000Y-113478000D02*
X121037000Y-113478000D01*
X121087000Y-111058000D02*
X121037000Y-111058000D01*
X120017000Y-113478000D02*
X119967000Y-113478000D01*
X120017000Y-111058000D02*
X119967000Y-111058000D01*
%TO.C,D2*%
X153685000Y-95711000D02*
X149785000Y-95711000D01*
X153685000Y-92511000D02*
X149785000Y-92511000D01*
X149785000Y-95711000D02*
X149785000Y-92511000D01*
X134885000Y-95711000D02*
X130985000Y-95711000D01*
X134885000Y-92511000D02*
X130985000Y-92511000D01*
X130985000Y-95711000D02*
X130985000Y-92511000D01*
X116085000Y-95711000D02*
X112185000Y-95711000D01*
X116085000Y-92511000D02*
X112185000Y-92511000D01*
X112185000Y-95711000D02*
X112185000Y-92511000D01*
X97285000Y-95711000D02*
X93385000Y-95711000D01*
X97285000Y-92511000D02*
X93385000Y-92511000D01*
X93385000Y-95711000D02*
X93385000Y-92511000D01*
X153685000Y-76911000D02*
X149785000Y-76911000D01*
X153685000Y-73711000D02*
X149785000Y-73711000D01*
X149785000Y-76911000D02*
X149785000Y-73711000D01*
X134885000Y-76911000D02*
X130985000Y-76911000D01*
X134885000Y-73711000D02*
X130985000Y-73711000D01*
X130985000Y-76911000D02*
X130985000Y-73711000D01*
X116085000Y-76911000D02*
X112185000Y-76911000D01*
X116085000Y-73711000D02*
X112185000Y-73711000D01*
X112185000Y-76911000D02*
X112185000Y-73711000D01*
%TO.C,R2*%
X154046748Y-90757000D02*
X154569252Y-90757000D01*
X154046748Y-89337000D02*
X154569252Y-89337000D01*
X135246748Y-90757000D02*
X135769252Y-90757000D01*
X135246748Y-89337000D02*
X135769252Y-89337000D01*
X116446748Y-90757000D02*
X116969252Y-90757000D01*
X116446748Y-89337000D02*
X116969252Y-89337000D01*
X97646748Y-90757000D02*
X98169252Y-90757000D01*
X97646748Y-89337000D02*
X98169252Y-89337000D01*
X154046748Y-71957000D02*
X154569252Y-71957000D01*
X154046748Y-70537000D02*
X154569252Y-70537000D01*
X135246748Y-71957000D02*
X135769252Y-71957000D01*
X135246748Y-70537000D02*
X135769252Y-70537000D01*
X116446748Y-71957000D02*
X116969252Y-71957000D01*
X116446748Y-70537000D02*
X116969252Y-70537000D01*
%TO.C,Q1*%
X146197000Y-92907000D02*
X145147000Y-92907000D01*
X145147000Y-92907000D02*
X145147000Y-94757000D01*
X148197000Y-92907000D02*
X147197000Y-92907000D01*
X148207000Y-92927000D02*
X148207000Y-95357000D01*
X127397000Y-92907000D02*
X126347000Y-92907000D01*
X126347000Y-92907000D02*
X126347000Y-94757000D01*
X129397000Y-92907000D02*
X128397000Y-92907000D01*
X129407000Y-92927000D02*
X129407000Y-95357000D01*
X108597000Y-92907000D02*
X107547000Y-92907000D01*
X107547000Y-92907000D02*
X107547000Y-94757000D01*
X110597000Y-92907000D02*
X109597000Y-92907000D01*
X110607000Y-92927000D02*
X110607000Y-95357000D01*
X89797000Y-92907000D02*
X88747000Y-92907000D01*
X88747000Y-92907000D02*
X88747000Y-94757000D01*
X91797000Y-92907000D02*
X90797000Y-92907000D01*
X91807000Y-92927000D02*
X91807000Y-95357000D01*
X146197000Y-74107000D02*
X145147000Y-74107000D01*
X145147000Y-74107000D02*
X145147000Y-75957000D01*
X148197000Y-74107000D02*
X147197000Y-74107000D01*
X148207000Y-74127000D02*
X148207000Y-76557000D01*
X127397000Y-74107000D02*
X126347000Y-74107000D01*
X126347000Y-74107000D02*
X126347000Y-75957000D01*
X129397000Y-74107000D02*
X128397000Y-74107000D01*
X129407000Y-74127000D02*
X129407000Y-76557000D01*
X108597000Y-74107000D02*
X107547000Y-74107000D01*
X107547000Y-74107000D02*
X107547000Y-75957000D01*
X110597000Y-74107000D02*
X109597000Y-74107000D01*
X110607000Y-74127000D02*
X110607000Y-76557000D01*
%TO.C,BT1*%
X158687000Y-89733000D02*
X158687000Y-87313000D01*
X157567000Y-89733000D02*
X157567000Y-87313000D01*
X158637000Y-91113000D02*
X158637000Y-89733000D01*
X158687000Y-89733000D02*
X158637000Y-89733000D01*
X158687000Y-87313000D02*
X158637000Y-87313000D01*
X157617000Y-89733000D02*
X157567000Y-89733000D01*
X157617000Y-87313000D02*
X157567000Y-87313000D01*
X139887000Y-89733000D02*
X139887000Y-87313000D01*
X138767000Y-89733000D02*
X138767000Y-87313000D01*
X139837000Y-91113000D02*
X139837000Y-89733000D01*
X139887000Y-89733000D02*
X139837000Y-89733000D01*
X139887000Y-87313000D02*
X139837000Y-87313000D01*
X138817000Y-89733000D02*
X138767000Y-89733000D01*
X138817000Y-87313000D02*
X138767000Y-87313000D01*
X121087000Y-89733000D02*
X121087000Y-87313000D01*
X119967000Y-89733000D02*
X119967000Y-87313000D01*
X121037000Y-91113000D02*
X121037000Y-89733000D01*
X121087000Y-89733000D02*
X121037000Y-89733000D01*
X121087000Y-87313000D02*
X121037000Y-87313000D01*
X120017000Y-89733000D02*
X119967000Y-89733000D01*
X120017000Y-87313000D02*
X119967000Y-87313000D01*
X102287000Y-89733000D02*
X102287000Y-87313000D01*
X101167000Y-89733000D02*
X101167000Y-87313000D01*
X102237000Y-91113000D02*
X102237000Y-89733000D01*
X102287000Y-89733000D02*
X102237000Y-89733000D01*
X102287000Y-87313000D02*
X102237000Y-87313000D01*
X101217000Y-89733000D02*
X101167000Y-89733000D01*
X101217000Y-87313000D02*
X101167000Y-87313000D01*
X158687000Y-70933000D02*
X158687000Y-68513000D01*
X157567000Y-70933000D02*
X157567000Y-68513000D01*
X158637000Y-72313000D02*
X158637000Y-70933000D01*
X158687000Y-70933000D02*
X158637000Y-70933000D01*
X158687000Y-68513000D02*
X158637000Y-68513000D01*
X157617000Y-70933000D02*
X157567000Y-70933000D01*
X157617000Y-68513000D02*
X157567000Y-68513000D01*
X139887000Y-70933000D02*
X139887000Y-68513000D01*
X138767000Y-70933000D02*
X138767000Y-68513000D01*
X139837000Y-72313000D02*
X139837000Y-70933000D01*
X139887000Y-70933000D02*
X139837000Y-70933000D01*
X139887000Y-68513000D02*
X139837000Y-68513000D01*
X138817000Y-70933000D02*
X138767000Y-70933000D01*
X138817000Y-68513000D02*
X138767000Y-68513000D01*
X121087000Y-70933000D02*
X121087000Y-68513000D01*
X119967000Y-70933000D02*
X119967000Y-68513000D01*
X121037000Y-72313000D02*
X121037000Y-70933000D01*
X121087000Y-70933000D02*
X121037000Y-70933000D01*
X121087000Y-68513000D02*
X121037000Y-68513000D01*
X120017000Y-70933000D02*
X119967000Y-70933000D01*
X120017000Y-68513000D02*
X119967000Y-68513000D01*
%TO.C,J1*%
X144251000Y-86678000D02*
X143448530Y-86678000D01*
X142833470Y-86678000D02*
X142031000Y-86678000D01*
X144251000Y-81663000D02*
X144251000Y-86678000D01*
X142031000Y-81663000D02*
X142031000Y-86678000D01*
X144251000Y-81663000D02*
X143704471Y-81663000D01*
X142577529Y-81663000D02*
X142031000Y-81663000D01*
X144251000Y-80903000D02*
X144251000Y-80143000D01*
X144251000Y-80143000D02*
X143141000Y-80143000D01*
X125451000Y-86678000D02*
X124648530Y-86678000D01*
X124033470Y-86678000D02*
X123231000Y-86678000D01*
X125451000Y-81663000D02*
X125451000Y-86678000D01*
X123231000Y-81663000D02*
X123231000Y-86678000D01*
X125451000Y-81663000D02*
X124904471Y-81663000D01*
X123777529Y-81663000D02*
X123231000Y-81663000D01*
X125451000Y-80903000D02*
X125451000Y-80143000D01*
X125451000Y-80143000D02*
X124341000Y-80143000D01*
X106651000Y-86678000D02*
X105848530Y-86678000D01*
X105233470Y-86678000D02*
X104431000Y-86678000D01*
X106651000Y-81663000D02*
X106651000Y-86678000D01*
X104431000Y-81663000D02*
X104431000Y-86678000D01*
X106651000Y-81663000D02*
X106104471Y-81663000D01*
X104977529Y-81663000D02*
X104431000Y-81663000D01*
X106651000Y-80903000D02*
X106651000Y-80143000D01*
X106651000Y-80143000D02*
X105541000Y-80143000D01*
X87851000Y-86678000D02*
X87048530Y-86678000D01*
X86433470Y-86678000D02*
X85631000Y-86678000D01*
X87851000Y-81663000D02*
X87851000Y-86678000D01*
X85631000Y-81663000D02*
X85631000Y-86678000D01*
X87851000Y-81663000D02*
X87304471Y-81663000D01*
X86177529Y-81663000D02*
X85631000Y-81663000D01*
X87851000Y-80903000D02*
X87851000Y-80143000D01*
X87851000Y-80143000D02*
X86741000Y-80143000D01*
X144251000Y-67878000D02*
X143448530Y-67878000D01*
X142833470Y-67878000D02*
X142031000Y-67878000D01*
X144251000Y-62863000D02*
X144251000Y-67878000D01*
X142031000Y-62863000D02*
X142031000Y-67878000D01*
X144251000Y-62863000D02*
X143704471Y-62863000D01*
X142577529Y-62863000D02*
X142031000Y-62863000D01*
X144251000Y-62103000D02*
X144251000Y-61343000D01*
X144251000Y-61343000D02*
X143141000Y-61343000D01*
X125451000Y-67878000D02*
X124648530Y-67878000D01*
X124033470Y-67878000D02*
X123231000Y-67878000D01*
X125451000Y-62863000D02*
X125451000Y-67878000D01*
X123231000Y-62863000D02*
X123231000Y-67878000D01*
X125451000Y-62863000D02*
X124904471Y-62863000D01*
X123777529Y-62863000D02*
X123231000Y-62863000D01*
X125451000Y-62103000D02*
X125451000Y-61343000D01*
X125451000Y-61343000D02*
X124341000Y-61343000D01*
X106651000Y-67878000D02*
X105848530Y-67878000D01*
X105233470Y-67878000D02*
X104431000Y-67878000D01*
X106651000Y-62863000D02*
X106651000Y-67878000D01*
X104431000Y-62863000D02*
X104431000Y-67878000D01*
X106651000Y-62863000D02*
X106104471Y-62863000D01*
X104977529Y-62863000D02*
X104431000Y-62863000D01*
X106651000Y-62103000D02*
X106651000Y-61343000D01*
X106651000Y-61343000D02*
X105541000Y-61343000D01*
%TO.C,U1*%
X147241000Y-80243000D02*
X149041000Y-80243000D01*
X149041000Y-83463000D02*
X146091000Y-83463000D01*
X128441000Y-80243000D02*
X130241000Y-80243000D01*
X130241000Y-83463000D02*
X127291000Y-83463000D01*
X109641000Y-80243000D02*
X111441000Y-80243000D01*
X111441000Y-83463000D02*
X108491000Y-83463000D01*
X90841000Y-80243000D02*
X92641000Y-80243000D01*
X92641000Y-83463000D02*
X89691000Y-83463000D01*
X147241000Y-61443000D02*
X149041000Y-61443000D01*
X149041000Y-64663000D02*
X146091000Y-64663000D01*
X128441000Y-61443000D02*
X130241000Y-61443000D01*
X130241000Y-64663000D02*
X127291000Y-64663000D01*
X109641000Y-61443000D02*
X111441000Y-61443000D01*
X111441000Y-64663000D02*
X108491000Y-64663000D01*
%TO.C,R1*%
X156551000Y-81657748D02*
X156551000Y-82180252D01*
X155131000Y-81657748D02*
X155131000Y-82180252D01*
X137751000Y-81657748D02*
X137751000Y-82180252D01*
X136331000Y-81657748D02*
X136331000Y-82180252D01*
X118951000Y-81657748D02*
X118951000Y-82180252D01*
X117531000Y-81657748D02*
X117531000Y-82180252D01*
X100151000Y-81657748D02*
X100151000Y-82180252D01*
X98731000Y-81657748D02*
X98731000Y-82180252D01*
X156551000Y-62857748D02*
X156551000Y-63380252D01*
X155131000Y-62857748D02*
X155131000Y-63380252D01*
X137751000Y-62857748D02*
X137751000Y-63380252D01*
X136331000Y-62857748D02*
X136331000Y-63380252D01*
X118951000Y-62857748D02*
X118951000Y-63380252D01*
X117531000Y-62857748D02*
X117531000Y-63380252D01*
%TO.C,Q1*%
X91807000Y-74127000D02*
X91807000Y-76557000D01*
X91797000Y-74107000D02*
X90797000Y-74107000D01*
X88747000Y-74107000D02*
X88747000Y-75957000D01*
X89797000Y-74107000D02*
X88747000Y-74107000D01*
%TO.C,U1*%
X92641000Y-64663000D02*
X89691000Y-64663000D01*
X90841000Y-61443000D02*
X92641000Y-61443000D01*
%TO.C,BT1*%
X101217000Y-68513000D02*
X101167000Y-68513000D01*
X101217000Y-70933000D02*
X101167000Y-70933000D01*
X102287000Y-68513000D02*
X102237000Y-68513000D01*
X102287000Y-70933000D02*
X102237000Y-70933000D01*
X102237000Y-72313000D02*
X102237000Y-70933000D01*
X101167000Y-70933000D02*
X101167000Y-68513000D01*
X102287000Y-70933000D02*
X102287000Y-68513000D01*
%TO.C,J1*%
X87851000Y-61343000D02*
X86741000Y-61343000D01*
X87851000Y-62103000D02*
X87851000Y-61343000D01*
X86177529Y-62863000D02*
X85631000Y-62863000D01*
X87851000Y-62863000D02*
X87304471Y-62863000D01*
X85631000Y-62863000D02*
X85631000Y-67878000D01*
X87851000Y-62863000D02*
X87851000Y-67878000D01*
X86433470Y-67878000D02*
X85631000Y-67878000D01*
X87851000Y-67878000D02*
X87048530Y-67878000D01*
%TO.C,R1*%
X98731000Y-62857748D02*
X98731000Y-63380252D01*
X100151000Y-62857748D02*
X100151000Y-63380252D01*
%TO.C,D2*%
X93385000Y-76911000D02*
X93385000Y-73711000D01*
X97285000Y-73711000D02*
X93385000Y-73711000D01*
X97285000Y-76911000D02*
X93385000Y-76911000D01*
%TO.C,R2*%
X97646748Y-70537000D02*
X98169252Y-70537000D01*
X97646748Y-71957000D02*
X98169252Y-71957000D01*
%TO.C,J1*%
D11*
X124674333Y-111212380D02*
X124674333Y-111926666D01*
X124721952Y-112069523D01*
X124817190Y-112164761D01*
X124960047Y-112212380D01*
X125055285Y-112212380D01*
X123674333Y-112212380D02*
X124245761Y-112212380D01*
X123960047Y-112212380D02*
X123960047Y-111212380D01*
X124055285Y-111355238D01*
X124150523Y-111450476D01*
X124245761Y-111498095D01*
X105874333Y-111212380D02*
X105874333Y-111926666D01*
X105921952Y-112069523D01*
X106017190Y-112164761D01*
X106160047Y-112212380D01*
X106255285Y-112212380D01*
X104874333Y-112212380D02*
X105445761Y-112212380D01*
X105160047Y-112212380D02*
X105160047Y-111212380D01*
X105255285Y-111355238D01*
X105350523Y-111450476D01*
X105445761Y-111498095D01*
X143474333Y-111212380D02*
X143474333Y-111926666D01*
X143521952Y-112069523D01*
X143617190Y-112164761D01*
X143760047Y-112212380D01*
X143855285Y-112212380D01*
X142474333Y-112212380D02*
X143045761Y-112212380D01*
X142760047Y-112212380D02*
X142760047Y-111212380D01*
X142855285Y-111355238D01*
X142950523Y-111450476D01*
X143045761Y-111498095D01*
%TO.C,R2*%
X98074666Y-134694380D02*
X98408000Y-134218190D01*
X98646095Y-134694380D02*
X98646095Y-133694380D01*
X98265142Y-133694380D01*
X98169904Y-133742000D01*
X98122285Y-133789619D01*
X98074666Y-133884857D01*
X98074666Y-134027714D01*
X98122285Y-134122952D01*
X98169904Y-134170571D01*
X98265142Y-134218190D01*
X98646095Y-134218190D01*
X97693714Y-133789619D02*
X97646095Y-133742000D01*
X97550857Y-133694380D01*
X97312761Y-133694380D01*
X97217523Y-133742000D01*
X97169904Y-133789619D01*
X97122285Y-133884857D01*
X97122285Y-133980095D01*
X97169904Y-134122952D01*
X97741333Y-134694380D01*
X97122285Y-134694380D01*
X154474666Y-115894380D02*
X154808000Y-115418190D01*
X155046095Y-115894380D02*
X155046095Y-114894380D01*
X154665142Y-114894380D01*
X154569904Y-114942000D01*
X154522285Y-114989619D01*
X154474666Y-115084857D01*
X154474666Y-115227714D01*
X154522285Y-115322952D01*
X154569904Y-115370571D01*
X154665142Y-115418190D01*
X155046095Y-115418190D01*
X154093714Y-114989619D02*
X154046095Y-114942000D01*
X153950857Y-114894380D01*
X153712761Y-114894380D01*
X153617523Y-114942000D01*
X153569904Y-114989619D01*
X153522285Y-115084857D01*
X153522285Y-115180095D01*
X153569904Y-115322952D01*
X154141333Y-115894380D01*
X153522285Y-115894380D01*
%TO.C,D2*%
X115423095Y-139508380D02*
X115423095Y-138508380D01*
X115185000Y-138508380D01*
X115042142Y-138556000D01*
X114946904Y-138651238D01*
X114899285Y-138746476D01*
X114851666Y-138936952D01*
X114851666Y-139079809D01*
X114899285Y-139270285D01*
X114946904Y-139365523D01*
X115042142Y-139460761D01*
X115185000Y-139508380D01*
X115423095Y-139508380D01*
X114470714Y-138603619D02*
X114423095Y-138556000D01*
X114327857Y-138508380D01*
X114089761Y-138508380D01*
X113994523Y-138556000D01*
X113946904Y-138603619D01*
X113899285Y-138698857D01*
X113899285Y-138794095D01*
X113946904Y-138936952D01*
X114518333Y-139508380D01*
X113899285Y-139508380D01*
%TO.C,Q1*%
X124809380Y-136497238D02*
X124857000Y-136592476D01*
X124952238Y-136687714D01*
X125095095Y-136830571D01*
X125142714Y-136925809D01*
X125142714Y-137021047D01*
X124904619Y-136973428D02*
X124952238Y-137068666D01*
X125047476Y-137163904D01*
X125237952Y-137211523D01*
X125571285Y-137211523D01*
X125761761Y-137163904D01*
X125857000Y-137068666D01*
X125904619Y-136973428D01*
X125904619Y-136782952D01*
X125857000Y-136687714D01*
X125761761Y-136592476D01*
X125571285Y-136544857D01*
X125237952Y-136544857D01*
X125047476Y-136592476D01*
X124952238Y-136687714D01*
X124904619Y-136782952D01*
X124904619Y-136973428D01*
X124904619Y-135592476D02*
X124904619Y-136163904D01*
X124904619Y-135878190D02*
X125904619Y-135878190D01*
X125761761Y-135973428D01*
X125666523Y-136068666D01*
X125618904Y-136163904D01*
%TO.C,R2*%
X135674666Y-115894380D02*
X136008000Y-115418190D01*
X136246095Y-115894380D02*
X136246095Y-114894380D01*
X135865142Y-114894380D01*
X135769904Y-114942000D01*
X135722285Y-114989619D01*
X135674666Y-115084857D01*
X135674666Y-115227714D01*
X135722285Y-115322952D01*
X135769904Y-115370571D01*
X135865142Y-115418190D01*
X136246095Y-115418190D01*
X135293714Y-114989619D02*
X135246095Y-114942000D01*
X135150857Y-114894380D01*
X134912761Y-114894380D01*
X134817523Y-114942000D01*
X134769904Y-114989619D01*
X134722285Y-115084857D01*
X134722285Y-115180095D01*
X134769904Y-115322952D01*
X135341333Y-115894380D01*
X134722285Y-115894380D01*
X116874666Y-134694380D02*
X117208000Y-134218190D01*
X117446095Y-134694380D02*
X117446095Y-133694380D01*
X117065142Y-133694380D01*
X116969904Y-133742000D01*
X116922285Y-133789619D01*
X116874666Y-133884857D01*
X116874666Y-134027714D01*
X116922285Y-134122952D01*
X116969904Y-134170571D01*
X117065142Y-134218190D01*
X117446095Y-134218190D01*
X116493714Y-133789619D02*
X116446095Y-133742000D01*
X116350857Y-133694380D01*
X116112761Y-133694380D01*
X116017523Y-133742000D01*
X115969904Y-133789619D01*
X115922285Y-133884857D01*
X115922285Y-133980095D01*
X115969904Y-134122952D01*
X116541333Y-134694380D01*
X115922285Y-134694380D01*
%TO.C,D2*%
X96623095Y-139508380D02*
X96623095Y-138508380D01*
X96385000Y-138508380D01*
X96242142Y-138556000D01*
X96146904Y-138651238D01*
X96099285Y-138746476D01*
X96051666Y-138936952D01*
X96051666Y-139079809D01*
X96099285Y-139270285D01*
X96146904Y-139365523D01*
X96242142Y-139460761D01*
X96385000Y-139508380D01*
X96623095Y-139508380D01*
X95670714Y-138603619D02*
X95623095Y-138556000D01*
X95527857Y-138508380D01*
X95289761Y-138508380D01*
X95194523Y-138556000D01*
X95146904Y-138603619D01*
X95099285Y-138698857D01*
X95099285Y-138794095D01*
X95146904Y-138936952D01*
X95718333Y-139508380D01*
X95099285Y-139508380D01*
X153023095Y-120708380D02*
X153023095Y-119708380D01*
X152785000Y-119708380D01*
X152642142Y-119756000D01*
X152546904Y-119851238D01*
X152499285Y-119946476D01*
X152451666Y-120136952D01*
X152451666Y-120279809D01*
X152499285Y-120470285D01*
X152546904Y-120565523D01*
X152642142Y-120660761D01*
X152785000Y-120708380D01*
X153023095Y-120708380D01*
X152070714Y-119803619D02*
X152023095Y-119756000D01*
X151927857Y-119708380D01*
X151689761Y-119708380D01*
X151594523Y-119756000D01*
X151546904Y-119803619D01*
X151499285Y-119898857D01*
X151499285Y-119994095D01*
X151546904Y-120136952D01*
X152118333Y-120708380D01*
X151499285Y-120708380D01*
X115423095Y-120708380D02*
X115423095Y-119708380D01*
X115185000Y-119708380D01*
X115042142Y-119756000D01*
X114946904Y-119851238D01*
X114899285Y-119946476D01*
X114851666Y-120136952D01*
X114851666Y-120279809D01*
X114899285Y-120470285D01*
X114946904Y-120565523D01*
X115042142Y-120660761D01*
X115185000Y-120708380D01*
X115423095Y-120708380D01*
X114470714Y-119803619D02*
X114423095Y-119756000D01*
X114327857Y-119708380D01*
X114089761Y-119708380D01*
X113994523Y-119756000D01*
X113946904Y-119803619D01*
X113899285Y-119898857D01*
X113899285Y-119994095D01*
X113946904Y-120136952D01*
X114518333Y-120708380D01*
X113899285Y-120708380D01*
%TO.C,R2*%
X135674666Y-134694380D02*
X136008000Y-134218190D01*
X136246095Y-134694380D02*
X136246095Y-133694380D01*
X135865142Y-133694380D01*
X135769904Y-133742000D01*
X135722285Y-133789619D01*
X135674666Y-133884857D01*
X135674666Y-134027714D01*
X135722285Y-134122952D01*
X135769904Y-134170571D01*
X135865142Y-134218190D01*
X136246095Y-134218190D01*
X135293714Y-133789619D02*
X135246095Y-133742000D01*
X135150857Y-133694380D01*
X134912761Y-133694380D01*
X134817523Y-133742000D01*
X134769904Y-133789619D01*
X134722285Y-133884857D01*
X134722285Y-133980095D01*
X134769904Y-134122952D01*
X135341333Y-134694380D01*
X134722285Y-134694380D01*
%TO.C,D2*%
X153023095Y-139508380D02*
X153023095Y-138508380D01*
X152785000Y-138508380D01*
X152642142Y-138556000D01*
X152546904Y-138651238D01*
X152499285Y-138746476D01*
X152451666Y-138936952D01*
X152451666Y-139079809D01*
X152499285Y-139270285D01*
X152546904Y-139365523D01*
X152642142Y-139460761D01*
X152785000Y-139508380D01*
X153023095Y-139508380D01*
X152070714Y-138603619D02*
X152023095Y-138556000D01*
X151927857Y-138508380D01*
X151689761Y-138508380D01*
X151594523Y-138556000D01*
X151546904Y-138603619D01*
X151499285Y-138698857D01*
X151499285Y-138794095D01*
X151546904Y-138936952D01*
X152118333Y-139508380D01*
X151499285Y-139508380D01*
%TO.C,R2*%
X154474666Y-134694380D02*
X154808000Y-134218190D01*
X155046095Y-134694380D02*
X155046095Y-133694380D01*
X154665142Y-133694380D01*
X154569904Y-133742000D01*
X154522285Y-133789619D01*
X154474666Y-133884857D01*
X154474666Y-134027714D01*
X154522285Y-134122952D01*
X154569904Y-134170571D01*
X154665142Y-134218190D01*
X155046095Y-134218190D01*
X154093714Y-133789619D02*
X154046095Y-133742000D01*
X153950857Y-133694380D01*
X153712761Y-133694380D01*
X153617523Y-133742000D01*
X153569904Y-133789619D01*
X153522285Y-133884857D01*
X153522285Y-133980095D01*
X153569904Y-134122952D01*
X154141333Y-134694380D01*
X153522285Y-134694380D01*
X116874666Y-115894380D02*
X117208000Y-115418190D01*
X117446095Y-115894380D02*
X117446095Y-114894380D01*
X117065142Y-114894380D01*
X116969904Y-114942000D01*
X116922285Y-114989619D01*
X116874666Y-115084857D01*
X116874666Y-115227714D01*
X116922285Y-115322952D01*
X116969904Y-115370571D01*
X117065142Y-115418190D01*
X117446095Y-115418190D01*
X116493714Y-114989619D02*
X116446095Y-114942000D01*
X116350857Y-114894380D01*
X116112761Y-114894380D01*
X116017523Y-114942000D01*
X115969904Y-114989619D01*
X115922285Y-115084857D01*
X115922285Y-115180095D01*
X115969904Y-115322952D01*
X116541333Y-115894380D01*
X115922285Y-115894380D01*
%TO.C,Q1*%
X143609380Y-136497238D02*
X143657000Y-136592476D01*
X143752238Y-136687714D01*
X143895095Y-136830571D01*
X143942714Y-136925809D01*
X143942714Y-137021047D01*
X143704619Y-136973428D02*
X143752238Y-137068666D01*
X143847476Y-137163904D01*
X144037952Y-137211523D01*
X144371285Y-137211523D01*
X144561761Y-137163904D01*
X144657000Y-137068666D01*
X144704619Y-136973428D01*
X144704619Y-136782952D01*
X144657000Y-136687714D01*
X144561761Y-136592476D01*
X144371285Y-136544857D01*
X144037952Y-136544857D01*
X143847476Y-136592476D01*
X143752238Y-136687714D01*
X143704619Y-136782952D01*
X143704619Y-136973428D01*
X143704619Y-135592476D02*
X143704619Y-136163904D01*
X143704619Y-135878190D02*
X144704619Y-135878190D01*
X144561761Y-135973428D01*
X144466523Y-136068666D01*
X144418904Y-136163904D01*
%TO.C,D2*%
X134223095Y-139508380D02*
X134223095Y-138508380D01*
X133985000Y-138508380D01*
X133842142Y-138556000D01*
X133746904Y-138651238D01*
X133699285Y-138746476D01*
X133651666Y-138936952D01*
X133651666Y-139079809D01*
X133699285Y-139270285D01*
X133746904Y-139365523D01*
X133842142Y-139460761D01*
X133985000Y-139508380D01*
X134223095Y-139508380D01*
X133270714Y-138603619D02*
X133223095Y-138556000D01*
X133127857Y-138508380D01*
X132889761Y-138508380D01*
X132794523Y-138556000D01*
X132746904Y-138603619D01*
X132699285Y-138698857D01*
X132699285Y-138794095D01*
X132746904Y-138936952D01*
X133318333Y-139508380D01*
X132699285Y-139508380D01*
X134223095Y-120708380D02*
X134223095Y-119708380D01*
X133985000Y-119708380D01*
X133842142Y-119756000D01*
X133746904Y-119851238D01*
X133699285Y-119946476D01*
X133651666Y-120136952D01*
X133651666Y-120279809D01*
X133699285Y-120470285D01*
X133746904Y-120565523D01*
X133842142Y-120660761D01*
X133985000Y-120708380D01*
X134223095Y-120708380D01*
X133270714Y-119803619D02*
X133223095Y-119756000D01*
X133127857Y-119708380D01*
X132889761Y-119708380D01*
X132794523Y-119756000D01*
X132746904Y-119803619D01*
X132699285Y-119898857D01*
X132699285Y-119994095D01*
X132746904Y-120136952D01*
X133318333Y-120708380D01*
X132699285Y-120708380D01*
X96623095Y-120708380D02*
X96623095Y-119708380D01*
X96385000Y-119708380D01*
X96242142Y-119756000D01*
X96146904Y-119851238D01*
X96099285Y-119946476D01*
X96051666Y-120136952D01*
X96051666Y-120279809D01*
X96099285Y-120470285D01*
X96146904Y-120565523D01*
X96242142Y-120660761D01*
X96385000Y-120708380D01*
X96623095Y-120708380D01*
X95670714Y-119803619D02*
X95623095Y-119756000D01*
X95527857Y-119708380D01*
X95289761Y-119708380D01*
X95194523Y-119756000D01*
X95146904Y-119803619D01*
X95099285Y-119898857D01*
X95099285Y-119994095D01*
X95146904Y-120136952D01*
X95718333Y-120708380D01*
X95099285Y-120708380D01*
%TO.C,R2*%
X98074666Y-115894380D02*
X98408000Y-115418190D01*
X98646095Y-115894380D02*
X98646095Y-114894380D01*
X98265142Y-114894380D01*
X98169904Y-114942000D01*
X98122285Y-114989619D01*
X98074666Y-115084857D01*
X98074666Y-115227714D01*
X98122285Y-115322952D01*
X98169904Y-115370571D01*
X98265142Y-115418190D01*
X98646095Y-115418190D01*
X97693714Y-114989619D02*
X97646095Y-114942000D01*
X97550857Y-114894380D01*
X97312761Y-114894380D01*
X97217523Y-114942000D01*
X97169904Y-114989619D01*
X97122285Y-115084857D01*
X97122285Y-115180095D01*
X97169904Y-115322952D01*
X97741333Y-115894380D01*
X97122285Y-115894380D01*
%TO.C,Q1*%
X87209380Y-117697238D02*
X87257000Y-117792476D01*
X87352238Y-117887714D01*
X87495095Y-118030571D01*
X87542714Y-118125809D01*
X87542714Y-118221047D01*
X87304619Y-118173428D02*
X87352238Y-118268666D01*
X87447476Y-118363904D01*
X87637952Y-118411523D01*
X87971285Y-118411523D01*
X88161761Y-118363904D01*
X88257000Y-118268666D01*
X88304619Y-118173428D01*
X88304619Y-117982952D01*
X88257000Y-117887714D01*
X88161761Y-117792476D01*
X87971285Y-117744857D01*
X87637952Y-117744857D01*
X87447476Y-117792476D01*
X87352238Y-117887714D01*
X87304619Y-117982952D01*
X87304619Y-118173428D01*
X87304619Y-116792476D02*
X87304619Y-117363904D01*
X87304619Y-117078190D02*
X88304619Y-117078190D01*
X88161761Y-117173428D01*
X88066523Y-117268666D01*
X88018904Y-117363904D01*
%TO.C,BT1*%
X100274428Y-110005714D02*
X100226809Y-109862857D01*
X100179190Y-109815238D01*
X100083952Y-109767619D01*
X99941095Y-109767619D01*
X99845857Y-109815238D01*
X99798238Y-109862857D01*
X99750619Y-109958095D01*
X99750619Y-110339047D01*
X100750619Y-110339047D01*
X100750619Y-110005714D01*
X100703000Y-109910476D01*
X100655380Y-109862857D01*
X100560142Y-109815238D01*
X100464904Y-109815238D01*
X100369666Y-109862857D01*
X100322047Y-109910476D01*
X100274428Y-110005714D01*
X100274428Y-110339047D01*
X100750619Y-109481904D02*
X100750619Y-108910476D01*
X99750619Y-109196190D02*
X100750619Y-109196190D01*
X99750619Y-108053333D02*
X99750619Y-108624761D01*
X99750619Y-108339047D02*
X100750619Y-108339047D01*
X100607761Y-108434285D01*
X100512523Y-108529523D01*
X100464904Y-108624761D01*
%TO.C,J1*%
X87074333Y-111212380D02*
X87074333Y-111926666D01*
X87121952Y-112069523D01*
X87217190Y-112164761D01*
X87360047Y-112212380D01*
X87455285Y-112212380D01*
X86074333Y-112212380D02*
X86645761Y-112212380D01*
X86360047Y-112212380D02*
X86360047Y-111212380D01*
X86455285Y-111355238D01*
X86550523Y-111450476D01*
X86645761Y-111498095D01*
%TO.C,U1*%
X93598904Y-107402380D02*
X93598904Y-108211904D01*
X93551285Y-108307142D01*
X93503666Y-108354761D01*
X93408428Y-108402380D01*
X93217952Y-108402380D01*
X93122714Y-108354761D01*
X93075095Y-108307142D01*
X93027476Y-108211904D01*
X93027476Y-107402380D01*
X92027476Y-108402380D02*
X92598904Y-108402380D01*
X92313190Y-108402380D02*
X92313190Y-107402380D01*
X92408428Y-107545238D01*
X92503666Y-107640476D01*
X92598904Y-107688095D01*
%TO.C,R1*%
X98243380Y-104481333D02*
X97767190Y-104148000D01*
X98243380Y-103909904D02*
X97243380Y-103909904D01*
X97243380Y-104290857D01*
X97291000Y-104386095D01*
X97338619Y-104433714D01*
X97433857Y-104481333D01*
X97576714Y-104481333D01*
X97671952Y-104433714D01*
X97719571Y-104386095D01*
X97767190Y-104290857D01*
X97767190Y-103909904D01*
X98243380Y-105433714D02*
X98243380Y-104862285D01*
X98243380Y-105148000D02*
X97243380Y-105148000D01*
X97386238Y-105052761D01*
X97481476Y-104957523D01*
X97529095Y-104862285D01*
%TO.C,U1*%
X149998904Y-107402380D02*
X149998904Y-108211904D01*
X149951285Y-108307142D01*
X149903666Y-108354761D01*
X149808428Y-108402380D01*
X149617952Y-108402380D01*
X149522714Y-108354761D01*
X149475095Y-108307142D01*
X149427476Y-108211904D01*
X149427476Y-107402380D01*
X148427476Y-108402380D02*
X148998904Y-108402380D01*
X148713190Y-108402380D02*
X148713190Y-107402380D01*
X148808428Y-107545238D01*
X148903666Y-107640476D01*
X148998904Y-107688095D01*
%TO.C,R1*%
X117043380Y-104481333D02*
X116567190Y-104148000D01*
X117043380Y-103909904D02*
X116043380Y-103909904D01*
X116043380Y-104290857D01*
X116091000Y-104386095D01*
X116138619Y-104433714D01*
X116233857Y-104481333D01*
X116376714Y-104481333D01*
X116471952Y-104433714D01*
X116519571Y-104386095D01*
X116567190Y-104290857D01*
X116567190Y-103909904D01*
X117043380Y-105433714D02*
X117043380Y-104862285D01*
X117043380Y-105148000D02*
X116043380Y-105148000D01*
X116186238Y-105052761D01*
X116281476Y-104957523D01*
X116329095Y-104862285D01*
%TO.C,U1*%
X131198904Y-126202380D02*
X131198904Y-127011904D01*
X131151285Y-127107142D01*
X131103666Y-127154761D01*
X131008428Y-127202380D01*
X130817952Y-127202380D01*
X130722714Y-127154761D01*
X130675095Y-127107142D01*
X130627476Y-127011904D01*
X130627476Y-126202380D01*
X129627476Y-127202380D02*
X130198904Y-127202380D01*
X129913190Y-127202380D02*
X129913190Y-126202380D01*
X130008428Y-126345238D01*
X130103666Y-126440476D01*
X130198904Y-126488095D01*
X112398904Y-126202380D02*
X112398904Y-127011904D01*
X112351285Y-127107142D01*
X112303666Y-127154761D01*
X112208428Y-127202380D01*
X112017952Y-127202380D01*
X111922714Y-127154761D01*
X111875095Y-127107142D01*
X111827476Y-127011904D01*
X111827476Y-126202380D01*
X110827476Y-127202380D02*
X111398904Y-127202380D01*
X111113190Y-127202380D02*
X111113190Y-126202380D01*
X111208428Y-126345238D01*
X111303666Y-126440476D01*
X111398904Y-126488095D01*
X93598904Y-126202380D02*
X93598904Y-127011904D01*
X93551285Y-127107142D01*
X93503666Y-127154761D01*
X93408428Y-127202380D01*
X93217952Y-127202380D01*
X93122714Y-127154761D01*
X93075095Y-127107142D01*
X93027476Y-127011904D01*
X93027476Y-126202380D01*
X92027476Y-127202380D02*
X92598904Y-127202380D01*
X92313190Y-127202380D02*
X92313190Y-126202380D01*
X92408428Y-126345238D01*
X92503666Y-126440476D01*
X92598904Y-126488095D01*
X131198904Y-107402380D02*
X131198904Y-108211904D01*
X131151285Y-108307142D01*
X131103666Y-108354761D01*
X131008428Y-108402380D01*
X130817952Y-108402380D01*
X130722714Y-108354761D01*
X130675095Y-108307142D01*
X130627476Y-108211904D01*
X130627476Y-107402380D01*
X129627476Y-108402380D02*
X130198904Y-108402380D01*
X129913190Y-108402380D02*
X129913190Y-107402380D01*
X130008428Y-107545238D01*
X130103666Y-107640476D01*
X130198904Y-107688095D01*
X112398904Y-107402380D02*
X112398904Y-108211904D01*
X112351285Y-108307142D01*
X112303666Y-108354761D01*
X112208428Y-108402380D01*
X112017952Y-108402380D01*
X111922714Y-108354761D01*
X111875095Y-108307142D01*
X111827476Y-108211904D01*
X111827476Y-107402380D01*
X110827476Y-108402380D02*
X111398904Y-108402380D01*
X111113190Y-108402380D02*
X111113190Y-107402380D01*
X111208428Y-107545238D01*
X111303666Y-107640476D01*
X111398904Y-107688095D01*
%TO.C,R1*%
X154643380Y-104481333D02*
X154167190Y-104148000D01*
X154643380Y-103909904D02*
X153643380Y-103909904D01*
X153643380Y-104290857D01*
X153691000Y-104386095D01*
X153738619Y-104433714D01*
X153833857Y-104481333D01*
X153976714Y-104481333D01*
X154071952Y-104433714D01*
X154119571Y-104386095D01*
X154167190Y-104290857D01*
X154167190Y-103909904D01*
X154643380Y-105433714D02*
X154643380Y-104862285D01*
X154643380Y-105148000D02*
X153643380Y-105148000D01*
X153786238Y-105052761D01*
X153881476Y-104957523D01*
X153929095Y-104862285D01*
X154643380Y-123281333D02*
X154167190Y-122948000D01*
X154643380Y-122709904D02*
X153643380Y-122709904D01*
X153643380Y-123090857D01*
X153691000Y-123186095D01*
X153738619Y-123233714D01*
X153833857Y-123281333D01*
X153976714Y-123281333D01*
X154071952Y-123233714D01*
X154119571Y-123186095D01*
X154167190Y-123090857D01*
X154167190Y-122709904D01*
X154643380Y-124233714D02*
X154643380Y-123662285D01*
X154643380Y-123948000D02*
X153643380Y-123948000D01*
X153786238Y-123852761D01*
X153881476Y-123757523D01*
X153929095Y-123662285D01*
X117043380Y-123281333D02*
X116567190Y-122948000D01*
X117043380Y-122709904D02*
X116043380Y-122709904D01*
X116043380Y-123090857D01*
X116091000Y-123186095D01*
X116138619Y-123233714D01*
X116233857Y-123281333D01*
X116376714Y-123281333D01*
X116471952Y-123233714D01*
X116519571Y-123186095D01*
X116567190Y-123090857D01*
X116567190Y-122709904D01*
X117043380Y-124233714D02*
X117043380Y-123662285D01*
X117043380Y-123948000D02*
X116043380Y-123948000D01*
X116186238Y-123852761D01*
X116281476Y-123757523D01*
X116329095Y-123662285D01*
X98243380Y-123281333D02*
X97767190Y-122948000D01*
X98243380Y-122709904D02*
X97243380Y-122709904D01*
X97243380Y-123090857D01*
X97291000Y-123186095D01*
X97338619Y-123233714D01*
X97433857Y-123281333D01*
X97576714Y-123281333D01*
X97671952Y-123233714D01*
X97719571Y-123186095D01*
X97767190Y-123090857D01*
X97767190Y-122709904D01*
X98243380Y-124233714D02*
X98243380Y-123662285D01*
X98243380Y-123948000D02*
X97243380Y-123948000D01*
X97386238Y-123852761D01*
X97481476Y-123757523D01*
X97529095Y-123662285D01*
X135843380Y-104481333D02*
X135367190Y-104148000D01*
X135843380Y-103909904D02*
X134843380Y-103909904D01*
X134843380Y-104290857D01*
X134891000Y-104386095D01*
X134938619Y-104433714D01*
X135033857Y-104481333D01*
X135176714Y-104481333D01*
X135271952Y-104433714D01*
X135319571Y-104386095D01*
X135367190Y-104290857D01*
X135367190Y-103909904D01*
X135843380Y-105433714D02*
X135843380Y-104862285D01*
X135843380Y-105148000D02*
X134843380Y-105148000D01*
X134986238Y-105052761D01*
X135081476Y-104957523D01*
X135129095Y-104862285D01*
X135843380Y-123281333D02*
X135367190Y-122948000D01*
X135843380Y-122709904D02*
X134843380Y-122709904D01*
X134843380Y-123090857D01*
X134891000Y-123186095D01*
X134938619Y-123233714D01*
X135033857Y-123281333D01*
X135176714Y-123281333D01*
X135271952Y-123233714D01*
X135319571Y-123186095D01*
X135367190Y-123090857D01*
X135367190Y-122709904D01*
X135843380Y-124233714D02*
X135843380Y-123662285D01*
X135843380Y-123948000D02*
X134843380Y-123948000D01*
X134986238Y-123852761D01*
X135081476Y-123757523D01*
X135129095Y-123662285D01*
%TO.C,U1*%
X149998904Y-126202380D02*
X149998904Y-127011904D01*
X149951285Y-127107142D01*
X149903666Y-127154761D01*
X149808428Y-127202380D01*
X149617952Y-127202380D01*
X149522714Y-127154761D01*
X149475095Y-127107142D01*
X149427476Y-127011904D01*
X149427476Y-126202380D01*
X148427476Y-127202380D02*
X148998904Y-127202380D01*
X148713190Y-127202380D02*
X148713190Y-126202380D01*
X148808428Y-126345238D01*
X148903666Y-126440476D01*
X148998904Y-126488095D01*
%TO.C,Q1*%
X106009380Y-136497238D02*
X106057000Y-136592476D01*
X106152238Y-136687714D01*
X106295095Y-136830571D01*
X106342714Y-136925809D01*
X106342714Y-137021047D01*
X106104619Y-136973428D02*
X106152238Y-137068666D01*
X106247476Y-137163904D01*
X106437952Y-137211523D01*
X106771285Y-137211523D01*
X106961761Y-137163904D01*
X107057000Y-137068666D01*
X107104619Y-136973428D01*
X107104619Y-136782952D01*
X107057000Y-136687714D01*
X106961761Y-136592476D01*
X106771285Y-136544857D01*
X106437952Y-136544857D01*
X106247476Y-136592476D01*
X106152238Y-136687714D01*
X106104619Y-136782952D01*
X106104619Y-136973428D01*
X106104619Y-135592476D02*
X106104619Y-136163904D01*
X106104619Y-135878190D02*
X107104619Y-135878190D01*
X106961761Y-135973428D01*
X106866523Y-136068666D01*
X106818904Y-136163904D01*
%TO.C,BT1*%
X156674428Y-128805714D02*
X156626809Y-128662857D01*
X156579190Y-128615238D01*
X156483952Y-128567619D01*
X156341095Y-128567619D01*
X156245857Y-128615238D01*
X156198238Y-128662857D01*
X156150619Y-128758095D01*
X156150619Y-129139047D01*
X157150619Y-129139047D01*
X157150619Y-128805714D01*
X157103000Y-128710476D01*
X157055380Y-128662857D01*
X156960142Y-128615238D01*
X156864904Y-128615238D01*
X156769666Y-128662857D01*
X156722047Y-128710476D01*
X156674428Y-128805714D01*
X156674428Y-129139047D01*
X157150619Y-128281904D02*
X157150619Y-127710476D01*
X156150619Y-127996190D02*
X157150619Y-127996190D01*
X156150619Y-126853333D02*
X156150619Y-127424761D01*
X156150619Y-127139047D02*
X157150619Y-127139047D01*
X157007761Y-127234285D01*
X156912523Y-127329523D01*
X156864904Y-127424761D01*
X156674428Y-110005714D02*
X156626809Y-109862857D01*
X156579190Y-109815238D01*
X156483952Y-109767619D01*
X156341095Y-109767619D01*
X156245857Y-109815238D01*
X156198238Y-109862857D01*
X156150619Y-109958095D01*
X156150619Y-110339047D01*
X157150619Y-110339047D01*
X157150619Y-110005714D01*
X157103000Y-109910476D01*
X157055380Y-109862857D01*
X156960142Y-109815238D01*
X156864904Y-109815238D01*
X156769666Y-109862857D01*
X156722047Y-109910476D01*
X156674428Y-110005714D01*
X156674428Y-110339047D01*
X157150619Y-109481904D02*
X157150619Y-108910476D01*
X156150619Y-109196190D02*
X157150619Y-109196190D01*
X156150619Y-108053333D02*
X156150619Y-108624761D01*
X156150619Y-108339047D02*
X157150619Y-108339047D01*
X157007761Y-108434285D01*
X156912523Y-108529523D01*
X156864904Y-108624761D01*
%TO.C,J1*%
X143474333Y-130012380D02*
X143474333Y-130726666D01*
X143521952Y-130869523D01*
X143617190Y-130964761D01*
X143760047Y-131012380D01*
X143855285Y-131012380D01*
X142474333Y-131012380D02*
X143045761Y-131012380D01*
X142760047Y-131012380D02*
X142760047Y-130012380D01*
X142855285Y-130155238D01*
X142950523Y-130250476D01*
X143045761Y-130298095D01*
X105874333Y-130012380D02*
X105874333Y-130726666D01*
X105921952Y-130869523D01*
X106017190Y-130964761D01*
X106160047Y-131012380D01*
X106255285Y-131012380D01*
X104874333Y-131012380D02*
X105445761Y-131012380D01*
X105160047Y-131012380D02*
X105160047Y-130012380D01*
X105255285Y-130155238D01*
X105350523Y-130250476D01*
X105445761Y-130298095D01*
%TO.C,BT1*%
X119074428Y-128805714D02*
X119026809Y-128662857D01*
X118979190Y-128615238D01*
X118883952Y-128567619D01*
X118741095Y-128567619D01*
X118645857Y-128615238D01*
X118598238Y-128662857D01*
X118550619Y-128758095D01*
X118550619Y-129139047D01*
X119550619Y-129139047D01*
X119550619Y-128805714D01*
X119503000Y-128710476D01*
X119455380Y-128662857D01*
X119360142Y-128615238D01*
X119264904Y-128615238D01*
X119169666Y-128662857D01*
X119122047Y-128710476D01*
X119074428Y-128805714D01*
X119074428Y-129139047D01*
X119550619Y-128281904D02*
X119550619Y-127710476D01*
X118550619Y-127996190D02*
X119550619Y-127996190D01*
X118550619Y-126853333D02*
X118550619Y-127424761D01*
X118550619Y-127139047D02*
X119550619Y-127139047D01*
X119407761Y-127234285D01*
X119312523Y-127329523D01*
X119264904Y-127424761D01*
%TO.C,Q1*%
X87209380Y-136497238D02*
X87257000Y-136592476D01*
X87352238Y-136687714D01*
X87495095Y-136830571D01*
X87542714Y-136925809D01*
X87542714Y-137021047D01*
X87304619Y-136973428D02*
X87352238Y-137068666D01*
X87447476Y-137163904D01*
X87637952Y-137211523D01*
X87971285Y-137211523D01*
X88161761Y-137163904D01*
X88257000Y-137068666D01*
X88304619Y-136973428D01*
X88304619Y-136782952D01*
X88257000Y-136687714D01*
X88161761Y-136592476D01*
X87971285Y-136544857D01*
X87637952Y-136544857D01*
X87447476Y-136592476D01*
X87352238Y-136687714D01*
X87304619Y-136782952D01*
X87304619Y-136973428D01*
X87304619Y-135592476D02*
X87304619Y-136163904D01*
X87304619Y-135878190D02*
X88304619Y-135878190D01*
X88161761Y-135973428D01*
X88066523Y-136068666D01*
X88018904Y-136163904D01*
X143609380Y-117697238D02*
X143657000Y-117792476D01*
X143752238Y-117887714D01*
X143895095Y-118030571D01*
X143942714Y-118125809D01*
X143942714Y-118221047D01*
X143704619Y-118173428D02*
X143752238Y-118268666D01*
X143847476Y-118363904D01*
X144037952Y-118411523D01*
X144371285Y-118411523D01*
X144561761Y-118363904D01*
X144657000Y-118268666D01*
X144704619Y-118173428D01*
X144704619Y-117982952D01*
X144657000Y-117887714D01*
X144561761Y-117792476D01*
X144371285Y-117744857D01*
X144037952Y-117744857D01*
X143847476Y-117792476D01*
X143752238Y-117887714D01*
X143704619Y-117982952D01*
X143704619Y-118173428D01*
X143704619Y-116792476D02*
X143704619Y-117363904D01*
X143704619Y-117078190D02*
X144704619Y-117078190D01*
X144561761Y-117173428D01*
X144466523Y-117268666D01*
X144418904Y-117363904D01*
X124809380Y-117697238D02*
X124857000Y-117792476D01*
X124952238Y-117887714D01*
X125095095Y-118030571D01*
X125142714Y-118125809D01*
X125142714Y-118221047D01*
X124904619Y-118173428D02*
X124952238Y-118268666D01*
X125047476Y-118363904D01*
X125237952Y-118411523D01*
X125571285Y-118411523D01*
X125761761Y-118363904D01*
X125857000Y-118268666D01*
X125904619Y-118173428D01*
X125904619Y-117982952D01*
X125857000Y-117887714D01*
X125761761Y-117792476D01*
X125571285Y-117744857D01*
X125237952Y-117744857D01*
X125047476Y-117792476D01*
X124952238Y-117887714D01*
X124904619Y-117982952D01*
X124904619Y-118173428D01*
X124904619Y-116792476D02*
X124904619Y-117363904D01*
X124904619Y-117078190D02*
X125904619Y-117078190D01*
X125761761Y-117173428D01*
X125666523Y-117268666D01*
X125618904Y-117363904D01*
%TO.C,BT1*%
X137874428Y-128805714D02*
X137826809Y-128662857D01*
X137779190Y-128615238D01*
X137683952Y-128567619D01*
X137541095Y-128567619D01*
X137445857Y-128615238D01*
X137398238Y-128662857D01*
X137350619Y-128758095D01*
X137350619Y-129139047D01*
X138350619Y-129139047D01*
X138350619Y-128805714D01*
X138303000Y-128710476D01*
X138255380Y-128662857D01*
X138160142Y-128615238D01*
X138064904Y-128615238D01*
X137969666Y-128662857D01*
X137922047Y-128710476D01*
X137874428Y-128805714D01*
X137874428Y-129139047D01*
X138350619Y-128281904D02*
X138350619Y-127710476D01*
X137350619Y-127996190D02*
X138350619Y-127996190D01*
X137350619Y-126853333D02*
X137350619Y-127424761D01*
X137350619Y-127139047D02*
X138350619Y-127139047D01*
X138207761Y-127234285D01*
X138112523Y-127329523D01*
X138064904Y-127424761D01*
%TO.C,J1*%
X124674333Y-130012380D02*
X124674333Y-130726666D01*
X124721952Y-130869523D01*
X124817190Y-130964761D01*
X124960047Y-131012380D01*
X125055285Y-131012380D01*
X123674333Y-131012380D02*
X124245761Y-131012380D01*
X123960047Y-131012380D02*
X123960047Y-130012380D01*
X124055285Y-130155238D01*
X124150523Y-130250476D01*
X124245761Y-130298095D01*
%TO.C,BT1*%
X100274428Y-128805714D02*
X100226809Y-128662857D01*
X100179190Y-128615238D01*
X100083952Y-128567619D01*
X99941095Y-128567619D01*
X99845857Y-128615238D01*
X99798238Y-128662857D01*
X99750619Y-128758095D01*
X99750619Y-129139047D01*
X100750619Y-129139047D01*
X100750619Y-128805714D01*
X100703000Y-128710476D01*
X100655380Y-128662857D01*
X100560142Y-128615238D01*
X100464904Y-128615238D01*
X100369666Y-128662857D01*
X100322047Y-128710476D01*
X100274428Y-128805714D01*
X100274428Y-129139047D01*
X100750619Y-128281904D02*
X100750619Y-127710476D01*
X99750619Y-127996190D02*
X100750619Y-127996190D01*
X99750619Y-126853333D02*
X99750619Y-127424761D01*
X99750619Y-127139047D02*
X100750619Y-127139047D01*
X100607761Y-127234285D01*
X100512523Y-127329523D01*
X100464904Y-127424761D01*
%TO.C,J1*%
X87074333Y-130012380D02*
X87074333Y-130726666D01*
X87121952Y-130869523D01*
X87217190Y-130964761D01*
X87360047Y-131012380D01*
X87455285Y-131012380D01*
X86074333Y-131012380D02*
X86645761Y-131012380D01*
X86360047Y-131012380D02*
X86360047Y-130012380D01*
X86455285Y-130155238D01*
X86550523Y-130250476D01*
X86645761Y-130298095D01*
%TO.C,Q1*%
X106009380Y-117697238D02*
X106057000Y-117792476D01*
X106152238Y-117887714D01*
X106295095Y-118030571D01*
X106342714Y-118125809D01*
X106342714Y-118221047D01*
X106104619Y-118173428D02*
X106152238Y-118268666D01*
X106247476Y-118363904D01*
X106437952Y-118411523D01*
X106771285Y-118411523D01*
X106961761Y-118363904D01*
X107057000Y-118268666D01*
X107104619Y-118173428D01*
X107104619Y-117982952D01*
X107057000Y-117887714D01*
X106961761Y-117792476D01*
X106771285Y-117744857D01*
X106437952Y-117744857D01*
X106247476Y-117792476D01*
X106152238Y-117887714D01*
X106104619Y-117982952D01*
X106104619Y-118173428D01*
X106104619Y-116792476D02*
X106104619Y-117363904D01*
X106104619Y-117078190D02*
X107104619Y-117078190D01*
X106961761Y-117173428D01*
X106866523Y-117268666D01*
X106818904Y-117363904D01*
%TO.C,BT1*%
X137874428Y-110005714D02*
X137826809Y-109862857D01*
X137779190Y-109815238D01*
X137683952Y-109767619D01*
X137541095Y-109767619D01*
X137445857Y-109815238D01*
X137398238Y-109862857D01*
X137350619Y-109958095D01*
X137350619Y-110339047D01*
X138350619Y-110339047D01*
X138350619Y-110005714D01*
X138303000Y-109910476D01*
X138255380Y-109862857D01*
X138160142Y-109815238D01*
X138064904Y-109815238D01*
X137969666Y-109862857D01*
X137922047Y-109910476D01*
X137874428Y-110005714D01*
X137874428Y-110339047D01*
X138350619Y-109481904D02*
X138350619Y-108910476D01*
X137350619Y-109196190D02*
X138350619Y-109196190D01*
X137350619Y-108053333D02*
X137350619Y-108624761D01*
X137350619Y-108339047D02*
X138350619Y-108339047D01*
X138207761Y-108434285D01*
X138112523Y-108529523D01*
X138064904Y-108624761D01*
X119074428Y-110005714D02*
X119026809Y-109862857D01*
X118979190Y-109815238D01*
X118883952Y-109767619D01*
X118741095Y-109767619D01*
X118645857Y-109815238D01*
X118598238Y-109862857D01*
X118550619Y-109958095D01*
X118550619Y-110339047D01*
X119550619Y-110339047D01*
X119550619Y-110005714D01*
X119503000Y-109910476D01*
X119455380Y-109862857D01*
X119360142Y-109815238D01*
X119264904Y-109815238D01*
X119169666Y-109862857D01*
X119122047Y-109910476D01*
X119074428Y-110005714D01*
X119074428Y-110339047D01*
X119550619Y-109481904D02*
X119550619Y-108910476D01*
X118550619Y-109196190D02*
X119550619Y-109196190D01*
X118550619Y-108053333D02*
X118550619Y-108624761D01*
X118550619Y-108339047D02*
X119550619Y-108339047D01*
X119407761Y-108434285D01*
X119312523Y-108529523D01*
X119264904Y-108624761D01*
%TO.C,D2*%
X153023095Y-96963380D02*
X153023095Y-95963380D01*
X152785000Y-95963380D01*
X152642142Y-96011000D01*
X152546904Y-96106238D01*
X152499285Y-96201476D01*
X152451666Y-96391952D01*
X152451666Y-96534809D01*
X152499285Y-96725285D01*
X152546904Y-96820523D01*
X152642142Y-96915761D01*
X152785000Y-96963380D01*
X153023095Y-96963380D01*
X152070714Y-96058619D02*
X152023095Y-96011000D01*
X151927857Y-95963380D01*
X151689761Y-95963380D01*
X151594523Y-96011000D01*
X151546904Y-96058619D01*
X151499285Y-96153857D01*
X151499285Y-96249095D01*
X151546904Y-96391952D01*
X152118333Y-96963380D01*
X151499285Y-96963380D01*
X134223095Y-96963380D02*
X134223095Y-95963380D01*
X133985000Y-95963380D01*
X133842142Y-96011000D01*
X133746904Y-96106238D01*
X133699285Y-96201476D01*
X133651666Y-96391952D01*
X133651666Y-96534809D01*
X133699285Y-96725285D01*
X133746904Y-96820523D01*
X133842142Y-96915761D01*
X133985000Y-96963380D01*
X134223095Y-96963380D01*
X133270714Y-96058619D02*
X133223095Y-96011000D01*
X133127857Y-95963380D01*
X132889761Y-95963380D01*
X132794523Y-96011000D01*
X132746904Y-96058619D01*
X132699285Y-96153857D01*
X132699285Y-96249095D01*
X132746904Y-96391952D01*
X133318333Y-96963380D01*
X132699285Y-96963380D01*
X115423095Y-96963380D02*
X115423095Y-95963380D01*
X115185000Y-95963380D01*
X115042142Y-96011000D01*
X114946904Y-96106238D01*
X114899285Y-96201476D01*
X114851666Y-96391952D01*
X114851666Y-96534809D01*
X114899285Y-96725285D01*
X114946904Y-96820523D01*
X115042142Y-96915761D01*
X115185000Y-96963380D01*
X115423095Y-96963380D01*
X114470714Y-96058619D02*
X114423095Y-96011000D01*
X114327857Y-95963380D01*
X114089761Y-95963380D01*
X113994523Y-96011000D01*
X113946904Y-96058619D01*
X113899285Y-96153857D01*
X113899285Y-96249095D01*
X113946904Y-96391952D01*
X114518333Y-96963380D01*
X113899285Y-96963380D01*
X96623095Y-96963380D02*
X96623095Y-95963380D01*
X96385000Y-95963380D01*
X96242142Y-96011000D01*
X96146904Y-96106238D01*
X96099285Y-96201476D01*
X96051666Y-96391952D01*
X96051666Y-96534809D01*
X96099285Y-96725285D01*
X96146904Y-96820523D01*
X96242142Y-96915761D01*
X96385000Y-96963380D01*
X96623095Y-96963380D01*
X95670714Y-96058619D02*
X95623095Y-96011000D01*
X95527857Y-95963380D01*
X95289761Y-95963380D01*
X95194523Y-96011000D01*
X95146904Y-96058619D01*
X95099285Y-96153857D01*
X95099285Y-96249095D01*
X95146904Y-96391952D01*
X95718333Y-96963380D01*
X95099285Y-96963380D01*
X153023095Y-78163380D02*
X153023095Y-77163380D01*
X152785000Y-77163380D01*
X152642142Y-77211000D01*
X152546904Y-77306238D01*
X152499285Y-77401476D01*
X152451666Y-77591952D01*
X152451666Y-77734809D01*
X152499285Y-77925285D01*
X152546904Y-78020523D01*
X152642142Y-78115761D01*
X152785000Y-78163380D01*
X153023095Y-78163380D01*
X152070714Y-77258619D02*
X152023095Y-77211000D01*
X151927857Y-77163380D01*
X151689761Y-77163380D01*
X151594523Y-77211000D01*
X151546904Y-77258619D01*
X151499285Y-77353857D01*
X151499285Y-77449095D01*
X151546904Y-77591952D01*
X152118333Y-78163380D01*
X151499285Y-78163380D01*
X134223095Y-78163380D02*
X134223095Y-77163380D01*
X133985000Y-77163380D01*
X133842142Y-77211000D01*
X133746904Y-77306238D01*
X133699285Y-77401476D01*
X133651666Y-77591952D01*
X133651666Y-77734809D01*
X133699285Y-77925285D01*
X133746904Y-78020523D01*
X133842142Y-78115761D01*
X133985000Y-78163380D01*
X134223095Y-78163380D01*
X133270714Y-77258619D02*
X133223095Y-77211000D01*
X133127857Y-77163380D01*
X132889761Y-77163380D01*
X132794523Y-77211000D01*
X132746904Y-77258619D01*
X132699285Y-77353857D01*
X132699285Y-77449095D01*
X132746904Y-77591952D01*
X133318333Y-78163380D01*
X132699285Y-78163380D01*
X115423095Y-78163380D02*
X115423095Y-77163380D01*
X115185000Y-77163380D01*
X115042142Y-77211000D01*
X114946904Y-77306238D01*
X114899285Y-77401476D01*
X114851666Y-77591952D01*
X114851666Y-77734809D01*
X114899285Y-77925285D01*
X114946904Y-78020523D01*
X115042142Y-78115761D01*
X115185000Y-78163380D01*
X115423095Y-78163380D01*
X114470714Y-77258619D02*
X114423095Y-77211000D01*
X114327857Y-77163380D01*
X114089761Y-77163380D01*
X113994523Y-77211000D01*
X113946904Y-77258619D01*
X113899285Y-77353857D01*
X113899285Y-77449095D01*
X113946904Y-77591952D01*
X114518333Y-78163380D01*
X113899285Y-78163380D01*
%TO.C,R2*%
X154474666Y-92149380D02*
X154808000Y-91673190D01*
X155046095Y-92149380D02*
X155046095Y-91149380D01*
X154665142Y-91149380D01*
X154569904Y-91197000D01*
X154522285Y-91244619D01*
X154474666Y-91339857D01*
X154474666Y-91482714D01*
X154522285Y-91577952D01*
X154569904Y-91625571D01*
X154665142Y-91673190D01*
X155046095Y-91673190D01*
X154093714Y-91244619D02*
X154046095Y-91197000D01*
X153950857Y-91149380D01*
X153712761Y-91149380D01*
X153617523Y-91197000D01*
X153569904Y-91244619D01*
X153522285Y-91339857D01*
X153522285Y-91435095D01*
X153569904Y-91577952D01*
X154141333Y-92149380D01*
X153522285Y-92149380D01*
X135674666Y-92149380D02*
X136008000Y-91673190D01*
X136246095Y-92149380D02*
X136246095Y-91149380D01*
X135865142Y-91149380D01*
X135769904Y-91197000D01*
X135722285Y-91244619D01*
X135674666Y-91339857D01*
X135674666Y-91482714D01*
X135722285Y-91577952D01*
X135769904Y-91625571D01*
X135865142Y-91673190D01*
X136246095Y-91673190D01*
X135293714Y-91244619D02*
X135246095Y-91197000D01*
X135150857Y-91149380D01*
X134912761Y-91149380D01*
X134817523Y-91197000D01*
X134769904Y-91244619D01*
X134722285Y-91339857D01*
X134722285Y-91435095D01*
X134769904Y-91577952D01*
X135341333Y-92149380D01*
X134722285Y-92149380D01*
X116874666Y-92149380D02*
X117208000Y-91673190D01*
X117446095Y-92149380D02*
X117446095Y-91149380D01*
X117065142Y-91149380D01*
X116969904Y-91197000D01*
X116922285Y-91244619D01*
X116874666Y-91339857D01*
X116874666Y-91482714D01*
X116922285Y-91577952D01*
X116969904Y-91625571D01*
X117065142Y-91673190D01*
X117446095Y-91673190D01*
X116493714Y-91244619D02*
X116446095Y-91197000D01*
X116350857Y-91149380D01*
X116112761Y-91149380D01*
X116017523Y-91197000D01*
X115969904Y-91244619D01*
X115922285Y-91339857D01*
X115922285Y-91435095D01*
X115969904Y-91577952D01*
X116541333Y-92149380D01*
X115922285Y-92149380D01*
X98074666Y-92149380D02*
X98408000Y-91673190D01*
X98646095Y-92149380D02*
X98646095Y-91149380D01*
X98265142Y-91149380D01*
X98169904Y-91197000D01*
X98122285Y-91244619D01*
X98074666Y-91339857D01*
X98074666Y-91482714D01*
X98122285Y-91577952D01*
X98169904Y-91625571D01*
X98265142Y-91673190D01*
X98646095Y-91673190D01*
X97693714Y-91244619D02*
X97646095Y-91197000D01*
X97550857Y-91149380D01*
X97312761Y-91149380D01*
X97217523Y-91197000D01*
X97169904Y-91244619D01*
X97122285Y-91339857D01*
X97122285Y-91435095D01*
X97169904Y-91577952D01*
X97741333Y-92149380D01*
X97122285Y-92149380D01*
X154474666Y-73349380D02*
X154808000Y-72873190D01*
X155046095Y-73349380D02*
X155046095Y-72349380D01*
X154665142Y-72349380D01*
X154569904Y-72397000D01*
X154522285Y-72444619D01*
X154474666Y-72539857D01*
X154474666Y-72682714D01*
X154522285Y-72777952D01*
X154569904Y-72825571D01*
X154665142Y-72873190D01*
X155046095Y-72873190D01*
X154093714Y-72444619D02*
X154046095Y-72397000D01*
X153950857Y-72349380D01*
X153712761Y-72349380D01*
X153617523Y-72397000D01*
X153569904Y-72444619D01*
X153522285Y-72539857D01*
X153522285Y-72635095D01*
X153569904Y-72777952D01*
X154141333Y-73349380D01*
X153522285Y-73349380D01*
X135674666Y-73349380D02*
X136008000Y-72873190D01*
X136246095Y-73349380D02*
X136246095Y-72349380D01*
X135865142Y-72349380D01*
X135769904Y-72397000D01*
X135722285Y-72444619D01*
X135674666Y-72539857D01*
X135674666Y-72682714D01*
X135722285Y-72777952D01*
X135769904Y-72825571D01*
X135865142Y-72873190D01*
X136246095Y-72873190D01*
X135293714Y-72444619D02*
X135246095Y-72397000D01*
X135150857Y-72349380D01*
X134912761Y-72349380D01*
X134817523Y-72397000D01*
X134769904Y-72444619D01*
X134722285Y-72539857D01*
X134722285Y-72635095D01*
X134769904Y-72777952D01*
X135341333Y-73349380D01*
X134722285Y-73349380D01*
X116874666Y-73349380D02*
X117208000Y-72873190D01*
X117446095Y-73349380D02*
X117446095Y-72349380D01*
X117065142Y-72349380D01*
X116969904Y-72397000D01*
X116922285Y-72444619D01*
X116874666Y-72539857D01*
X116874666Y-72682714D01*
X116922285Y-72777952D01*
X116969904Y-72825571D01*
X117065142Y-72873190D01*
X117446095Y-72873190D01*
X116493714Y-72444619D02*
X116446095Y-72397000D01*
X116350857Y-72349380D01*
X116112761Y-72349380D01*
X116017523Y-72397000D01*
X115969904Y-72444619D01*
X115922285Y-72539857D01*
X115922285Y-72635095D01*
X115969904Y-72777952D01*
X116541333Y-73349380D01*
X115922285Y-73349380D01*
%TO.C,Q1*%
X143609380Y-93952238D02*
X143657000Y-94047476D01*
X143752238Y-94142714D01*
X143895095Y-94285571D01*
X143942714Y-94380809D01*
X143942714Y-94476047D01*
X143704619Y-94428428D02*
X143752238Y-94523666D01*
X143847476Y-94618904D01*
X144037952Y-94666523D01*
X144371285Y-94666523D01*
X144561761Y-94618904D01*
X144657000Y-94523666D01*
X144704619Y-94428428D01*
X144704619Y-94237952D01*
X144657000Y-94142714D01*
X144561761Y-94047476D01*
X144371285Y-93999857D01*
X144037952Y-93999857D01*
X143847476Y-94047476D01*
X143752238Y-94142714D01*
X143704619Y-94237952D01*
X143704619Y-94428428D01*
X143704619Y-93047476D02*
X143704619Y-93618904D01*
X143704619Y-93333190D02*
X144704619Y-93333190D01*
X144561761Y-93428428D01*
X144466523Y-93523666D01*
X144418904Y-93618904D01*
X124809380Y-93952238D02*
X124857000Y-94047476D01*
X124952238Y-94142714D01*
X125095095Y-94285571D01*
X125142714Y-94380809D01*
X125142714Y-94476047D01*
X124904619Y-94428428D02*
X124952238Y-94523666D01*
X125047476Y-94618904D01*
X125237952Y-94666523D01*
X125571285Y-94666523D01*
X125761761Y-94618904D01*
X125857000Y-94523666D01*
X125904619Y-94428428D01*
X125904619Y-94237952D01*
X125857000Y-94142714D01*
X125761761Y-94047476D01*
X125571285Y-93999857D01*
X125237952Y-93999857D01*
X125047476Y-94047476D01*
X124952238Y-94142714D01*
X124904619Y-94237952D01*
X124904619Y-94428428D01*
X124904619Y-93047476D02*
X124904619Y-93618904D01*
X124904619Y-93333190D02*
X125904619Y-93333190D01*
X125761761Y-93428428D01*
X125666523Y-93523666D01*
X125618904Y-93618904D01*
X106009380Y-93952238D02*
X106057000Y-94047476D01*
X106152238Y-94142714D01*
X106295095Y-94285571D01*
X106342714Y-94380809D01*
X106342714Y-94476047D01*
X106104619Y-94428428D02*
X106152238Y-94523666D01*
X106247476Y-94618904D01*
X106437952Y-94666523D01*
X106771285Y-94666523D01*
X106961761Y-94618904D01*
X107057000Y-94523666D01*
X107104619Y-94428428D01*
X107104619Y-94237952D01*
X107057000Y-94142714D01*
X106961761Y-94047476D01*
X106771285Y-93999857D01*
X106437952Y-93999857D01*
X106247476Y-94047476D01*
X106152238Y-94142714D01*
X106104619Y-94237952D01*
X106104619Y-94428428D01*
X106104619Y-93047476D02*
X106104619Y-93618904D01*
X106104619Y-93333190D02*
X107104619Y-93333190D01*
X106961761Y-93428428D01*
X106866523Y-93523666D01*
X106818904Y-93618904D01*
X87209380Y-93952238D02*
X87257000Y-94047476D01*
X87352238Y-94142714D01*
X87495095Y-94285571D01*
X87542714Y-94380809D01*
X87542714Y-94476047D01*
X87304619Y-94428428D02*
X87352238Y-94523666D01*
X87447476Y-94618904D01*
X87637952Y-94666523D01*
X87971285Y-94666523D01*
X88161761Y-94618904D01*
X88257000Y-94523666D01*
X88304619Y-94428428D01*
X88304619Y-94237952D01*
X88257000Y-94142714D01*
X88161761Y-94047476D01*
X87971285Y-93999857D01*
X87637952Y-93999857D01*
X87447476Y-94047476D01*
X87352238Y-94142714D01*
X87304619Y-94237952D01*
X87304619Y-94428428D01*
X87304619Y-93047476D02*
X87304619Y-93618904D01*
X87304619Y-93333190D02*
X88304619Y-93333190D01*
X88161761Y-93428428D01*
X88066523Y-93523666D01*
X88018904Y-93618904D01*
X143609380Y-75152238D02*
X143657000Y-75247476D01*
X143752238Y-75342714D01*
X143895095Y-75485571D01*
X143942714Y-75580809D01*
X143942714Y-75676047D01*
X143704619Y-75628428D02*
X143752238Y-75723666D01*
X143847476Y-75818904D01*
X144037952Y-75866523D01*
X144371285Y-75866523D01*
X144561761Y-75818904D01*
X144657000Y-75723666D01*
X144704619Y-75628428D01*
X144704619Y-75437952D01*
X144657000Y-75342714D01*
X144561761Y-75247476D01*
X144371285Y-75199857D01*
X144037952Y-75199857D01*
X143847476Y-75247476D01*
X143752238Y-75342714D01*
X143704619Y-75437952D01*
X143704619Y-75628428D01*
X143704619Y-74247476D02*
X143704619Y-74818904D01*
X143704619Y-74533190D02*
X144704619Y-74533190D01*
X144561761Y-74628428D01*
X144466523Y-74723666D01*
X144418904Y-74818904D01*
X124809380Y-75152238D02*
X124857000Y-75247476D01*
X124952238Y-75342714D01*
X125095095Y-75485571D01*
X125142714Y-75580809D01*
X125142714Y-75676047D01*
X124904619Y-75628428D02*
X124952238Y-75723666D01*
X125047476Y-75818904D01*
X125237952Y-75866523D01*
X125571285Y-75866523D01*
X125761761Y-75818904D01*
X125857000Y-75723666D01*
X125904619Y-75628428D01*
X125904619Y-75437952D01*
X125857000Y-75342714D01*
X125761761Y-75247476D01*
X125571285Y-75199857D01*
X125237952Y-75199857D01*
X125047476Y-75247476D01*
X124952238Y-75342714D01*
X124904619Y-75437952D01*
X124904619Y-75628428D01*
X124904619Y-74247476D02*
X124904619Y-74818904D01*
X124904619Y-74533190D02*
X125904619Y-74533190D01*
X125761761Y-74628428D01*
X125666523Y-74723666D01*
X125618904Y-74818904D01*
X106009380Y-75152238D02*
X106057000Y-75247476D01*
X106152238Y-75342714D01*
X106295095Y-75485571D01*
X106342714Y-75580809D01*
X106342714Y-75676047D01*
X106104619Y-75628428D02*
X106152238Y-75723666D01*
X106247476Y-75818904D01*
X106437952Y-75866523D01*
X106771285Y-75866523D01*
X106961761Y-75818904D01*
X107057000Y-75723666D01*
X107104619Y-75628428D01*
X107104619Y-75437952D01*
X107057000Y-75342714D01*
X106961761Y-75247476D01*
X106771285Y-75199857D01*
X106437952Y-75199857D01*
X106247476Y-75247476D01*
X106152238Y-75342714D01*
X106104619Y-75437952D01*
X106104619Y-75628428D01*
X106104619Y-74247476D02*
X106104619Y-74818904D01*
X106104619Y-74533190D02*
X107104619Y-74533190D01*
X106961761Y-74628428D01*
X106866523Y-74723666D01*
X106818904Y-74818904D01*
%TO.C,BT1*%
X156674428Y-86260714D02*
X156626809Y-86117857D01*
X156579190Y-86070238D01*
X156483952Y-86022619D01*
X156341095Y-86022619D01*
X156245857Y-86070238D01*
X156198238Y-86117857D01*
X156150619Y-86213095D01*
X156150619Y-86594047D01*
X157150619Y-86594047D01*
X157150619Y-86260714D01*
X157103000Y-86165476D01*
X157055380Y-86117857D01*
X156960142Y-86070238D01*
X156864904Y-86070238D01*
X156769666Y-86117857D01*
X156722047Y-86165476D01*
X156674428Y-86260714D01*
X156674428Y-86594047D01*
X157150619Y-85736904D02*
X157150619Y-85165476D01*
X156150619Y-85451190D02*
X157150619Y-85451190D01*
X156150619Y-84308333D02*
X156150619Y-84879761D01*
X156150619Y-84594047D02*
X157150619Y-84594047D01*
X157007761Y-84689285D01*
X156912523Y-84784523D01*
X156864904Y-84879761D01*
X137874428Y-86260714D02*
X137826809Y-86117857D01*
X137779190Y-86070238D01*
X137683952Y-86022619D01*
X137541095Y-86022619D01*
X137445857Y-86070238D01*
X137398238Y-86117857D01*
X137350619Y-86213095D01*
X137350619Y-86594047D01*
X138350619Y-86594047D01*
X138350619Y-86260714D01*
X138303000Y-86165476D01*
X138255380Y-86117857D01*
X138160142Y-86070238D01*
X138064904Y-86070238D01*
X137969666Y-86117857D01*
X137922047Y-86165476D01*
X137874428Y-86260714D01*
X137874428Y-86594047D01*
X138350619Y-85736904D02*
X138350619Y-85165476D01*
X137350619Y-85451190D02*
X138350619Y-85451190D01*
X137350619Y-84308333D02*
X137350619Y-84879761D01*
X137350619Y-84594047D02*
X138350619Y-84594047D01*
X138207761Y-84689285D01*
X138112523Y-84784523D01*
X138064904Y-84879761D01*
X119074428Y-86260714D02*
X119026809Y-86117857D01*
X118979190Y-86070238D01*
X118883952Y-86022619D01*
X118741095Y-86022619D01*
X118645857Y-86070238D01*
X118598238Y-86117857D01*
X118550619Y-86213095D01*
X118550619Y-86594047D01*
X119550619Y-86594047D01*
X119550619Y-86260714D01*
X119503000Y-86165476D01*
X119455380Y-86117857D01*
X119360142Y-86070238D01*
X119264904Y-86070238D01*
X119169666Y-86117857D01*
X119122047Y-86165476D01*
X119074428Y-86260714D01*
X119074428Y-86594047D01*
X119550619Y-85736904D02*
X119550619Y-85165476D01*
X118550619Y-85451190D02*
X119550619Y-85451190D01*
X118550619Y-84308333D02*
X118550619Y-84879761D01*
X118550619Y-84594047D02*
X119550619Y-84594047D01*
X119407761Y-84689285D01*
X119312523Y-84784523D01*
X119264904Y-84879761D01*
X100274428Y-86260714D02*
X100226809Y-86117857D01*
X100179190Y-86070238D01*
X100083952Y-86022619D01*
X99941095Y-86022619D01*
X99845857Y-86070238D01*
X99798238Y-86117857D01*
X99750619Y-86213095D01*
X99750619Y-86594047D01*
X100750619Y-86594047D01*
X100750619Y-86260714D01*
X100703000Y-86165476D01*
X100655380Y-86117857D01*
X100560142Y-86070238D01*
X100464904Y-86070238D01*
X100369666Y-86117857D01*
X100322047Y-86165476D01*
X100274428Y-86260714D01*
X100274428Y-86594047D01*
X100750619Y-85736904D02*
X100750619Y-85165476D01*
X99750619Y-85451190D02*
X100750619Y-85451190D01*
X99750619Y-84308333D02*
X99750619Y-84879761D01*
X99750619Y-84594047D02*
X100750619Y-84594047D01*
X100607761Y-84689285D01*
X100512523Y-84784523D01*
X100464904Y-84879761D01*
X156674428Y-67460714D02*
X156626809Y-67317857D01*
X156579190Y-67270238D01*
X156483952Y-67222619D01*
X156341095Y-67222619D01*
X156245857Y-67270238D01*
X156198238Y-67317857D01*
X156150619Y-67413095D01*
X156150619Y-67794047D01*
X157150619Y-67794047D01*
X157150619Y-67460714D01*
X157103000Y-67365476D01*
X157055380Y-67317857D01*
X156960142Y-67270238D01*
X156864904Y-67270238D01*
X156769666Y-67317857D01*
X156722047Y-67365476D01*
X156674428Y-67460714D01*
X156674428Y-67794047D01*
X157150619Y-66936904D02*
X157150619Y-66365476D01*
X156150619Y-66651190D02*
X157150619Y-66651190D01*
X156150619Y-65508333D02*
X156150619Y-66079761D01*
X156150619Y-65794047D02*
X157150619Y-65794047D01*
X157007761Y-65889285D01*
X156912523Y-65984523D01*
X156864904Y-66079761D01*
X137874428Y-67460714D02*
X137826809Y-67317857D01*
X137779190Y-67270238D01*
X137683952Y-67222619D01*
X137541095Y-67222619D01*
X137445857Y-67270238D01*
X137398238Y-67317857D01*
X137350619Y-67413095D01*
X137350619Y-67794047D01*
X138350619Y-67794047D01*
X138350619Y-67460714D01*
X138303000Y-67365476D01*
X138255380Y-67317857D01*
X138160142Y-67270238D01*
X138064904Y-67270238D01*
X137969666Y-67317857D01*
X137922047Y-67365476D01*
X137874428Y-67460714D01*
X137874428Y-67794047D01*
X138350619Y-66936904D02*
X138350619Y-66365476D01*
X137350619Y-66651190D02*
X138350619Y-66651190D01*
X137350619Y-65508333D02*
X137350619Y-66079761D01*
X137350619Y-65794047D02*
X138350619Y-65794047D01*
X138207761Y-65889285D01*
X138112523Y-65984523D01*
X138064904Y-66079761D01*
X119074428Y-67460714D02*
X119026809Y-67317857D01*
X118979190Y-67270238D01*
X118883952Y-67222619D01*
X118741095Y-67222619D01*
X118645857Y-67270238D01*
X118598238Y-67317857D01*
X118550619Y-67413095D01*
X118550619Y-67794047D01*
X119550619Y-67794047D01*
X119550619Y-67460714D01*
X119503000Y-67365476D01*
X119455380Y-67317857D01*
X119360142Y-67270238D01*
X119264904Y-67270238D01*
X119169666Y-67317857D01*
X119122047Y-67365476D01*
X119074428Y-67460714D01*
X119074428Y-67794047D01*
X119550619Y-66936904D02*
X119550619Y-66365476D01*
X118550619Y-66651190D02*
X119550619Y-66651190D01*
X118550619Y-65508333D02*
X118550619Y-66079761D01*
X118550619Y-65794047D02*
X119550619Y-65794047D01*
X119407761Y-65889285D01*
X119312523Y-65984523D01*
X119264904Y-66079761D01*
%TO.C,J1*%
X143474333Y-87467380D02*
X143474333Y-88181666D01*
X143521952Y-88324523D01*
X143617190Y-88419761D01*
X143760047Y-88467380D01*
X143855285Y-88467380D01*
X142474333Y-88467380D02*
X143045761Y-88467380D01*
X142760047Y-88467380D02*
X142760047Y-87467380D01*
X142855285Y-87610238D01*
X142950523Y-87705476D01*
X143045761Y-87753095D01*
X124674333Y-87467380D02*
X124674333Y-88181666D01*
X124721952Y-88324523D01*
X124817190Y-88419761D01*
X124960047Y-88467380D01*
X125055285Y-88467380D01*
X123674333Y-88467380D02*
X124245761Y-88467380D01*
X123960047Y-88467380D02*
X123960047Y-87467380D01*
X124055285Y-87610238D01*
X124150523Y-87705476D01*
X124245761Y-87753095D01*
X105874333Y-87467380D02*
X105874333Y-88181666D01*
X105921952Y-88324523D01*
X106017190Y-88419761D01*
X106160047Y-88467380D01*
X106255285Y-88467380D01*
X104874333Y-88467380D02*
X105445761Y-88467380D01*
X105160047Y-88467380D02*
X105160047Y-87467380D01*
X105255285Y-87610238D01*
X105350523Y-87705476D01*
X105445761Y-87753095D01*
X87074333Y-87467380D02*
X87074333Y-88181666D01*
X87121952Y-88324523D01*
X87217190Y-88419761D01*
X87360047Y-88467380D01*
X87455285Y-88467380D01*
X86074333Y-88467380D02*
X86645761Y-88467380D01*
X86360047Y-88467380D02*
X86360047Y-87467380D01*
X86455285Y-87610238D01*
X86550523Y-87705476D01*
X86645761Y-87753095D01*
X143474333Y-68667380D02*
X143474333Y-69381666D01*
X143521952Y-69524523D01*
X143617190Y-69619761D01*
X143760047Y-69667380D01*
X143855285Y-69667380D01*
X142474333Y-69667380D02*
X143045761Y-69667380D01*
X142760047Y-69667380D02*
X142760047Y-68667380D01*
X142855285Y-68810238D01*
X142950523Y-68905476D01*
X143045761Y-68953095D01*
X124674333Y-68667380D02*
X124674333Y-69381666D01*
X124721952Y-69524523D01*
X124817190Y-69619761D01*
X124960047Y-69667380D01*
X125055285Y-69667380D01*
X123674333Y-69667380D02*
X124245761Y-69667380D01*
X123960047Y-69667380D02*
X123960047Y-68667380D01*
X124055285Y-68810238D01*
X124150523Y-68905476D01*
X124245761Y-68953095D01*
X105874333Y-68667380D02*
X105874333Y-69381666D01*
X105921952Y-69524523D01*
X106017190Y-69619761D01*
X106160047Y-69667380D01*
X106255285Y-69667380D01*
X104874333Y-69667380D02*
X105445761Y-69667380D01*
X105160047Y-69667380D02*
X105160047Y-68667380D01*
X105255285Y-68810238D01*
X105350523Y-68905476D01*
X105445761Y-68953095D01*
%TO.C,U1*%
X149998904Y-83657380D02*
X149998904Y-84466904D01*
X149951285Y-84562142D01*
X149903666Y-84609761D01*
X149808428Y-84657380D01*
X149617952Y-84657380D01*
X149522714Y-84609761D01*
X149475095Y-84562142D01*
X149427476Y-84466904D01*
X149427476Y-83657380D01*
X148427476Y-84657380D02*
X148998904Y-84657380D01*
X148713190Y-84657380D02*
X148713190Y-83657380D01*
X148808428Y-83800238D01*
X148903666Y-83895476D01*
X148998904Y-83943095D01*
X131198904Y-83657380D02*
X131198904Y-84466904D01*
X131151285Y-84562142D01*
X131103666Y-84609761D01*
X131008428Y-84657380D01*
X130817952Y-84657380D01*
X130722714Y-84609761D01*
X130675095Y-84562142D01*
X130627476Y-84466904D01*
X130627476Y-83657380D01*
X129627476Y-84657380D02*
X130198904Y-84657380D01*
X129913190Y-84657380D02*
X129913190Y-83657380D01*
X130008428Y-83800238D01*
X130103666Y-83895476D01*
X130198904Y-83943095D01*
X112398904Y-83657380D02*
X112398904Y-84466904D01*
X112351285Y-84562142D01*
X112303666Y-84609761D01*
X112208428Y-84657380D01*
X112017952Y-84657380D01*
X111922714Y-84609761D01*
X111875095Y-84562142D01*
X111827476Y-84466904D01*
X111827476Y-83657380D01*
X110827476Y-84657380D02*
X111398904Y-84657380D01*
X111113190Y-84657380D02*
X111113190Y-83657380D01*
X111208428Y-83800238D01*
X111303666Y-83895476D01*
X111398904Y-83943095D01*
X93598904Y-83657380D02*
X93598904Y-84466904D01*
X93551285Y-84562142D01*
X93503666Y-84609761D01*
X93408428Y-84657380D01*
X93217952Y-84657380D01*
X93122714Y-84609761D01*
X93075095Y-84562142D01*
X93027476Y-84466904D01*
X93027476Y-83657380D01*
X92027476Y-84657380D02*
X92598904Y-84657380D01*
X92313190Y-84657380D02*
X92313190Y-83657380D01*
X92408428Y-83800238D01*
X92503666Y-83895476D01*
X92598904Y-83943095D01*
X149998904Y-64857380D02*
X149998904Y-65666904D01*
X149951285Y-65762142D01*
X149903666Y-65809761D01*
X149808428Y-65857380D01*
X149617952Y-65857380D01*
X149522714Y-65809761D01*
X149475095Y-65762142D01*
X149427476Y-65666904D01*
X149427476Y-64857380D01*
X148427476Y-65857380D02*
X148998904Y-65857380D01*
X148713190Y-65857380D02*
X148713190Y-64857380D01*
X148808428Y-65000238D01*
X148903666Y-65095476D01*
X148998904Y-65143095D01*
X131198904Y-64857380D02*
X131198904Y-65666904D01*
X131151285Y-65762142D01*
X131103666Y-65809761D01*
X131008428Y-65857380D01*
X130817952Y-65857380D01*
X130722714Y-65809761D01*
X130675095Y-65762142D01*
X130627476Y-65666904D01*
X130627476Y-64857380D01*
X129627476Y-65857380D02*
X130198904Y-65857380D01*
X129913190Y-65857380D02*
X129913190Y-64857380D01*
X130008428Y-65000238D01*
X130103666Y-65095476D01*
X130198904Y-65143095D01*
X112398904Y-64857380D02*
X112398904Y-65666904D01*
X112351285Y-65762142D01*
X112303666Y-65809761D01*
X112208428Y-65857380D01*
X112017952Y-65857380D01*
X111922714Y-65809761D01*
X111875095Y-65762142D01*
X111827476Y-65666904D01*
X111827476Y-64857380D01*
X110827476Y-65857380D02*
X111398904Y-65857380D01*
X111113190Y-65857380D02*
X111113190Y-64857380D01*
X111208428Y-65000238D01*
X111303666Y-65095476D01*
X111398904Y-65143095D01*
%TO.C,R1*%
X154643380Y-80736333D02*
X154167190Y-80403000D01*
X154643380Y-80164904D02*
X153643380Y-80164904D01*
X153643380Y-80545857D01*
X153691000Y-80641095D01*
X153738619Y-80688714D01*
X153833857Y-80736333D01*
X153976714Y-80736333D01*
X154071952Y-80688714D01*
X154119571Y-80641095D01*
X154167190Y-80545857D01*
X154167190Y-80164904D01*
X154643380Y-81688714D02*
X154643380Y-81117285D01*
X154643380Y-81403000D02*
X153643380Y-81403000D01*
X153786238Y-81307761D01*
X153881476Y-81212523D01*
X153929095Y-81117285D01*
X135843380Y-80736333D02*
X135367190Y-80403000D01*
X135843380Y-80164904D02*
X134843380Y-80164904D01*
X134843380Y-80545857D01*
X134891000Y-80641095D01*
X134938619Y-80688714D01*
X135033857Y-80736333D01*
X135176714Y-80736333D01*
X135271952Y-80688714D01*
X135319571Y-80641095D01*
X135367190Y-80545857D01*
X135367190Y-80164904D01*
X135843380Y-81688714D02*
X135843380Y-81117285D01*
X135843380Y-81403000D02*
X134843380Y-81403000D01*
X134986238Y-81307761D01*
X135081476Y-81212523D01*
X135129095Y-81117285D01*
X117043380Y-80736333D02*
X116567190Y-80403000D01*
X117043380Y-80164904D02*
X116043380Y-80164904D01*
X116043380Y-80545857D01*
X116091000Y-80641095D01*
X116138619Y-80688714D01*
X116233857Y-80736333D01*
X116376714Y-80736333D01*
X116471952Y-80688714D01*
X116519571Y-80641095D01*
X116567190Y-80545857D01*
X116567190Y-80164904D01*
X117043380Y-81688714D02*
X117043380Y-81117285D01*
X117043380Y-81403000D02*
X116043380Y-81403000D01*
X116186238Y-81307761D01*
X116281476Y-81212523D01*
X116329095Y-81117285D01*
X98243380Y-80736333D02*
X97767190Y-80403000D01*
X98243380Y-80164904D02*
X97243380Y-80164904D01*
X97243380Y-80545857D01*
X97291000Y-80641095D01*
X97338619Y-80688714D01*
X97433857Y-80736333D01*
X97576714Y-80736333D01*
X97671952Y-80688714D01*
X97719571Y-80641095D01*
X97767190Y-80545857D01*
X97767190Y-80164904D01*
X98243380Y-81688714D02*
X98243380Y-81117285D01*
X98243380Y-81403000D02*
X97243380Y-81403000D01*
X97386238Y-81307761D01*
X97481476Y-81212523D01*
X97529095Y-81117285D01*
X154643380Y-61936333D02*
X154167190Y-61603000D01*
X154643380Y-61364904D02*
X153643380Y-61364904D01*
X153643380Y-61745857D01*
X153691000Y-61841095D01*
X153738619Y-61888714D01*
X153833857Y-61936333D01*
X153976714Y-61936333D01*
X154071952Y-61888714D01*
X154119571Y-61841095D01*
X154167190Y-61745857D01*
X154167190Y-61364904D01*
X154643380Y-62888714D02*
X154643380Y-62317285D01*
X154643380Y-62603000D02*
X153643380Y-62603000D01*
X153786238Y-62507761D01*
X153881476Y-62412523D01*
X153929095Y-62317285D01*
X135843380Y-61936333D02*
X135367190Y-61603000D01*
X135843380Y-61364904D02*
X134843380Y-61364904D01*
X134843380Y-61745857D01*
X134891000Y-61841095D01*
X134938619Y-61888714D01*
X135033857Y-61936333D01*
X135176714Y-61936333D01*
X135271952Y-61888714D01*
X135319571Y-61841095D01*
X135367190Y-61745857D01*
X135367190Y-61364904D01*
X135843380Y-62888714D02*
X135843380Y-62317285D01*
X135843380Y-62603000D02*
X134843380Y-62603000D01*
X134986238Y-62507761D01*
X135081476Y-62412523D01*
X135129095Y-62317285D01*
X117043380Y-61936333D02*
X116567190Y-61603000D01*
X117043380Y-61364904D02*
X116043380Y-61364904D01*
X116043380Y-61745857D01*
X116091000Y-61841095D01*
X116138619Y-61888714D01*
X116233857Y-61936333D01*
X116376714Y-61936333D01*
X116471952Y-61888714D01*
X116519571Y-61841095D01*
X116567190Y-61745857D01*
X116567190Y-61364904D01*
X117043380Y-62888714D02*
X117043380Y-62317285D01*
X117043380Y-62603000D02*
X116043380Y-62603000D01*
X116186238Y-62507761D01*
X116281476Y-62412523D01*
X116329095Y-62317285D01*
%TO.C,Q1*%
X87209380Y-75152238D02*
X87257000Y-75247476D01*
X87352238Y-75342714D01*
X87495095Y-75485571D01*
X87542714Y-75580809D01*
X87542714Y-75676047D01*
X87304619Y-75628428D02*
X87352238Y-75723666D01*
X87447476Y-75818904D01*
X87637952Y-75866523D01*
X87971285Y-75866523D01*
X88161761Y-75818904D01*
X88257000Y-75723666D01*
X88304619Y-75628428D01*
X88304619Y-75437952D01*
X88257000Y-75342714D01*
X88161761Y-75247476D01*
X87971285Y-75199857D01*
X87637952Y-75199857D01*
X87447476Y-75247476D01*
X87352238Y-75342714D01*
X87304619Y-75437952D01*
X87304619Y-75628428D01*
X87304619Y-74247476D02*
X87304619Y-74818904D01*
X87304619Y-74533190D02*
X88304619Y-74533190D01*
X88161761Y-74628428D01*
X88066523Y-74723666D01*
X88018904Y-74818904D01*
%TO.C,U1*%
X93598904Y-64857380D02*
X93598904Y-65666904D01*
X93551285Y-65762142D01*
X93503666Y-65809761D01*
X93408428Y-65857380D01*
X93217952Y-65857380D01*
X93122714Y-65809761D01*
X93075095Y-65762142D01*
X93027476Y-65666904D01*
X93027476Y-64857380D01*
X92027476Y-65857380D02*
X92598904Y-65857380D01*
X92313190Y-65857380D02*
X92313190Y-64857380D01*
X92408428Y-65000238D01*
X92503666Y-65095476D01*
X92598904Y-65143095D01*
%TO.C,BT1*%
X100274428Y-67460714D02*
X100226809Y-67317857D01*
X100179190Y-67270238D01*
X100083952Y-67222619D01*
X99941095Y-67222619D01*
X99845857Y-67270238D01*
X99798238Y-67317857D01*
X99750619Y-67413095D01*
X99750619Y-67794047D01*
X100750619Y-67794047D01*
X100750619Y-67460714D01*
X100703000Y-67365476D01*
X100655380Y-67317857D01*
X100560142Y-67270238D01*
X100464904Y-67270238D01*
X100369666Y-67317857D01*
X100322047Y-67365476D01*
X100274428Y-67460714D01*
X100274428Y-67794047D01*
X100750619Y-66936904D02*
X100750619Y-66365476D01*
X99750619Y-66651190D02*
X100750619Y-66651190D01*
X99750619Y-65508333D02*
X99750619Y-66079761D01*
X99750619Y-65794047D02*
X100750619Y-65794047D01*
X100607761Y-65889285D01*
X100512523Y-65984523D01*
X100464904Y-66079761D01*
%TO.C,J1*%
X87074333Y-68667380D02*
X87074333Y-69381666D01*
X87121952Y-69524523D01*
X87217190Y-69619761D01*
X87360047Y-69667380D01*
X87455285Y-69667380D01*
X86074333Y-69667380D02*
X86645761Y-69667380D01*
X86360047Y-69667380D02*
X86360047Y-68667380D01*
X86455285Y-68810238D01*
X86550523Y-68905476D01*
X86645761Y-68953095D01*
%TO.C,R1*%
X98243380Y-61936333D02*
X97767190Y-61603000D01*
X98243380Y-61364904D02*
X97243380Y-61364904D01*
X97243380Y-61745857D01*
X97291000Y-61841095D01*
X97338619Y-61888714D01*
X97433857Y-61936333D01*
X97576714Y-61936333D01*
X97671952Y-61888714D01*
X97719571Y-61841095D01*
X97767190Y-61745857D01*
X97767190Y-61364904D01*
X98243380Y-62888714D02*
X98243380Y-62317285D01*
X98243380Y-62603000D02*
X97243380Y-62603000D01*
X97386238Y-62507761D01*
X97481476Y-62412523D01*
X97529095Y-62317285D01*
%TO.C,D2*%
X96623095Y-78163380D02*
X96623095Y-77163380D01*
X96385000Y-77163380D01*
X96242142Y-77211000D01*
X96146904Y-77306238D01*
X96099285Y-77401476D01*
X96051666Y-77591952D01*
X96051666Y-77734809D01*
X96099285Y-77925285D01*
X96146904Y-78020523D01*
X96242142Y-78115761D01*
X96385000Y-78163380D01*
X96623095Y-78163380D01*
X95670714Y-77258619D02*
X95623095Y-77211000D01*
X95527857Y-77163380D01*
X95289761Y-77163380D01*
X95194523Y-77211000D01*
X95146904Y-77258619D01*
X95099285Y-77353857D01*
X95099285Y-77449095D01*
X95146904Y-77591952D01*
X95718333Y-78163380D01*
X95099285Y-78163380D01*
%TO.C,R2*%
X98074666Y-73349380D02*
X98408000Y-72873190D01*
X98646095Y-73349380D02*
X98646095Y-72349380D01*
X98265142Y-72349380D01*
X98169904Y-72397000D01*
X98122285Y-72444619D01*
X98074666Y-72539857D01*
X98074666Y-72682714D01*
X98122285Y-72777952D01*
X98169904Y-72825571D01*
X98265142Y-72873190D01*
X98646095Y-72873190D01*
X97693714Y-72444619D02*
X97646095Y-72397000D01*
X97550857Y-72349380D01*
X97312761Y-72349380D01*
X97217523Y-72397000D01*
X97169904Y-72444619D01*
X97122285Y-72539857D01*
X97122285Y-72635095D01*
X97169904Y-72777952D01*
X97741333Y-73349380D01*
X97122285Y-73349380D01*
%TD*%
%LPC*%
D12*
%TO.C,SW1*%
X155333000Y-111760000D03*
X145173000Y-111760000D03*
D13*
X150253000Y-111760000D03*
D14*
X146443000Y-109220000D03*
X152793000Y-106680000D03*
%TD*%
D15*
%TO.C,J1*%
X124341000Y-109728000D03*
X124341000Y-108458000D03*
X124341000Y-107188000D03*
X124341000Y-105918000D03*
D16*
X124341000Y-104648000D03*
%TD*%
D12*
%TO.C,SW1*%
X155333000Y-130560000D03*
X145173000Y-130560000D03*
D13*
X150253000Y-130560000D03*
D14*
X146443000Y-128020000D03*
X152793000Y-125480000D03*
%TD*%
D15*
%TO.C,J1*%
X105541000Y-109728000D03*
X105541000Y-108458000D03*
X105541000Y-107188000D03*
X105541000Y-105918000D03*
D16*
X105541000Y-104648000D03*
%TD*%
D12*
%TO.C,SW1*%
X98933000Y-130560000D03*
X88773000Y-130560000D03*
D13*
X93853000Y-130560000D03*
D14*
X90043000Y-128020000D03*
X96393000Y-125480000D03*
%TD*%
D12*
%TO.C,SW1*%
X117733000Y-130560000D03*
X107573000Y-130560000D03*
D13*
X112653000Y-130560000D03*
D14*
X108843000Y-128020000D03*
X115193000Y-125480000D03*
%TD*%
D12*
%TO.C,SW1*%
X136533000Y-130560000D03*
X126373000Y-130560000D03*
D13*
X131453000Y-130560000D03*
D14*
X127643000Y-128020000D03*
X133993000Y-125480000D03*
%TD*%
D12*
%TO.C,SW1*%
X117733000Y-111760000D03*
X107573000Y-111760000D03*
D13*
X112653000Y-111760000D03*
D14*
X108843000Y-109220000D03*
X115193000Y-106680000D03*
%TD*%
D12*
%TO.C,SW1*%
X136533000Y-111760000D03*
X126373000Y-111760000D03*
D13*
X131453000Y-111760000D03*
D14*
X127643000Y-109220000D03*
X133993000Y-106680000D03*
%TD*%
D15*
%TO.C,J1*%
X143141000Y-109728000D03*
X143141000Y-108458000D03*
X143141000Y-107188000D03*
X143141000Y-105918000D03*
D16*
X143141000Y-104648000D03*
%TD*%
%TO.C,R2*%
G36*
G01*
X98308000Y-133070262D02*
X98308000Y-132113738D01*
G75*
G02*
X98579738Y-131842000I271738J0D01*
G01*
X99286262Y-131842000D01*
G75*
G02*
X99558000Y-132113738I0J-271738D01*
G01*
X99558000Y-133070262D01*
G75*
G02*
X99286262Y-133342000I-271738J0D01*
G01*
X98579738Y-133342000D01*
G75*
G02*
X98308000Y-133070262I0J271738D01*
G01*
G37*
G36*
G01*
X96258000Y-133070262D02*
X96258000Y-132113738D01*
G75*
G02*
X96529738Y-131842000I271738J0D01*
G01*
X97236262Y-131842000D01*
G75*
G02*
X97508000Y-132113738I0J-271738D01*
G01*
X97508000Y-133070262D01*
G75*
G02*
X97236262Y-133342000I-271738J0D01*
G01*
X96529738Y-133342000D01*
G75*
G02*
X96258000Y-133070262I0J271738D01*
G01*
G37*
%TD*%
%TO.C,R2*%
G36*
G01*
X154708000Y-114270262D02*
X154708000Y-113313738D01*
G75*
G02*
X154979738Y-113042000I271738J0D01*
G01*
X155686262Y-113042000D01*
G75*
G02*
X155958000Y-113313738I0J-271738D01*
G01*
X155958000Y-114270262D01*
G75*
G02*
X155686262Y-114542000I-271738J0D01*
G01*
X154979738Y-114542000D01*
G75*
G02*
X154708000Y-114270262I0J271738D01*
G01*
G37*
G36*
G01*
X152658000Y-114270262D02*
X152658000Y-113313738D01*
G75*
G02*
X152929738Y-113042000I271738J0D01*
G01*
X153636262Y-113042000D01*
G75*
G02*
X153908000Y-113313738I0J-271738D01*
G01*
X153908000Y-114270262D01*
G75*
G02*
X153636262Y-114542000I-271738J0D01*
G01*
X152929738Y-114542000D01*
G75*
G02*
X152658000Y-114270262I0J271738D01*
G01*
G37*
%TD*%
D17*
%TO.C,D2*%
X116210000Y-136656000D03*
D18*
X113635000Y-136656000D03*
%TD*%
D19*
%TO.C,Q1*%
X127897000Y-134692000D03*
X126947000Y-138112000D03*
X128847000Y-138112000D03*
%TD*%
%TO.C,R2*%
G36*
G01*
X135908000Y-114270262D02*
X135908000Y-113313738D01*
G75*
G02*
X136179738Y-113042000I271738J0D01*
G01*
X136886262Y-113042000D01*
G75*
G02*
X137158000Y-113313738I0J-271738D01*
G01*
X137158000Y-114270262D01*
G75*
G02*
X136886262Y-114542000I-271738J0D01*
G01*
X136179738Y-114542000D01*
G75*
G02*
X135908000Y-114270262I0J271738D01*
G01*
G37*
G36*
G01*
X133858000Y-114270262D02*
X133858000Y-113313738D01*
G75*
G02*
X134129738Y-113042000I271738J0D01*
G01*
X134836262Y-113042000D01*
G75*
G02*
X135108000Y-113313738I0J-271738D01*
G01*
X135108000Y-114270262D01*
G75*
G02*
X134836262Y-114542000I-271738J0D01*
G01*
X134129738Y-114542000D01*
G75*
G02*
X133858000Y-114270262I0J271738D01*
G01*
G37*
%TD*%
%TO.C,R2*%
G36*
G01*
X117108000Y-133070262D02*
X117108000Y-132113738D01*
G75*
G02*
X117379738Y-131842000I271738J0D01*
G01*
X118086262Y-131842000D01*
G75*
G02*
X118358000Y-132113738I0J-271738D01*
G01*
X118358000Y-133070262D01*
G75*
G02*
X118086262Y-133342000I-271738J0D01*
G01*
X117379738Y-133342000D01*
G75*
G02*
X117108000Y-133070262I0J271738D01*
G01*
G37*
G36*
G01*
X115058000Y-133070262D02*
X115058000Y-132113738D01*
G75*
G02*
X115329738Y-131842000I271738J0D01*
G01*
X116036262Y-131842000D01*
G75*
G02*
X116308000Y-132113738I0J-271738D01*
G01*
X116308000Y-133070262D01*
G75*
G02*
X116036262Y-133342000I-271738J0D01*
G01*
X115329738Y-133342000D01*
G75*
G02*
X115058000Y-133070262I0J271738D01*
G01*
G37*
%TD*%
D17*
%TO.C,D2*%
X97410000Y-136656000D03*
D18*
X94835000Y-136656000D03*
%TD*%
D17*
%TO.C,D2*%
X153810000Y-117856000D03*
D18*
X151235000Y-117856000D03*
%TD*%
D17*
%TO.C,D2*%
X116210000Y-117856000D03*
D18*
X113635000Y-117856000D03*
%TD*%
%TO.C,R2*%
G36*
G01*
X135908000Y-133070262D02*
X135908000Y-132113738D01*
G75*
G02*
X136179738Y-131842000I271738J0D01*
G01*
X136886262Y-131842000D01*
G75*
G02*
X137158000Y-132113738I0J-271738D01*
G01*
X137158000Y-133070262D01*
G75*
G02*
X136886262Y-133342000I-271738J0D01*
G01*
X136179738Y-133342000D01*
G75*
G02*
X135908000Y-133070262I0J271738D01*
G01*
G37*
G36*
G01*
X133858000Y-133070262D02*
X133858000Y-132113738D01*
G75*
G02*
X134129738Y-131842000I271738J0D01*
G01*
X134836262Y-131842000D01*
G75*
G02*
X135108000Y-132113738I0J-271738D01*
G01*
X135108000Y-133070262D01*
G75*
G02*
X134836262Y-133342000I-271738J0D01*
G01*
X134129738Y-133342000D01*
G75*
G02*
X133858000Y-133070262I0J271738D01*
G01*
G37*
%TD*%
D17*
%TO.C,D2*%
X153810000Y-136656000D03*
D18*
X151235000Y-136656000D03*
%TD*%
%TO.C,R2*%
G36*
G01*
X154708000Y-133070262D02*
X154708000Y-132113738D01*
G75*
G02*
X154979738Y-131842000I271738J0D01*
G01*
X155686262Y-131842000D01*
G75*
G02*
X155958000Y-132113738I0J-271738D01*
G01*
X155958000Y-133070262D01*
G75*
G02*
X155686262Y-133342000I-271738J0D01*
G01*
X154979738Y-133342000D01*
G75*
G02*
X154708000Y-133070262I0J271738D01*
G01*
G37*
G36*
G01*
X152658000Y-133070262D02*
X152658000Y-132113738D01*
G75*
G02*
X152929738Y-131842000I271738J0D01*
G01*
X153636262Y-131842000D01*
G75*
G02*
X153908000Y-132113738I0J-271738D01*
G01*
X153908000Y-133070262D01*
G75*
G02*
X153636262Y-133342000I-271738J0D01*
G01*
X152929738Y-133342000D01*
G75*
G02*
X152658000Y-133070262I0J271738D01*
G01*
G37*
%TD*%
%TO.C,R2*%
G36*
G01*
X117108000Y-114270262D02*
X117108000Y-113313738D01*
G75*
G02*
X117379738Y-113042000I271738J0D01*
G01*
X118086262Y-113042000D01*
G75*
G02*
X118358000Y-113313738I0J-271738D01*
G01*
X118358000Y-114270262D01*
G75*
G02*
X118086262Y-114542000I-271738J0D01*
G01*
X117379738Y-114542000D01*
G75*
G02*
X117108000Y-114270262I0J271738D01*
G01*
G37*
G36*
G01*
X115058000Y-114270262D02*
X115058000Y-113313738D01*
G75*
G02*
X115329738Y-113042000I271738J0D01*
G01*
X116036262Y-113042000D01*
G75*
G02*
X116308000Y-113313738I0J-271738D01*
G01*
X116308000Y-114270262D01*
G75*
G02*
X116036262Y-114542000I-271738J0D01*
G01*
X115329738Y-114542000D01*
G75*
G02*
X115058000Y-114270262I0J271738D01*
G01*
G37*
%TD*%
D19*
%TO.C,Q1*%
X146697000Y-134692000D03*
X145747000Y-138112000D03*
X147647000Y-138112000D03*
%TD*%
D17*
%TO.C,D2*%
X135010000Y-136656000D03*
D18*
X132435000Y-136656000D03*
%TD*%
D17*
%TO.C,D2*%
X135010000Y-117856000D03*
D18*
X132435000Y-117856000D03*
%TD*%
%TO.C,D2*%
X94835000Y-117856000D03*
D17*
X97410000Y-117856000D03*
%TD*%
%TO.C,R2*%
G36*
G01*
X96258000Y-114270262D02*
X96258000Y-113313738D01*
G75*
G02*
X96529738Y-113042000I271738J0D01*
G01*
X97236262Y-113042000D01*
G75*
G02*
X97508000Y-113313738I0J-271738D01*
G01*
X97508000Y-114270262D01*
G75*
G02*
X97236262Y-114542000I-271738J0D01*
G01*
X96529738Y-114542000D01*
G75*
G02*
X96258000Y-114270262I0J271738D01*
G01*
G37*
G36*
G01*
X98308000Y-114270262D02*
X98308000Y-113313738D01*
G75*
G02*
X98579738Y-113042000I271738J0D01*
G01*
X99286262Y-113042000D01*
G75*
G02*
X99558000Y-113313738I0J-271738D01*
G01*
X99558000Y-114270262D01*
G75*
G02*
X99286262Y-114542000I-271738J0D01*
G01*
X98579738Y-114542000D01*
G75*
G02*
X98308000Y-114270262I0J271738D01*
G01*
G37*
%TD*%
D19*
%TO.C,Q1*%
X91247000Y-119312000D03*
X89347000Y-119312000D03*
X90297000Y-115892000D03*
%TD*%
D20*
%TO.C,BT1*%
X101727000Y-113918000D03*
X101727000Y-110618000D03*
%TD*%
D16*
%TO.C,J1*%
X86741000Y-104648000D03*
D15*
X86741000Y-105918000D03*
X86741000Y-107188000D03*
X86741000Y-108458000D03*
X86741000Y-109728000D03*
%TD*%
D14*
%TO.C,SW1*%
X96393000Y-106680000D03*
X90043000Y-109220000D03*
D13*
X93853000Y-111760000D03*
D12*
X88773000Y-111760000D03*
X98933000Y-111760000D03*
%TD*%
D21*
%TO.C,U1*%
X90391000Y-106548000D03*
X90391000Y-105598000D03*
X90391000Y-104648000D03*
X93091000Y-104648000D03*
X93091000Y-106548000D03*
X93091000Y-105598000D03*
%TD*%
%TO.C,R1*%
G36*
G01*
X98962738Y-104014000D02*
X99919262Y-104014000D01*
G75*
G02*
X100191000Y-104285738I0J-271738D01*
G01*
X100191000Y-104992262D01*
G75*
G02*
X99919262Y-105264000I-271738J0D01*
G01*
X98962738Y-105264000D01*
G75*
G02*
X98691000Y-104992262I0J271738D01*
G01*
X98691000Y-104285738D01*
G75*
G02*
X98962738Y-104014000I271738J0D01*
G01*
G37*
G36*
G01*
X98962738Y-106064000D02*
X99919262Y-106064000D01*
G75*
G02*
X100191000Y-106335738I0J-271738D01*
G01*
X100191000Y-107042262D01*
G75*
G02*
X99919262Y-107314000I-271738J0D01*
G01*
X98962738Y-107314000D01*
G75*
G02*
X98691000Y-107042262I0J271738D01*
G01*
X98691000Y-106335738D01*
G75*
G02*
X98962738Y-106064000I271738J0D01*
G01*
G37*
%TD*%
%TO.C,U1*%
X149491000Y-105598000D03*
X149491000Y-106548000D03*
X149491000Y-104648000D03*
X146791000Y-104648000D03*
X146791000Y-105598000D03*
X146791000Y-106548000D03*
%TD*%
%TO.C,R1*%
G36*
G01*
X117762738Y-106064000D02*
X118719262Y-106064000D01*
G75*
G02*
X118991000Y-106335738I0J-271738D01*
G01*
X118991000Y-107042262D01*
G75*
G02*
X118719262Y-107314000I-271738J0D01*
G01*
X117762738Y-107314000D01*
G75*
G02*
X117491000Y-107042262I0J271738D01*
G01*
X117491000Y-106335738D01*
G75*
G02*
X117762738Y-106064000I271738J0D01*
G01*
G37*
G36*
G01*
X117762738Y-104014000D02*
X118719262Y-104014000D01*
G75*
G02*
X118991000Y-104285738I0J-271738D01*
G01*
X118991000Y-104992262D01*
G75*
G02*
X118719262Y-105264000I-271738J0D01*
G01*
X117762738Y-105264000D01*
G75*
G02*
X117491000Y-104992262I0J271738D01*
G01*
X117491000Y-104285738D01*
G75*
G02*
X117762738Y-104014000I271738J0D01*
G01*
G37*
%TD*%
%TO.C,U1*%
X130691000Y-124398000D03*
X130691000Y-125348000D03*
X130691000Y-123448000D03*
X127991000Y-123448000D03*
X127991000Y-124398000D03*
X127991000Y-125348000D03*
%TD*%
%TO.C,U1*%
X111891000Y-124398000D03*
X111891000Y-125348000D03*
X111891000Y-123448000D03*
X109191000Y-123448000D03*
X109191000Y-124398000D03*
X109191000Y-125348000D03*
%TD*%
%TO.C,U1*%
X93091000Y-124398000D03*
X93091000Y-125348000D03*
X93091000Y-123448000D03*
X90391000Y-123448000D03*
X90391000Y-124398000D03*
X90391000Y-125348000D03*
%TD*%
%TO.C,U1*%
X130691000Y-105598000D03*
X130691000Y-106548000D03*
X130691000Y-104648000D03*
X127991000Y-104648000D03*
X127991000Y-105598000D03*
X127991000Y-106548000D03*
%TD*%
%TO.C,U1*%
X111891000Y-105598000D03*
X111891000Y-106548000D03*
X111891000Y-104648000D03*
X109191000Y-104648000D03*
X109191000Y-105598000D03*
X109191000Y-106548000D03*
%TD*%
%TO.C,R1*%
G36*
G01*
X155362738Y-106064000D02*
X156319262Y-106064000D01*
G75*
G02*
X156591000Y-106335738I0J-271738D01*
G01*
X156591000Y-107042262D01*
G75*
G02*
X156319262Y-107314000I-271738J0D01*
G01*
X155362738Y-107314000D01*
G75*
G02*
X155091000Y-107042262I0J271738D01*
G01*
X155091000Y-106335738D01*
G75*
G02*
X155362738Y-106064000I271738J0D01*
G01*
G37*
G36*
G01*
X155362738Y-104014000D02*
X156319262Y-104014000D01*
G75*
G02*
X156591000Y-104285738I0J-271738D01*
G01*
X156591000Y-104992262D01*
G75*
G02*
X156319262Y-105264000I-271738J0D01*
G01*
X155362738Y-105264000D01*
G75*
G02*
X155091000Y-104992262I0J271738D01*
G01*
X155091000Y-104285738D01*
G75*
G02*
X155362738Y-104014000I271738J0D01*
G01*
G37*
%TD*%
%TO.C,R1*%
G36*
G01*
X155362738Y-124864000D02*
X156319262Y-124864000D01*
G75*
G02*
X156591000Y-125135738I0J-271738D01*
G01*
X156591000Y-125842262D01*
G75*
G02*
X156319262Y-126114000I-271738J0D01*
G01*
X155362738Y-126114000D01*
G75*
G02*
X155091000Y-125842262I0J271738D01*
G01*
X155091000Y-125135738D01*
G75*
G02*
X155362738Y-124864000I271738J0D01*
G01*
G37*
G36*
G01*
X155362738Y-122814000D02*
X156319262Y-122814000D01*
G75*
G02*
X156591000Y-123085738I0J-271738D01*
G01*
X156591000Y-123792262D01*
G75*
G02*
X156319262Y-124064000I-271738J0D01*
G01*
X155362738Y-124064000D01*
G75*
G02*
X155091000Y-123792262I0J271738D01*
G01*
X155091000Y-123085738D01*
G75*
G02*
X155362738Y-122814000I271738J0D01*
G01*
G37*
%TD*%
%TO.C,R1*%
G36*
G01*
X117762738Y-124864000D02*
X118719262Y-124864000D01*
G75*
G02*
X118991000Y-125135738I0J-271738D01*
G01*
X118991000Y-125842262D01*
G75*
G02*
X118719262Y-126114000I-271738J0D01*
G01*
X117762738Y-126114000D01*
G75*
G02*
X117491000Y-125842262I0J271738D01*
G01*
X117491000Y-125135738D01*
G75*
G02*
X117762738Y-124864000I271738J0D01*
G01*
G37*
G36*
G01*
X117762738Y-122814000D02*
X118719262Y-122814000D01*
G75*
G02*
X118991000Y-123085738I0J-271738D01*
G01*
X118991000Y-123792262D01*
G75*
G02*
X118719262Y-124064000I-271738J0D01*
G01*
X117762738Y-124064000D01*
G75*
G02*
X117491000Y-123792262I0J271738D01*
G01*
X117491000Y-123085738D01*
G75*
G02*
X117762738Y-122814000I271738J0D01*
G01*
G37*
%TD*%
%TO.C,R1*%
G36*
G01*
X98962738Y-124864000D02*
X99919262Y-124864000D01*
G75*
G02*
X100191000Y-125135738I0J-271738D01*
G01*
X100191000Y-125842262D01*
G75*
G02*
X99919262Y-126114000I-271738J0D01*
G01*
X98962738Y-126114000D01*
G75*
G02*
X98691000Y-125842262I0J271738D01*
G01*
X98691000Y-125135738D01*
G75*
G02*
X98962738Y-124864000I271738J0D01*
G01*
G37*
G36*
G01*
X98962738Y-122814000D02*
X99919262Y-122814000D01*
G75*
G02*
X100191000Y-123085738I0J-271738D01*
G01*
X100191000Y-123792262D01*
G75*
G02*
X99919262Y-124064000I-271738J0D01*
G01*
X98962738Y-124064000D01*
G75*
G02*
X98691000Y-123792262I0J271738D01*
G01*
X98691000Y-123085738D01*
G75*
G02*
X98962738Y-122814000I271738J0D01*
G01*
G37*
%TD*%
%TO.C,R1*%
G36*
G01*
X136562738Y-106064000D02*
X137519262Y-106064000D01*
G75*
G02*
X137791000Y-106335738I0J-271738D01*
G01*
X137791000Y-107042262D01*
G75*
G02*
X137519262Y-107314000I-271738J0D01*
G01*
X136562738Y-107314000D01*
G75*
G02*
X136291000Y-107042262I0J271738D01*
G01*
X136291000Y-106335738D01*
G75*
G02*
X136562738Y-106064000I271738J0D01*
G01*
G37*
G36*
G01*
X136562738Y-104014000D02*
X137519262Y-104014000D01*
G75*
G02*
X137791000Y-104285738I0J-271738D01*
G01*
X137791000Y-104992262D01*
G75*
G02*
X137519262Y-105264000I-271738J0D01*
G01*
X136562738Y-105264000D01*
G75*
G02*
X136291000Y-104992262I0J271738D01*
G01*
X136291000Y-104285738D01*
G75*
G02*
X136562738Y-104014000I271738J0D01*
G01*
G37*
%TD*%
%TO.C,R1*%
G36*
G01*
X136562738Y-124864000D02*
X137519262Y-124864000D01*
G75*
G02*
X137791000Y-125135738I0J-271738D01*
G01*
X137791000Y-125842262D01*
G75*
G02*
X137519262Y-126114000I-271738J0D01*
G01*
X136562738Y-126114000D01*
G75*
G02*
X136291000Y-125842262I0J271738D01*
G01*
X136291000Y-125135738D01*
G75*
G02*
X136562738Y-124864000I271738J0D01*
G01*
G37*
G36*
G01*
X136562738Y-122814000D02*
X137519262Y-122814000D01*
G75*
G02*
X137791000Y-123085738I0J-271738D01*
G01*
X137791000Y-123792262D01*
G75*
G02*
X137519262Y-124064000I-271738J0D01*
G01*
X136562738Y-124064000D01*
G75*
G02*
X136291000Y-123792262I0J271738D01*
G01*
X136291000Y-123085738D01*
G75*
G02*
X136562738Y-122814000I271738J0D01*
G01*
G37*
%TD*%
%TO.C,U1*%
X149491000Y-124398000D03*
X149491000Y-125348000D03*
X149491000Y-123448000D03*
X146791000Y-123448000D03*
X146791000Y-124398000D03*
X146791000Y-125348000D03*
%TD*%
D19*
%TO.C,Q1*%
X109097000Y-134692000D03*
X108147000Y-138112000D03*
X110047000Y-138112000D03*
%TD*%
D20*
%TO.C,BT1*%
X158127000Y-129418000D03*
X158127000Y-132718000D03*
%TD*%
%TO.C,BT1*%
X158127000Y-110618000D03*
X158127000Y-113918000D03*
%TD*%
D15*
%TO.C,J1*%
X143141000Y-128528000D03*
X143141000Y-127258000D03*
X143141000Y-125988000D03*
X143141000Y-124718000D03*
D16*
X143141000Y-123448000D03*
%TD*%
D15*
%TO.C,J1*%
X105541000Y-128528000D03*
X105541000Y-127258000D03*
X105541000Y-125988000D03*
X105541000Y-124718000D03*
D16*
X105541000Y-123448000D03*
%TD*%
D20*
%TO.C,BT1*%
X120527000Y-129418000D03*
X120527000Y-132718000D03*
%TD*%
D19*
%TO.C,Q1*%
X90297000Y-134692000D03*
X89347000Y-138112000D03*
X91247000Y-138112000D03*
%TD*%
%TO.C,Q1*%
X146697000Y-115892000D03*
X145747000Y-119312000D03*
X147647000Y-119312000D03*
%TD*%
%TO.C,Q1*%
X127897000Y-115892000D03*
X126947000Y-119312000D03*
X128847000Y-119312000D03*
%TD*%
D20*
%TO.C,BT1*%
X139327000Y-129418000D03*
X139327000Y-132718000D03*
%TD*%
D15*
%TO.C,J1*%
X124341000Y-128528000D03*
X124341000Y-127258000D03*
X124341000Y-125988000D03*
X124341000Y-124718000D03*
D16*
X124341000Y-123448000D03*
%TD*%
D20*
%TO.C,BT1*%
X101727000Y-129418000D03*
X101727000Y-132718000D03*
%TD*%
D15*
%TO.C,J1*%
X86741000Y-128528000D03*
X86741000Y-127258000D03*
X86741000Y-125988000D03*
X86741000Y-124718000D03*
D16*
X86741000Y-123448000D03*
%TD*%
D19*
%TO.C,Q1*%
X109097000Y-115892000D03*
X108147000Y-119312000D03*
X110047000Y-119312000D03*
%TD*%
D20*
%TO.C,BT1*%
X139327000Y-110618000D03*
X139327000Y-113918000D03*
%TD*%
%TO.C,BT1*%
X120527000Y-110618000D03*
X120527000Y-113918000D03*
%TD*%
D18*
%TO.C,D2*%
X151235000Y-94111000D03*
D17*
X153810000Y-94111000D03*
%TD*%
D18*
%TO.C,D2*%
X132435000Y-94111000D03*
D17*
X135010000Y-94111000D03*
%TD*%
D18*
%TO.C,D2*%
X113635000Y-94111000D03*
D17*
X116210000Y-94111000D03*
%TD*%
D18*
%TO.C,D2*%
X94835000Y-94111000D03*
D17*
X97410000Y-94111000D03*
%TD*%
D18*
%TO.C,D2*%
X151235000Y-75311000D03*
D17*
X153810000Y-75311000D03*
%TD*%
D18*
%TO.C,D2*%
X132435000Y-75311000D03*
D17*
X135010000Y-75311000D03*
%TD*%
D18*
%TO.C,D2*%
X113635000Y-75311000D03*
D17*
X116210000Y-75311000D03*
%TD*%
%TO.C,R2*%
G36*
G01*
X152658000Y-90525262D02*
X152658000Y-89568738D01*
G75*
G02*
X152929738Y-89297000I271738J0D01*
G01*
X153636262Y-89297000D01*
G75*
G02*
X153908000Y-89568738I0J-271738D01*
G01*
X153908000Y-90525262D01*
G75*
G02*
X153636262Y-90797000I-271738J0D01*
G01*
X152929738Y-90797000D01*
G75*
G02*
X152658000Y-90525262I0J271738D01*
G01*
G37*
G36*
G01*
X154708000Y-90525262D02*
X154708000Y-89568738D01*
G75*
G02*
X154979738Y-89297000I271738J0D01*
G01*
X155686262Y-89297000D01*
G75*
G02*
X155958000Y-89568738I0J-271738D01*
G01*
X155958000Y-90525262D01*
G75*
G02*
X155686262Y-90797000I-271738J0D01*
G01*
X154979738Y-90797000D01*
G75*
G02*
X154708000Y-90525262I0J271738D01*
G01*
G37*
%TD*%
%TO.C,R2*%
G36*
G01*
X133858000Y-90525262D02*
X133858000Y-89568738D01*
G75*
G02*
X134129738Y-89297000I271738J0D01*
G01*
X134836262Y-89297000D01*
G75*
G02*
X135108000Y-89568738I0J-271738D01*
G01*
X135108000Y-90525262D01*
G75*
G02*
X134836262Y-90797000I-271738J0D01*
G01*
X134129738Y-90797000D01*
G75*
G02*
X133858000Y-90525262I0J271738D01*
G01*
G37*
G36*
G01*
X135908000Y-90525262D02*
X135908000Y-89568738D01*
G75*
G02*
X136179738Y-89297000I271738J0D01*
G01*
X136886262Y-89297000D01*
G75*
G02*
X137158000Y-89568738I0J-271738D01*
G01*
X137158000Y-90525262D01*
G75*
G02*
X136886262Y-90797000I-271738J0D01*
G01*
X136179738Y-90797000D01*
G75*
G02*
X135908000Y-90525262I0J271738D01*
G01*
G37*
%TD*%
%TO.C,R2*%
G36*
G01*
X115058000Y-90525262D02*
X115058000Y-89568738D01*
G75*
G02*
X115329738Y-89297000I271738J0D01*
G01*
X116036262Y-89297000D01*
G75*
G02*
X116308000Y-89568738I0J-271738D01*
G01*
X116308000Y-90525262D01*
G75*
G02*
X116036262Y-90797000I-271738J0D01*
G01*
X115329738Y-90797000D01*
G75*
G02*
X115058000Y-90525262I0J271738D01*
G01*
G37*
G36*
G01*
X117108000Y-90525262D02*
X117108000Y-89568738D01*
G75*
G02*
X117379738Y-89297000I271738J0D01*
G01*
X118086262Y-89297000D01*
G75*
G02*
X118358000Y-89568738I0J-271738D01*
G01*
X118358000Y-90525262D01*
G75*
G02*
X118086262Y-90797000I-271738J0D01*
G01*
X117379738Y-90797000D01*
G75*
G02*
X117108000Y-90525262I0J271738D01*
G01*
G37*
%TD*%
%TO.C,R2*%
G36*
G01*
X96258000Y-90525262D02*
X96258000Y-89568738D01*
G75*
G02*
X96529738Y-89297000I271738J0D01*
G01*
X97236262Y-89297000D01*
G75*
G02*
X97508000Y-89568738I0J-271738D01*
G01*
X97508000Y-90525262D01*
G75*
G02*
X97236262Y-90797000I-271738J0D01*
G01*
X96529738Y-90797000D01*
G75*
G02*
X96258000Y-90525262I0J271738D01*
G01*
G37*
G36*
G01*
X98308000Y-90525262D02*
X98308000Y-89568738D01*
G75*
G02*
X98579738Y-89297000I271738J0D01*
G01*
X99286262Y-89297000D01*
G75*
G02*
X99558000Y-89568738I0J-271738D01*
G01*
X99558000Y-90525262D01*
G75*
G02*
X99286262Y-90797000I-271738J0D01*
G01*
X98579738Y-90797000D01*
G75*
G02*
X98308000Y-90525262I0J271738D01*
G01*
G37*
%TD*%
%TO.C,R2*%
G36*
G01*
X152658000Y-71725262D02*
X152658000Y-70768738D01*
G75*
G02*
X152929738Y-70497000I271738J0D01*
G01*
X153636262Y-70497000D01*
G75*
G02*
X153908000Y-70768738I0J-271738D01*
G01*
X153908000Y-71725262D01*
G75*
G02*
X153636262Y-71997000I-271738J0D01*
G01*
X152929738Y-71997000D01*
G75*
G02*
X152658000Y-71725262I0J271738D01*
G01*
G37*
G36*
G01*
X154708000Y-71725262D02*
X154708000Y-70768738D01*
G75*
G02*
X154979738Y-70497000I271738J0D01*
G01*
X155686262Y-70497000D01*
G75*
G02*
X155958000Y-70768738I0J-271738D01*
G01*
X155958000Y-71725262D01*
G75*
G02*
X155686262Y-71997000I-271738J0D01*
G01*
X154979738Y-71997000D01*
G75*
G02*
X154708000Y-71725262I0J271738D01*
G01*
G37*
%TD*%
%TO.C,R2*%
G36*
G01*
X133858000Y-71725262D02*
X133858000Y-70768738D01*
G75*
G02*
X134129738Y-70497000I271738J0D01*
G01*
X134836262Y-70497000D01*
G75*
G02*
X135108000Y-70768738I0J-271738D01*
G01*
X135108000Y-71725262D01*
G75*
G02*
X134836262Y-71997000I-271738J0D01*
G01*
X134129738Y-71997000D01*
G75*
G02*
X133858000Y-71725262I0J271738D01*
G01*
G37*
G36*
G01*
X135908000Y-71725262D02*
X135908000Y-70768738D01*
G75*
G02*
X136179738Y-70497000I271738J0D01*
G01*
X136886262Y-70497000D01*
G75*
G02*
X137158000Y-70768738I0J-271738D01*
G01*
X137158000Y-71725262D01*
G75*
G02*
X136886262Y-71997000I-271738J0D01*
G01*
X136179738Y-71997000D01*
G75*
G02*
X135908000Y-71725262I0J271738D01*
G01*
G37*
%TD*%
%TO.C,R2*%
G36*
G01*
X115058000Y-71725262D02*
X115058000Y-70768738D01*
G75*
G02*
X115329738Y-70497000I271738J0D01*
G01*
X116036262Y-70497000D01*
G75*
G02*
X116308000Y-70768738I0J-271738D01*
G01*
X116308000Y-71725262D01*
G75*
G02*
X116036262Y-71997000I-271738J0D01*
G01*
X115329738Y-71997000D01*
G75*
G02*
X115058000Y-71725262I0J271738D01*
G01*
G37*
G36*
G01*
X117108000Y-71725262D02*
X117108000Y-70768738D01*
G75*
G02*
X117379738Y-70497000I271738J0D01*
G01*
X118086262Y-70497000D01*
G75*
G02*
X118358000Y-70768738I0J-271738D01*
G01*
X118358000Y-71725262D01*
G75*
G02*
X118086262Y-71997000I-271738J0D01*
G01*
X117379738Y-71997000D01*
G75*
G02*
X117108000Y-71725262I0J271738D01*
G01*
G37*
%TD*%
D19*
%TO.C,Q1*%
X147647000Y-95567000D03*
X145747000Y-95567000D03*
X146697000Y-92147000D03*
%TD*%
%TO.C,Q1*%
X128847000Y-95567000D03*
X126947000Y-95567000D03*
X127897000Y-92147000D03*
%TD*%
%TO.C,Q1*%
X110047000Y-95567000D03*
X108147000Y-95567000D03*
X109097000Y-92147000D03*
%TD*%
%TO.C,Q1*%
X91247000Y-95567000D03*
X89347000Y-95567000D03*
X90297000Y-92147000D03*
%TD*%
%TO.C,Q1*%
X147647000Y-76767000D03*
X145747000Y-76767000D03*
X146697000Y-73347000D03*
%TD*%
%TO.C,Q1*%
X128847000Y-76767000D03*
X126947000Y-76767000D03*
X127897000Y-73347000D03*
%TD*%
%TO.C,Q1*%
X110047000Y-76767000D03*
X108147000Y-76767000D03*
X109097000Y-73347000D03*
%TD*%
D20*
%TO.C,BT1*%
X158127000Y-90173000D03*
X158127000Y-86873000D03*
%TD*%
%TO.C,BT1*%
X139327000Y-90173000D03*
X139327000Y-86873000D03*
%TD*%
%TO.C,BT1*%
X120527000Y-90173000D03*
X120527000Y-86873000D03*
%TD*%
%TO.C,BT1*%
X101727000Y-90173000D03*
X101727000Y-86873000D03*
%TD*%
%TO.C,BT1*%
X158127000Y-71373000D03*
X158127000Y-68073000D03*
%TD*%
%TO.C,BT1*%
X139327000Y-71373000D03*
X139327000Y-68073000D03*
%TD*%
%TO.C,BT1*%
X120527000Y-71373000D03*
X120527000Y-68073000D03*
%TD*%
D16*
%TO.C,J1*%
X143141000Y-80903000D03*
D15*
X143141000Y-82173000D03*
X143141000Y-83443000D03*
X143141000Y-84713000D03*
X143141000Y-85983000D03*
%TD*%
D16*
%TO.C,J1*%
X124341000Y-80903000D03*
D15*
X124341000Y-82173000D03*
X124341000Y-83443000D03*
X124341000Y-84713000D03*
X124341000Y-85983000D03*
%TD*%
D16*
%TO.C,J1*%
X105541000Y-80903000D03*
D15*
X105541000Y-82173000D03*
X105541000Y-83443000D03*
X105541000Y-84713000D03*
X105541000Y-85983000D03*
%TD*%
D16*
%TO.C,J1*%
X86741000Y-80903000D03*
D15*
X86741000Y-82173000D03*
X86741000Y-83443000D03*
X86741000Y-84713000D03*
X86741000Y-85983000D03*
%TD*%
D16*
%TO.C,J1*%
X143141000Y-62103000D03*
D15*
X143141000Y-63373000D03*
X143141000Y-64643000D03*
X143141000Y-65913000D03*
X143141000Y-67183000D03*
%TD*%
D16*
%TO.C,J1*%
X124341000Y-62103000D03*
D15*
X124341000Y-63373000D03*
X124341000Y-64643000D03*
X124341000Y-65913000D03*
X124341000Y-67183000D03*
%TD*%
D16*
%TO.C,J1*%
X105541000Y-62103000D03*
D15*
X105541000Y-63373000D03*
X105541000Y-64643000D03*
X105541000Y-65913000D03*
X105541000Y-67183000D03*
%TD*%
D14*
%TO.C,SW1*%
X152793000Y-82935000D03*
X146443000Y-85475000D03*
D13*
X150253000Y-88015000D03*
D12*
X145173000Y-88015000D03*
X155333000Y-88015000D03*
%TD*%
D14*
%TO.C,SW1*%
X133993000Y-82935000D03*
X127643000Y-85475000D03*
D13*
X131453000Y-88015000D03*
D12*
X126373000Y-88015000D03*
X136533000Y-88015000D03*
%TD*%
D14*
%TO.C,SW1*%
X115193000Y-82935000D03*
X108843000Y-85475000D03*
D13*
X112653000Y-88015000D03*
D12*
X107573000Y-88015000D03*
X117733000Y-88015000D03*
%TD*%
D14*
%TO.C,SW1*%
X96393000Y-82935000D03*
X90043000Y-85475000D03*
D13*
X93853000Y-88015000D03*
D12*
X88773000Y-88015000D03*
X98933000Y-88015000D03*
%TD*%
D14*
%TO.C,SW1*%
X152793000Y-64135000D03*
X146443000Y-66675000D03*
D13*
X150253000Y-69215000D03*
D12*
X145173000Y-69215000D03*
X155333000Y-69215000D03*
%TD*%
D14*
%TO.C,SW1*%
X133993000Y-64135000D03*
X127643000Y-66675000D03*
D13*
X131453000Y-69215000D03*
D12*
X126373000Y-69215000D03*
X136533000Y-69215000D03*
%TD*%
D14*
%TO.C,SW1*%
X115193000Y-64135000D03*
X108843000Y-66675000D03*
D13*
X112653000Y-69215000D03*
D12*
X107573000Y-69215000D03*
X117733000Y-69215000D03*
%TD*%
D21*
%TO.C,U1*%
X146791000Y-82803000D03*
X146791000Y-81853000D03*
X146791000Y-80903000D03*
X149491000Y-80903000D03*
X149491000Y-82803000D03*
X149491000Y-81853000D03*
%TD*%
%TO.C,U1*%
X127991000Y-82803000D03*
X127991000Y-81853000D03*
X127991000Y-80903000D03*
X130691000Y-80903000D03*
X130691000Y-82803000D03*
X130691000Y-81853000D03*
%TD*%
%TO.C,U1*%
X109191000Y-82803000D03*
X109191000Y-81853000D03*
X109191000Y-80903000D03*
X111891000Y-80903000D03*
X111891000Y-82803000D03*
X111891000Y-81853000D03*
%TD*%
%TO.C,U1*%
X90391000Y-82803000D03*
X90391000Y-81853000D03*
X90391000Y-80903000D03*
X93091000Y-80903000D03*
X93091000Y-82803000D03*
X93091000Y-81853000D03*
%TD*%
%TO.C,U1*%
X146791000Y-64003000D03*
X146791000Y-63053000D03*
X146791000Y-62103000D03*
X149491000Y-62103000D03*
X149491000Y-64003000D03*
X149491000Y-63053000D03*
%TD*%
%TO.C,U1*%
X127991000Y-64003000D03*
X127991000Y-63053000D03*
X127991000Y-62103000D03*
X130691000Y-62103000D03*
X130691000Y-64003000D03*
X130691000Y-63053000D03*
%TD*%
%TO.C,U1*%
X109191000Y-64003000D03*
X109191000Y-63053000D03*
X109191000Y-62103000D03*
X111891000Y-62103000D03*
X111891000Y-64003000D03*
X111891000Y-63053000D03*
%TD*%
%TO.C,R1*%
G36*
G01*
X155362738Y-80269000D02*
X156319262Y-80269000D01*
G75*
G02*
X156591000Y-80540738I0J-271738D01*
G01*
X156591000Y-81247262D01*
G75*
G02*
X156319262Y-81519000I-271738J0D01*
G01*
X155362738Y-81519000D01*
G75*
G02*
X155091000Y-81247262I0J271738D01*
G01*
X155091000Y-80540738D01*
G75*
G02*
X155362738Y-80269000I271738J0D01*
G01*
G37*
G36*
G01*
X155362738Y-82319000D02*
X156319262Y-82319000D01*
G75*
G02*
X156591000Y-82590738I0J-271738D01*
G01*
X156591000Y-83297262D01*
G75*
G02*
X156319262Y-83569000I-271738J0D01*
G01*
X155362738Y-83569000D01*
G75*
G02*
X155091000Y-83297262I0J271738D01*
G01*
X155091000Y-82590738D01*
G75*
G02*
X155362738Y-82319000I271738J0D01*
G01*
G37*
%TD*%
%TO.C,R1*%
G36*
G01*
X136562738Y-80269000D02*
X137519262Y-80269000D01*
G75*
G02*
X137791000Y-80540738I0J-271738D01*
G01*
X137791000Y-81247262D01*
G75*
G02*
X137519262Y-81519000I-271738J0D01*
G01*
X136562738Y-81519000D01*
G75*
G02*
X136291000Y-81247262I0J271738D01*
G01*
X136291000Y-80540738D01*
G75*
G02*
X136562738Y-80269000I271738J0D01*
G01*
G37*
G36*
G01*
X136562738Y-82319000D02*
X137519262Y-82319000D01*
G75*
G02*
X137791000Y-82590738I0J-271738D01*
G01*
X137791000Y-83297262D01*
G75*
G02*
X137519262Y-83569000I-271738J0D01*
G01*
X136562738Y-83569000D01*
G75*
G02*
X136291000Y-83297262I0J271738D01*
G01*
X136291000Y-82590738D01*
G75*
G02*
X136562738Y-82319000I271738J0D01*
G01*
G37*
%TD*%
%TO.C,R1*%
G36*
G01*
X117762738Y-80269000D02*
X118719262Y-80269000D01*
G75*
G02*
X118991000Y-80540738I0J-271738D01*
G01*
X118991000Y-81247262D01*
G75*
G02*
X118719262Y-81519000I-271738J0D01*
G01*
X117762738Y-81519000D01*
G75*
G02*
X117491000Y-81247262I0J271738D01*
G01*
X117491000Y-80540738D01*
G75*
G02*
X117762738Y-80269000I271738J0D01*
G01*
G37*
G36*
G01*
X117762738Y-82319000D02*
X118719262Y-82319000D01*
G75*
G02*
X118991000Y-82590738I0J-271738D01*
G01*
X118991000Y-83297262D01*
G75*
G02*
X118719262Y-83569000I-271738J0D01*
G01*
X117762738Y-83569000D01*
G75*
G02*
X117491000Y-83297262I0J271738D01*
G01*
X117491000Y-82590738D01*
G75*
G02*
X117762738Y-82319000I271738J0D01*
G01*
G37*
%TD*%
%TO.C,R1*%
G36*
G01*
X98962738Y-80269000D02*
X99919262Y-80269000D01*
G75*
G02*
X100191000Y-80540738I0J-271738D01*
G01*
X100191000Y-81247262D01*
G75*
G02*
X99919262Y-81519000I-271738J0D01*
G01*
X98962738Y-81519000D01*
G75*
G02*
X98691000Y-81247262I0J271738D01*
G01*
X98691000Y-80540738D01*
G75*
G02*
X98962738Y-80269000I271738J0D01*
G01*
G37*
G36*
G01*
X98962738Y-82319000D02*
X99919262Y-82319000D01*
G75*
G02*
X100191000Y-82590738I0J-271738D01*
G01*
X100191000Y-83297262D01*
G75*
G02*
X99919262Y-83569000I-271738J0D01*
G01*
X98962738Y-83569000D01*
G75*
G02*
X98691000Y-83297262I0J271738D01*
G01*
X98691000Y-82590738D01*
G75*
G02*
X98962738Y-82319000I271738J0D01*
G01*
G37*
%TD*%
%TO.C,R1*%
G36*
G01*
X155362738Y-61469000D02*
X156319262Y-61469000D01*
G75*
G02*
X156591000Y-61740738I0J-271738D01*
G01*
X156591000Y-62447262D01*
G75*
G02*
X156319262Y-62719000I-271738J0D01*
G01*
X155362738Y-62719000D01*
G75*
G02*
X155091000Y-62447262I0J271738D01*
G01*
X155091000Y-61740738D01*
G75*
G02*
X155362738Y-61469000I271738J0D01*
G01*
G37*
G36*
G01*
X155362738Y-63519000D02*
X156319262Y-63519000D01*
G75*
G02*
X156591000Y-63790738I0J-271738D01*
G01*
X156591000Y-64497262D01*
G75*
G02*
X156319262Y-64769000I-271738J0D01*
G01*
X155362738Y-64769000D01*
G75*
G02*
X155091000Y-64497262I0J271738D01*
G01*
X155091000Y-63790738D01*
G75*
G02*
X155362738Y-63519000I271738J0D01*
G01*
G37*
%TD*%
%TO.C,R1*%
G36*
G01*
X136562738Y-61469000D02*
X137519262Y-61469000D01*
G75*
G02*
X137791000Y-61740738I0J-271738D01*
G01*
X137791000Y-62447262D01*
G75*
G02*
X137519262Y-62719000I-271738J0D01*
G01*
X136562738Y-62719000D01*
G75*
G02*
X136291000Y-62447262I0J271738D01*
G01*
X136291000Y-61740738D01*
G75*
G02*
X136562738Y-61469000I271738J0D01*
G01*
G37*
G36*
G01*
X136562738Y-63519000D02*
X137519262Y-63519000D01*
G75*
G02*
X137791000Y-63790738I0J-271738D01*
G01*
X137791000Y-64497262D01*
G75*
G02*
X137519262Y-64769000I-271738J0D01*
G01*
X136562738Y-64769000D01*
G75*
G02*
X136291000Y-64497262I0J271738D01*
G01*
X136291000Y-63790738D01*
G75*
G02*
X136562738Y-63519000I271738J0D01*
G01*
G37*
%TD*%
%TO.C,R1*%
G36*
G01*
X117762738Y-61469000D02*
X118719262Y-61469000D01*
G75*
G02*
X118991000Y-61740738I0J-271738D01*
G01*
X118991000Y-62447262D01*
G75*
G02*
X118719262Y-62719000I-271738J0D01*
G01*
X117762738Y-62719000D01*
G75*
G02*
X117491000Y-62447262I0J271738D01*
G01*
X117491000Y-61740738D01*
G75*
G02*
X117762738Y-61469000I271738J0D01*
G01*
G37*
G36*
G01*
X117762738Y-63519000D02*
X118719262Y-63519000D01*
G75*
G02*
X118991000Y-63790738I0J-271738D01*
G01*
X118991000Y-64497262D01*
G75*
G02*
X118719262Y-64769000I-271738J0D01*
G01*
X117762738Y-64769000D01*
G75*
G02*
X117491000Y-64497262I0J271738D01*
G01*
X117491000Y-63790738D01*
G75*
G02*
X117762738Y-63519000I271738J0D01*
G01*
G37*
%TD*%
D19*
%TO.C,Q1*%
X90297000Y-73347000D03*
X89347000Y-76767000D03*
X91247000Y-76767000D03*
%TD*%
D21*
%TO.C,U1*%
X93091000Y-63053000D03*
X93091000Y-64003000D03*
X93091000Y-62103000D03*
X90391000Y-62103000D03*
X90391000Y-63053000D03*
X90391000Y-64003000D03*
%TD*%
D20*
%TO.C,BT1*%
X101727000Y-68073000D03*
X101727000Y-71373000D03*
%TD*%
D15*
%TO.C,J1*%
X86741000Y-67183000D03*
X86741000Y-65913000D03*
X86741000Y-64643000D03*
X86741000Y-63373000D03*
D16*
X86741000Y-62103000D03*
%TD*%
D12*
%TO.C,SW1*%
X98933000Y-69215000D03*
X88773000Y-69215000D03*
D13*
X93853000Y-69215000D03*
D14*
X90043000Y-66675000D03*
X96393000Y-64135000D03*
%TD*%
%TO.C,R1*%
G36*
G01*
X98962738Y-63519000D02*
X99919262Y-63519000D01*
G75*
G02*
X100191000Y-63790738I0J-271738D01*
G01*
X100191000Y-64497262D01*
G75*
G02*
X99919262Y-64769000I-271738J0D01*
G01*
X98962738Y-64769000D01*
G75*
G02*
X98691000Y-64497262I0J271738D01*
G01*
X98691000Y-63790738D01*
G75*
G02*
X98962738Y-63519000I271738J0D01*
G01*
G37*
G36*
G01*
X98962738Y-61469000D02*
X99919262Y-61469000D01*
G75*
G02*
X100191000Y-61740738I0J-271738D01*
G01*
X100191000Y-62447262D01*
G75*
G02*
X99919262Y-62719000I-271738J0D01*
G01*
X98962738Y-62719000D01*
G75*
G02*
X98691000Y-62447262I0J271738D01*
G01*
X98691000Y-61740738D01*
G75*
G02*
X98962738Y-61469000I271738J0D01*
G01*
G37*
%TD*%
D17*
%TO.C,D2*%
X97410000Y-75311000D03*
D18*
X94835000Y-75311000D03*
%TD*%
%TO.C,R2*%
G36*
G01*
X98308000Y-71725262D02*
X98308000Y-70768738D01*
G75*
G02*
X98579738Y-70497000I271738J0D01*
G01*
X99286262Y-70497000D01*
G75*
G02*
X99558000Y-70768738I0J-271738D01*
G01*
X99558000Y-71725262D01*
G75*
G02*
X99286262Y-71997000I-271738J0D01*
G01*
X98579738Y-71997000D01*
G75*
G02*
X98308000Y-71725262I0J271738D01*
G01*
G37*
G36*
G01*
X96258000Y-71725262D02*
X96258000Y-70768738D01*
G75*
G02*
X96529738Y-70497000I271738J0D01*
G01*
X97236262Y-70497000D01*
G75*
G02*
X97508000Y-70768738I0J-271738D01*
G01*
X97508000Y-71725262D01*
G75*
G02*
X97236262Y-71997000I-271738J0D01*
G01*
X96529738Y-71997000D01*
G75*
G02*
X96258000Y-71725262I0J271738D01*
G01*
G37*
%TD*%
M02*
