%TF.GenerationSoftware,KiCad,Pcbnew,(5.1.6)-1*%
%TF.CreationDate,2021-05-22T18:41:59+09:00*%
%TF.ProjectId,TinyIR-Panel,54696e79-4952-42d5-9061-6e656c2e6b69,rev?*%
%TF.SameCoordinates,Original*%
%TF.FileFunction,Legend,Top*%
%TF.FilePolarity,Positive*%
%FSLAX46Y46*%
G04 Gerber Fmt 4.6, Leading zero omitted, Abs format (unit mm)*
G04 Created by KiCad (PCBNEW (5.1.6)-1) date 2021-05-22 18:41:59*
%MOMM*%
%LPD*%
G01*
G04 APERTURE LIST*
%ADD10C,0.150000*%
%ADD11C,0.120000*%
%ADD12C,3.000000*%
%ADD13R,1.650000X2.300000*%
%ADD14R,2.600000X2.300000*%
%ADD15C,1.800000*%
%ADD16C,4.100000*%
%ADD17C,2.300000*%
%ADD18O,1.100000X1.100000*%
%ADD19R,1.100000X1.100000*%
G04 APERTURE END LIST*
D10*
X143716952Y-147915380D02*
X143716952Y-148629666D01*
X143669333Y-148772523D01*
X143574095Y-148867761D01*
X143431238Y-148915380D01*
X143336000Y-148915380D01*
X144669333Y-148915380D02*
X144193142Y-148915380D01*
X144193142Y-147915380D01*
X145574095Y-148820142D02*
X145526476Y-148867761D01*
X145383619Y-148915380D01*
X145288380Y-148915380D01*
X145145523Y-148867761D01*
X145050285Y-148772523D01*
X145002666Y-148677285D01*
X144955047Y-148486809D01*
X144955047Y-148343952D01*
X145002666Y-148153476D01*
X145050285Y-148058238D01*
X145145523Y-147963000D01*
X145288380Y-147915380D01*
X145383619Y-147915380D01*
X145526476Y-147963000D01*
X145574095Y-148010619D01*
X146288380Y-147915380D02*
X146288380Y-148629666D01*
X146240761Y-148772523D01*
X146145523Y-148867761D01*
X146002666Y-148915380D01*
X145907428Y-148915380D01*
X147240761Y-148915380D02*
X146764571Y-148915380D01*
X146764571Y-147915380D01*
X148145523Y-148820142D02*
X148097904Y-148867761D01*
X147955047Y-148915380D01*
X147859809Y-148915380D01*
X147716952Y-148867761D01*
X147621714Y-148772523D01*
X147574095Y-148677285D01*
X147526476Y-148486809D01*
X147526476Y-148343952D01*
X147574095Y-148153476D01*
X147621714Y-148058238D01*
X147716952Y-147963000D01*
X147859809Y-147915380D01*
X147955047Y-147915380D01*
X148097904Y-147963000D01*
X148145523Y-148010619D01*
X148859809Y-147915380D02*
X148859809Y-148629666D01*
X148812190Y-148772523D01*
X148716952Y-148867761D01*
X148574095Y-148915380D01*
X148478857Y-148915380D01*
X149812190Y-148915380D02*
X149336000Y-148915380D01*
X149336000Y-147915380D01*
X150716952Y-148820142D02*
X150669333Y-148867761D01*
X150526476Y-148915380D01*
X150431238Y-148915380D01*
X150288380Y-148867761D01*
X150193142Y-148772523D01*
X150145523Y-148677285D01*
X150097904Y-148486809D01*
X150097904Y-148343952D01*
X150145523Y-148153476D01*
X150193142Y-148058238D01*
X150288380Y-147963000D01*
X150431238Y-147915380D01*
X150526476Y-147915380D01*
X150669333Y-147963000D01*
X150716952Y-148010619D01*
X151431238Y-147915380D02*
X151431238Y-148629666D01*
X151383619Y-148772523D01*
X151288380Y-148867761D01*
X151145523Y-148915380D01*
X151050285Y-148915380D01*
X152383619Y-148915380D02*
X151907428Y-148915380D01*
X151907428Y-147915380D01*
X153288380Y-148820142D02*
X153240761Y-148867761D01*
X153097904Y-148915380D01*
X153002666Y-148915380D01*
X152859809Y-148867761D01*
X152764571Y-148772523D01*
X152716952Y-148677285D01*
X152669333Y-148486809D01*
X152669333Y-148343952D01*
X152716952Y-148153476D01*
X152764571Y-148058238D01*
X152859809Y-147963000D01*
X153002666Y-147915380D01*
X153097904Y-147915380D01*
X153240761Y-147963000D01*
X153288380Y-148010619D01*
D11*
%TO.C,D1*%
X134884000Y-135056000D02*
X130984000Y-135056000D01*
X134884000Y-138256000D02*
X130984000Y-138256000D01*
X130984000Y-135056000D02*
X130984000Y-138256000D01*
X153684000Y-116256000D02*
X149784000Y-116256000D01*
X153684000Y-119456000D02*
X149784000Y-119456000D01*
X149784000Y-116256000D02*
X149784000Y-119456000D01*
X134884000Y-116256000D02*
X130984000Y-116256000D01*
X134884000Y-119456000D02*
X130984000Y-119456000D01*
X130984000Y-116256000D02*
X130984000Y-119456000D01*
X97284000Y-135056000D02*
X93384000Y-135056000D01*
X97284000Y-138256000D02*
X93384000Y-138256000D01*
X93384000Y-135056000D02*
X93384000Y-138256000D01*
X116084000Y-135056000D02*
X112184000Y-135056000D01*
X116084000Y-138256000D02*
X112184000Y-138256000D01*
X112184000Y-135056000D02*
X112184000Y-138256000D01*
X153684000Y-135056000D02*
X149784000Y-135056000D01*
X153684000Y-138256000D02*
X149784000Y-138256000D01*
X149784000Y-135056000D02*
X149784000Y-138256000D01*
X93384000Y-116256000D02*
X93384000Y-119456000D01*
X97284000Y-119456000D02*
X93384000Y-119456000D01*
X97284000Y-116256000D02*
X93384000Y-116256000D01*
X116084000Y-116256000D02*
X112184000Y-116256000D01*
X116084000Y-119456000D02*
X112184000Y-119456000D01*
X112184000Y-116256000D02*
X112184000Y-119456000D01*
X153684000Y-92511000D02*
X149784000Y-92511000D01*
X153684000Y-95711000D02*
X149784000Y-95711000D01*
X149784000Y-92511000D02*
X149784000Y-95711000D01*
X134884000Y-92511000D02*
X130984000Y-92511000D01*
X134884000Y-95711000D02*
X130984000Y-95711000D01*
X130984000Y-92511000D02*
X130984000Y-95711000D01*
X116084000Y-92511000D02*
X112184000Y-92511000D01*
X116084000Y-95711000D02*
X112184000Y-95711000D01*
X112184000Y-92511000D02*
X112184000Y-95711000D01*
X97284000Y-92511000D02*
X93384000Y-92511000D01*
X97284000Y-95711000D02*
X93384000Y-95711000D01*
X93384000Y-92511000D02*
X93384000Y-95711000D01*
X153684000Y-73711000D02*
X149784000Y-73711000D01*
X153684000Y-76911000D02*
X149784000Y-76911000D01*
X149784000Y-73711000D02*
X149784000Y-76911000D01*
X134884000Y-73711000D02*
X130984000Y-73711000D01*
X134884000Y-76911000D02*
X130984000Y-76911000D01*
X130984000Y-73711000D02*
X130984000Y-76911000D01*
X116084000Y-73711000D02*
X112184000Y-73711000D01*
X116084000Y-76911000D02*
X112184000Y-76911000D01*
X112184000Y-73711000D02*
X112184000Y-76911000D01*
X93384000Y-73711000D02*
X93384000Y-76911000D01*
X97284000Y-76911000D02*
X93384000Y-76911000D01*
X97284000Y-73711000D02*
X93384000Y-73711000D01*
D10*
X132745904Y-134708380D02*
X132745904Y-133708380D01*
X132984000Y-133708380D01*
X133126857Y-133756000D01*
X133222095Y-133851238D01*
X133269714Y-133946476D01*
X133317333Y-134136952D01*
X133317333Y-134279809D01*
X133269714Y-134470285D01*
X133222095Y-134565523D01*
X133126857Y-134660761D01*
X132984000Y-134708380D01*
X132745904Y-134708380D01*
X134269714Y-134708380D02*
X133698285Y-134708380D01*
X133984000Y-134708380D02*
X133984000Y-133708380D01*
X133888761Y-133851238D01*
X133793523Y-133946476D01*
X133698285Y-133994095D01*
%TO.C,SW1*%
X154253666Y-105052761D02*
X154396523Y-105100380D01*
X154634619Y-105100380D01*
X154729857Y-105052761D01*
X154777476Y-105005142D01*
X154825095Y-104909904D01*
X154825095Y-104814666D01*
X154777476Y-104719428D01*
X154729857Y-104671809D01*
X154634619Y-104624190D01*
X154444142Y-104576571D01*
X154348904Y-104528952D01*
X154301285Y-104481333D01*
X154253666Y-104386095D01*
X154253666Y-104290857D01*
X154301285Y-104195619D01*
X154348904Y-104148000D01*
X154444142Y-104100380D01*
X154682238Y-104100380D01*
X154825095Y-104148000D01*
X155158428Y-104100380D02*
X155396523Y-105100380D01*
X155587000Y-104386095D01*
X155777476Y-105100380D01*
X156015571Y-104100380D01*
X156920333Y-105100380D02*
X156348904Y-105100380D01*
X156634619Y-105100380D02*
X156634619Y-104100380D01*
X156539380Y-104243238D01*
X156444142Y-104338476D01*
X156348904Y-104386095D01*
%TO.C,D1*%
X151545904Y-115908380D02*
X151545904Y-114908380D01*
X151784000Y-114908380D01*
X151926857Y-114956000D01*
X152022095Y-115051238D01*
X152069714Y-115146476D01*
X152117333Y-115336952D01*
X152117333Y-115479809D01*
X152069714Y-115670285D01*
X152022095Y-115765523D01*
X151926857Y-115860761D01*
X151784000Y-115908380D01*
X151545904Y-115908380D01*
X153069714Y-115908380D02*
X152498285Y-115908380D01*
X152784000Y-115908380D02*
X152784000Y-114908380D01*
X152688761Y-115051238D01*
X152593523Y-115146476D01*
X152498285Y-115194095D01*
X132745904Y-115908380D02*
X132745904Y-114908380D01*
X132984000Y-114908380D01*
X133126857Y-114956000D01*
X133222095Y-115051238D01*
X133269714Y-115146476D01*
X133317333Y-115336952D01*
X133317333Y-115479809D01*
X133269714Y-115670285D01*
X133222095Y-115765523D01*
X133126857Y-115860761D01*
X132984000Y-115908380D01*
X132745904Y-115908380D01*
X134269714Y-115908380D02*
X133698285Y-115908380D01*
X133984000Y-115908380D02*
X133984000Y-114908380D01*
X133888761Y-115051238D01*
X133793523Y-115146476D01*
X133698285Y-115194095D01*
%TO.C,SW1*%
X154253666Y-123852761D02*
X154396523Y-123900380D01*
X154634619Y-123900380D01*
X154729857Y-123852761D01*
X154777476Y-123805142D01*
X154825095Y-123709904D01*
X154825095Y-123614666D01*
X154777476Y-123519428D01*
X154729857Y-123471809D01*
X154634619Y-123424190D01*
X154444142Y-123376571D01*
X154348904Y-123328952D01*
X154301285Y-123281333D01*
X154253666Y-123186095D01*
X154253666Y-123090857D01*
X154301285Y-122995619D01*
X154348904Y-122948000D01*
X154444142Y-122900380D01*
X154682238Y-122900380D01*
X154825095Y-122948000D01*
X155158428Y-122900380D02*
X155396523Y-123900380D01*
X155587000Y-123186095D01*
X155777476Y-123900380D01*
X156015571Y-122900380D01*
X156920333Y-123900380D02*
X156348904Y-123900380D01*
X156634619Y-123900380D02*
X156634619Y-122900380D01*
X156539380Y-123043238D01*
X156444142Y-123138476D01*
X156348904Y-123186095D01*
X97853666Y-123852761D02*
X97996523Y-123900380D01*
X98234619Y-123900380D01*
X98329857Y-123852761D01*
X98377476Y-123805142D01*
X98425095Y-123709904D01*
X98425095Y-123614666D01*
X98377476Y-123519428D01*
X98329857Y-123471809D01*
X98234619Y-123424190D01*
X98044142Y-123376571D01*
X97948904Y-123328952D01*
X97901285Y-123281333D01*
X97853666Y-123186095D01*
X97853666Y-123090857D01*
X97901285Y-122995619D01*
X97948904Y-122948000D01*
X98044142Y-122900380D01*
X98282238Y-122900380D01*
X98425095Y-122948000D01*
X98758428Y-122900380D02*
X98996523Y-123900380D01*
X99187000Y-123186095D01*
X99377476Y-123900380D01*
X99615571Y-122900380D01*
X100520333Y-123900380D02*
X99948904Y-123900380D01*
X100234619Y-123900380D02*
X100234619Y-122900380D01*
X100139380Y-123043238D01*
X100044142Y-123138476D01*
X99948904Y-123186095D01*
%TO.C,D1*%
X95145904Y-134708380D02*
X95145904Y-133708380D01*
X95384000Y-133708380D01*
X95526857Y-133756000D01*
X95622095Y-133851238D01*
X95669714Y-133946476D01*
X95717333Y-134136952D01*
X95717333Y-134279809D01*
X95669714Y-134470285D01*
X95622095Y-134565523D01*
X95526857Y-134660761D01*
X95384000Y-134708380D01*
X95145904Y-134708380D01*
X96669714Y-134708380D02*
X96098285Y-134708380D01*
X96384000Y-134708380D02*
X96384000Y-133708380D01*
X96288761Y-133851238D01*
X96193523Y-133946476D01*
X96098285Y-133994095D01*
%TO.C,SW1*%
X116653666Y-123852761D02*
X116796523Y-123900380D01*
X117034619Y-123900380D01*
X117129857Y-123852761D01*
X117177476Y-123805142D01*
X117225095Y-123709904D01*
X117225095Y-123614666D01*
X117177476Y-123519428D01*
X117129857Y-123471809D01*
X117034619Y-123424190D01*
X116844142Y-123376571D01*
X116748904Y-123328952D01*
X116701285Y-123281333D01*
X116653666Y-123186095D01*
X116653666Y-123090857D01*
X116701285Y-122995619D01*
X116748904Y-122948000D01*
X116844142Y-122900380D01*
X117082238Y-122900380D01*
X117225095Y-122948000D01*
X117558428Y-122900380D02*
X117796523Y-123900380D01*
X117987000Y-123186095D01*
X118177476Y-123900380D01*
X118415571Y-122900380D01*
X119320333Y-123900380D02*
X118748904Y-123900380D01*
X119034619Y-123900380D02*
X119034619Y-122900380D01*
X118939380Y-123043238D01*
X118844142Y-123138476D01*
X118748904Y-123186095D01*
%TO.C,D1*%
X113945904Y-134708380D02*
X113945904Y-133708380D01*
X114184000Y-133708380D01*
X114326857Y-133756000D01*
X114422095Y-133851238D01*
X114469714Y-133946476D01*
X114517333Y-134136952D01*
X114517333Y-134279809D01*
X114469714Y-134470285D01*
X114422095Y-134565523D01*
X114326857Y-134660761D01*
X114184000Y-134708380D01*
X113945904Y-134708380D01*
X115469714Y-134708380D02*
X114898285Y-134708380D01*
X115184000Y-134708380D02*
X115184000Y-133708380D01*
X115088761Y-133851238D01*
X114993523Y-133946476D01*
X114898285Y-133994095D01*
%TO.C,SW1*%
X135453666Y-123852761D02*
X135596523Y-123900380D01*
X135834619Y-123900380D01*
X135929857Y-123852761D01*
X135977476Y-123805142D01*
X136025095Y-123709904D01*
X136025095Y-123614666D01*
X135977476Y-123519428D01*
X135929857Y-123471809D01*
X135834619Y-123424190D01*
X135644142Y-123376571D01*
X135548904Y-123328952D01*
X135501285Y-123281333D01*
X135453666Y-123186095D01*
X135453666Y-123090857D01*
X135501285Y-122995619D01*
X135548904Y-122948000D01*
X135644142Y-122900380D01*
X135882238Y-122900380D01*
X136025095Y-122948000D01*
X136358428Y-122900380D02*
X136596523Y-123900380D01*
X136787000Y-123186095D01*
X136977476Y-123900380D01*
X137215571Y-122900380D01*
X138120333Y-123900380D02*
X137548904Y-123900380D01*
X137834619Y-123900380D02*
X137834619Y-122900380D01*
X137739380Y-123043238D01*
X137644142Y-123138476D01*
X137548904Y-123186095D01*
X116653666Y-105052761D02*
X116796523Y-105100380D01*
X117034619Y-105100380D01*
X117129857Y-105052761D01*
X117177476Y-105005142D01*
X117225095Y-104909904D01*
X117225095Y-104814666D01*
X117177476Y-104719428D01*
X117129857Y-104671809D01*
X117034619Y-104624190D01*
X116844142Y-104576571D01*
X116748904Y-104528952D01*
X116701285Y-104481333D01*
X116653666Y-104386095D01*
X116653666Y-104290857D01*
X116701285Y-104195619D01*
X116748904Y-104148000D01*
X116844142Y-104100380D01*
X117082238Y-104100380D01*
X117225095Y-104148000D01*
X117558428Y-104100380D02*
X117796523Y-105100380D01*
X117987000Y-104386095D01*
X118177476Y-105100380D01*
X118415571Y-104100380D01*
X119320333Y-105100380D02*
X118748904Y-105100380D01*
X119034619Y-105100380D02*
X119034619Y-104100380D01*
X118939380Y-104243238D01*
X118844142Y-104338476D01*
X118748904Y-104386095D01*
%TO.C,D1*%
X151545904Y-134708380D02*
X151545904Y-133708380D01*
X151784000Y-133708380D01*
X151926857Y-133756000D01*
X152022095Y-133851238D01*
X152069714Y-133946476D01*
X152117333Y-134136952D01*
X152117333Y-134279809D01*
X152069714Y-134470285D01*
X152022095Y-134565523D01*
X151926857Y-134660761D01*
X151784000Y-134708380D01*
X151545904Y-134708380D01*
X153069714Y-134708380D02*
X152498285Y-134708380D01*
X152784000Y-134708380D02*
X152784000Y-133708380D01*
X152688761Y-133851238D01*
X152593523Y-133946476D01*
X152498285Y-133994095D01*
%TO.C,SW1*%
X135453666Y-105052761D02*
X135596523Y-105100380D01*
X135834619Y-105100380D01*
X135929857Y-105052761D01*
X135977476Y-105005142D01*
X136025095Y-104909904D01*
X136025095Y-104814666D01*
X135977476Y-104719428D01*
X135929857Y-104671809D01*
X135834619Y-104624190D01*
X135644142Y-104576571D01*
X135548904Y-104528952D01*
X135501285Y-104481333D01*
X135453666Y-104386095D01*
X135453666Y-104290857D01*
X135501285Y-104195619D01*
X135548904Y-104148000D01*
X135644142Y-104100380D01*
X135882238Y-104100380D01*
X136025095Y-104148000D01*
X136358428Y-104100380D02*
X136596523Y-105100380D01*
X136787000Y-104386095D01*
X136977476Y-105100380D01*
X137215571Y-104100380D01*
X138120333Y-105100380D02*
X137548904Y-105100380D01*
X137834619Y-105100380D02*
X137834619Y-104100380D01*
X137739380Y-104243238D01*
X137644142Y-104338476D01*
X137548904Y-104386095D01*
X97853666Y-105052761D02*
X97996523Y-105100380D01*
X98234619Y-105100380D01*
X98329857Y-105052761D01*
X98377476Y-105005142D01*
X98425095Y-104909904D01*
X98425095Y-104814666D01*
X98377476Y-104719428D01*
X98329857Y-104671809D01*
X98234619Y-104624190D01*
X98044142Y-104576571D01*
X97948904Y-104528952D01*
X97901285Y-104481333D01*
X97853666Y-104386095D01*
X97853666Y-104290857D01*
X97901285Y-104195619D01*
X97948904Y-104148000D01*
X98044142Y-104100380D01*
X98282238Y-104100380D01*
X98425095Y-104148000D01*
X98758428Y-104100380D02*
X98996523Y-105100380D01*
X99187000Y-104386095D01*
X99377476Y-105100380D01*
X99615571Y-104100380D01*
X100520333Y-105100380D02*
X99948904Y-105100380D01*
X100234619Y-105100380D02*
X100234619Y-104100380D01*
X100139380Y-104243238D01*
X100044142Y-104338476D01*
X99948904Y-104386095D01*
%TO.C,D1*%
X95145904Y-115908380D02*
X95145904Y-114908380D01*
X95384000Y-114908380D01*
X95526857Y-114956000D01*
X95622095Y-115051238D01*
X95669714Y-115146476D01*
X95717333Y-115336952D01*
X95717333Y-115479809D01*
X95669714Y-115670285D01*
X95622095Y-115765523D01*
X95526857Y-115860761D01*
X95384000Y-115908380D01*
X95145904Y-115908380D01*
X96669714Y-115908380D02*
X96098285Y-115908380D01*
X96384000Y-115908380D02*
X96384000Y-114908380D01*
X96288761Y-115051238D01*
X96193523Y-115146476D01*
X96098285Y-115194095D01*
X113945904Y-115908380D02*
X113945904Y-114908380D01*
X114184000Y-114908380D01*
X114326857Y-114956000D01*
X114422095Y-115051238D01*
X114469714Y-115146476D01*
X114517333Y-115336952D01*
X114517333Y-115479809D01*
X114469714Y-115670285D01*
X114422095Y-115765523D01*
X114326857Y-115860761D01*
X114184000Y-115908380D01*
X113945904Y-115908380D01*
X115469714Y-115908380D02*
X114898285Y-115908380D01*
X115184000Y-115908380D02*
X115184000Y-114908380D01*
X115088761Y-115051238D01*
X114993523Y-115146476D01*
X114898285Y-115194095D01*
%TO.C,SW1*%
X154253666Y-81307761D02*
X154396523Y-81355380D01*
X154634619Y-81355380D01*
X154729857Y-81307761D01*
X154777476Y-81260142D01*
X154825095Y-81164904D01*
X154825095Y-81069666D01*
X154777476Y-80974428D01*
X154729857Y-80926809D01*
X154634619Y-80879190D01*
X154444142Y-80831571D01*
X154348904Y-80783952D01*
X154301285Y-80736333D01*
X154253666Y-80641095D01*
X154253666Y-80545857D01*
X154301285Y-80450619D01*
X154348904Y-80403000D01*
X154444142Y-80355380D01*
X154682238Y-80355380D01*
X154825095Y-80403000D01*
X155158428Y-80355380D02*
X155396523Y-81355380D01*
X155587000Y-80641095D01*
X155777476Y-81355380D01*
X156015571Y-80355380D01*
X156920333Y-81355380D02*
X156348904Y-81355380D01*
X156634619Y-81355380D02*
X156634619Y-80355380D01*
X156539380Y-80498238D01*
X156444142Y-80593476D01*
X156348904Y-80641095D01*
X135453666Y-81307761D02*
X135596523Y-81355380D01*
X135834619Y-81355380D01*
X135929857Y-81307761D01*
X135977476Y-81260142D01*
X136025095Y-81164904D01*
X136025095Y-81069666D01*
X135977476Y-80974428D01*
X135929857Y-80926809D01*
X135834619Y-80879190D01*
X135644142Y-80831571D01*
X135548904Y-80783952D01*
X135501285Y-80736333D01*
X135453666Y-80641095D01*
X135453666Y-80545857D01*
X135501285Y-80450619D01*
X135548904Y-80403000D01*
X135644142Y-80355380D01*
X135882238Y-80355380D01*
X136025095Y-80403000D01*
X136358428Y-80355380D02*
X136596523Y-81355380D01*
X136787000Y-80641095D01*
X136977476Y-81355380D01*
X137215571Y-80355380D01*
X138120333Y-81355380D02*
X137548904Y-81355380D01*
X137834619Y-81355380D02*
X137834619Y-80355380D01*
X137739380Y-80498238D01*
X137644142Y-80593476D01*
X137548904Y-80641095D01*
X116653666Y-81307761D02*
X116796523Y-81355380D01*
X117034619Y-81355380D01*
X117129857Y-81307761D01*
X117177476Y-81260142D01*
X117225095Y-81164904D01*
X117225095Y-81069666D01*
X117177476Y-80974428D01*
X117129857Y-80926809D01*
X117034619Y-80879190D01*
X116844142Y-80831571D01*
X116748904Y-80783952D01*
X116701285Y-80736333D01*
X116653666Y-80641095D01*
X116653666Y-80545857D01*
X116701285Y-80450619D01*
X116748904Y-80403000D01*
X116844142Y-80355380D01*
X117082238Y-80355380D01*
X117225095Y-80403000D01*
X117558428Y-80355380D02*
X117796523Y-81355380D01*
X117987000Y-80641095D01*
X118177476Y-81355380D01*
X118415571Y-80355380D01*
X119320333Y-81355380D02*
X118748904Y-81355380D01*
X119034619Y-81355380D02*
X119034619Y-80355380D01*
X118939380Y-80498238D01*
X118844142Y-80593476D01*
X118748904Y-80641095D01*
X97853666Y-81307761D02*
X97996523Y-81355380D01*
X98234619Y-81355380D01*
X98329857Y-81307761D01*
X98377476Y-81260142D01*
X98425095Y-81164904D01*
X98425095Y-81069666D01*
X98377476Y-80974428D01*
X98329857Y-80926809D01*
X98234619Y-80879190D01*
X98044142Y-80831571D01*
X97948904Y-80783952D01*
X97901285Y-80736333D01*
X97853666Y-80641095D01*
X97853666Y-80545857D01*
X97901285Y-80450619D01*
X97948904Y-80403000D01*
X98044142Y-80355380D01*
X98282238Y-80355380D01*
X98425095Y-80403000D01*
X98758428Y-80355380D02*
X98996523Y-81355380D01*
X99187000Y-80641095D01*
X99377476Y-81355380D01*
X99615571Y-80355380D01*
X100520333Y-81355380D02*
X99948904Y-81355380D01*
X100234619Y-81355380D02*
X100234619Y-80355380D01*
X100139380Y-80498238D01*
X100044142Y-80593476D01*
X99948904Y-80641095D01*
X154253666Y-62507761D02*
X154396523Y-62555380D01*
X154634619Y-62555380D01*
X154729857Y-62507761D01*
X154777476Y-62460142D01*
X154825095Y-62364904D01*
X154825095Y-62269666D01*
X154777476Y-62174428D01*
X154729857Y-62126809D01*
X154634619Y-62079190D01*
X154444142Y-62031571D01*
X154348904Y-61983952D01*
X154301285Y-61936333D01*
X154253666Y-61841095D01*
X154253666Y-61745857D01*
X154301285Y-61650619D01*
X154348904Y-61603000D01*
X154444142Y-61555380D01*
X154682238Y-61555380D01*
X154825095Y-61603000D01*
X155158428Y-61555380D02*
X155396523Y-62555380D01*
X155587000Y-61841095D01*
X155777476Y-62555380D01*
X156015571Y-61555380D01*
X156920333Y-62555380D02*
X156348904Y-62555380D01*
X156634619Y-62555380D02*
X156634619Y-61555380D01*
X156539380Y-61698238D01*
X156444142Y-61793476D01*
X156348904Y-61841095D01*
X135453666Y-62507761D02*
X135596523Y-62555380D01*
X135834619Y-62555380D01*
X135929857Y-62507761D01*
X135977476Y-62460142D01*
X136025095Y-62364904D01*
X136025095Y-62269666D01*
X135977476Y-62174428D01*
X135929857Y-62126809D01*
X135834619Y-62079190D01*
X135644142Y-62031571D01*
X135548904Y-61983952D01*
X135501285Y-61936333D01*
X135453666Y-61841095D01*
X135453666Y-61745857D01*
X135501285Y-61650619D01*
X135548904Y-61603000D01*
X135644142Y-61555380D01*
X135882238Y-61555380D01*
X136025095Y-61603000D01*
X136358428Y-61555380D02*
X136596523Y-62555380D01*
X136787000Y-61841095D01*
X136977476Y-62555380D01*
X137215571Y-61555380D01*
X138120333Y-62555380D02*
X137548904Y-62555380D01*
X137834619Y-62555380D02*
X137834619Y-61555380D01*
X137739380Y-61698238D01*
X137644142Y-61793476D01*
X137548904Y-61841095D01*
X116653666Y-62507761D02*
X116796523Y-62555380D01*
X117034619Y-62555380D01*
X117129857Y-62507761D01*
X117177476Y-62460142D01*
X117225095Y-62364904D01*
X117225095Y-62269666D01*
X117177476Y-62174428D01*
X117129857Y-62126809D01*
X117034619Y-62079190D01*
X116844142Y-62031571D01*
X116748904Y-61983952D01*
X116701285Y-61936333D01*
X116653666Y-61841095D01*
X116653666Y-61745857D01*
X116701285Y-61650619D01*
X116748904Y-61603000D01*
X116844142Y-61555380D01*
X117082238Y-61555380D01*
X117225095Y-61603000D01*
X117558428Y-61555380D02*
X117796523Y-62555380D01*
X117987000Y-61841095D01*
X118177476Y-62555380D01*
X118415571Y-61555380D01*
X119320333Y-62555380D02*
X118748904Y-62555380D01*
X119034619Y-62555380D02*
X119034619Y-61555380D01*
X118939380Y-61698238D01*
X118844142Y-61793476D01*
X118748904Y-61841095D01*
%TO.C,D1*%
X151545904Y-92163380D02*
X151545904Y-91163380D01*
X151784000Y-91163380D01*
X151926857Y-91211000D01*
X152022095Y-91306238D01*
X152069714Y-91401476D01*
X152117333Y-91591952D01*
X152117333Y-91734809D01*
X152069714Y-91925285D01*
X152022095Y-92020523D01*
X151926857Y-92115761D01*
X151784000Y-92163380D01*
X151545904Y-92163380D01*
X153069714Y-92163380D02*
X152498285Y-92163380D01*
X152784000Y-92163380D02*
X152784000Y-91163380D01*
X152688761Y-91306238D01*
X152593523Y-91401476D01*
X152498285Y-91449095D01*
X132745904Y-92163380D02*
X132745904Y-91163380D01*
X132984000Y-91163380D01*
X133126857Y-91211000D01*
X133222095Y-91306238D01*
X133269714Y-91401476D01*
X133317333Y-91591952D01*
X133317333Y-91734809D01*
X133269714Y-91925285D01*
X133222095Y-92020523D01*
X133126857Y-92115761D01*
X132984000Y-92163380D01*
X132745904Y-92163380D01*
X134269714Y-92163380D02*
X133698285Y-92163380D01*
X133984000Y-92163380D02*
X133984000Y-91163380D01*
X133888761Y-91306238D01*
X133793523Y-91401476D01*
X133698285Y-91449095D01*
X113945904Y-92163380D02*
X113945904Y-91163380D01*
X114184000Y-91163380D01*
X114326857Y-91211000D01*
X114422095Y-91306238D01*
X114469714Y-91401476D01*
X114517333Y-91591952D01*
X114517333Y-91734809D01*
X114469714Y-91925285D01*
X114422095Y-92020523D01*
X114326857Y-92115761D01*
X114184000Y-92163380D01*
X113945904Y-92163380D01*
X115469714Y-92163380D02*
X114898285Y-92163380D01*
X115184000Y-92163380D02*
X115184000Y-91163380D01*
X115088761Y-91306238D01*
X114993523Y-91401476D01*
X114898285Y-91449095D01*
X95145904Y-92163380D02*
X95145904Y-91163380D01*
X95384000Y-91163380D01*
X95526857Y-91211000D01*
X95622095Y-91306238D01*
X95669714Y-91401476D01*
X95717333Y-91591952D01*
X95717333Y-91734809D01*
X95669714Y-91925285D01*
X95622095Y-92020523D01*
X95526857Y-92115761D01*
X95384000Y-92163380D01*
X95145904Y-92163380D01*
X96669714Y-92163380D02*
X96098285Y-92163380D01*
X96384000Y-92163380D02*
X96384000Y-91163380D01*
X96288761Y-91306238D01*
X96193523Y-91401476D01*
X96098285Y-91449095D01*
X151545904Y-73363380D02*
X151545904Y-72363380D01*
X151784000Y-72363380D01*
X151926857Y-72411000D01*
X152022095Y-72506238D01*
X152069714Y-72601476D01*
X152117333Y-72791952D01*
X152117333Y-72934809D01*
X152069714Y-73125285D01*
X152022095Y-73220523D01*
X151926857Y-73315761D01*
X151784000Y-73363380D01*
X151545904Y-73363380D01*
X153069714Y-73363380D02*
X152498285Y-73363380D01*
X152784000Y-73363380D02*
X152784000Y-72363380D01*
X152688761Y-72506238D01*
X152593523Y-72601476D01*
X152498285Y-72649095D01*
X132745904Y-73363380D02*
X132745904Y-72363380D01*
X132984000Y-72363380D01*
X133126857Y-72411000D01*
X133222095Y-72506238D01*
X133269714Y-72601476D01*
X133317333Y-72791952D01*
X133317333Y-72934809D01*
X133269714Y-73125285D01*
X133222095Y-73220523D01*
X133126857Y-73315761D01*
X132984000Y-73363380D01*
X132745904Y-73363380D01*
X134269714Y-73363380D02*
X133698285Y-73363380D01*
X133984000Y-73363380D02*
X133984000Y-72363380D01*
X133888761Y-72506238D01*
X133793523Y-72601476D01*
X133698285Y-72649095D01*
X113945904Y-73363380D02*
X113945904Y-72363380D01*
X114184000Y-72363380D01*
X114326857Y-72411000D01*
X114422095Y-72506238D01*
X114469714Y-72601476D01*
X114517333Y-72791952D01*
X114517333Y-72934809D01*
X114469714Y-73125285D01*
X114422095Y-73220523D01*
X114326857Y-73315761D01*
X114184000Y-73363380D01*
X113945904Y-73363380D01*
X115469714Y-73363380D02*
X114898285Y-73363380D01*
X115184000Y-73363380D02*
X115184000Y-72363380D01*
X115088761Y-72506238D01*
X114993523Y-72601476D01*
X114898285Y-72649095D01*
%TO.C,SW1*%
X97853666Y-62507761D02*
X97996523Y-62555380D01*
X98234619Y-62555380D01*
X98329857Y-62507761D01*
X98377476Y-62460142D01*
X98425095Y-62364904D01*
X98425095Y-62269666D01*
X98377476Y-62174428D01*
X98329857Y-62126809D01*
X98234619Y-62079190D01*
X98044142Y-62031571D01*
X97948904Y-61983952D01*
X97901285Y-61936333D01*
X97853666Y-61841095D01*
X97853666Y-61745857D01*
X97901285Y-61650619D01*
X97948904Y-61603000D01*
X98044142Y-61555380D01*
X98282238Y-61555380D01*
X98425095Y-61603000D01*
X98758428Y-61555380D02*
X98996523Y-62555380D01*
X99187000Y-61841095D01*
X99377476Y-62555380D01*
X99615571Y-61555380D01*
X100520333Y-62555380D02*
X99948904Y-62555380D01*
X100234619Y-62555380D02*
X100234619Y-61555380D01*
X100139380Y-61698238D01*
X100044142Y-61793476D01*
X99948904Y-61841095D01*
%TO.C,D1*%
X95145904Y-73363380D02*
X95145904Y-72363380D01*
X95384000Y-72363380D01*
X95526857Y-72411000D01*
X95622095Y-72506238D01*
X95669714Y-72601476D01*
X95717333Y-72791952D01*
X95717333Y-72934809D01*
X95669714Y-73125285D01*
X95622095Y-73220523D01*
X95526857Y-73315761D01*
X95384000Y-73363380D01*
X95145904Y-73363380D01*
X96669714Y-73363380D02*
X96098285Y-73363380D01*
X96384000Y-73363380D02*
X96384000Y-72363380D01*
X96288761Y-72506238D01*
X96193523Y-72601476D01*
X96098285Y-72649095D01*
%TD*%
%LPC*%
D12*
%TO.C,REF\u002A\u002A*%
X98298000Y-54610000D03*
%TD*%
%TO.C,REF\u002A\u002A*%
X145542000Y-144780000D03*
%TD*%
D13*
%TO.C,D1*%
X135009000Y-136656000D03*
D14*
X132434000Y-136656000D03*
%TD*%
D15*
%TO.C,SW1*%
X155333000Y-111760000D03*
X145173000Y-111760000D03*
D16*
X150253000Y-111760000D03*
D17*
X146443000Y-109220000D03*
X152793000Y-106680000D03*
%TD*%
D13*
%TO.C,D1*%
X153809000Y-117856000D03*
D14*
X151234000Y-117856000D03*
%TD*%
D13*
%TO.C,D1*%
X135009000Y-117856000D03*
D14*
X132434000Y-117856000D03*
%TD*%
D18*
%TO.C,J1*%
X124341000Y-109728000D03*
X124341000Y-108458000D03*
X124341000Y-107188000D03*
X124341000Y-105918000D03*
D19*
X124341000Y-104648000D03*
%TD*%
D15*
%TO.C,SW1*%
X155333000Y-130560000D03*
X145173000Y-130560000D03*
D16*
X150253000Y-130560000D03*
D17*
X146443000Y-128020000D03*
X152793000Y-125480000D03*
%TD*%
D18*
%TO.C,J1*%
X105541000Y-109728000D03*
X105541000Y-108458000D03*
X105541000Y-107188000D03*
X105541000Y-105918000D03*
D19*
X105541000Y-104648000D03*
%TD*%
D15*
%TO.C,SW1*%
X98933000Y-130560000D03*
X88773000Y-130560000D03*
D16*
X93853000Y-130560000D03*
D17*
X90043000Y-128020000D03*
X96393000Y-125480000D03*
%TD*%
D13*
%TO.C,D1*%
X97409000Y-136656000D03*
D14*
X94834000Y-136656000D03*
%TD*%
D15*
%TO.C,SW1*%
X117733000Y-130560000D03*
X107573000Y-130560000D03*
D16*
X112653000Y-130560000D03*
D17*
X108843000Y-128020000D03*
X115193000Y-125480000D03*
%TD*%
D13*
%TO.C,D1*%
X116209000Y-136656000D03*
D14*
X113634000Y-136656000D03*
%TD*%
D15*
%TO.C,SW1*%
X136533000Y-130560000D03*
X126373000Y-130560000D03*
D16*
X131453000Y-130560000D03*
D17*
X127643000Y-128020000D03*
X133993000Y-125480000D03*
%TD*%
D15*
%TO.C,SW1*%
X117733000Y-111760000D03*
X107573000Y-111760000D03*
D16*
X112653000Y-111760000D03*
D17*
X108843000Y-109220000D03*
X115193000Y-106680000D03*
%TD*%
D13*
%TO.C,D1*%
X153809000Y-136656000D03*
D14*
X151234000Y-136656000D03*
%TD*%
D15*
%TO.C,SW1*%
X136533000Y-111760000D03*
X126373000Y-111760000D03*
D16*
X131453000Y-111760000D03*
D17*
X127643000Y-109220000D03*
X133993000Y-106680000D03*
%TD*%
D18*
%TO.C,J1*%
X143141000Y-109728000D03*
X143141000Y-108458000D03*
X143141000Y-107188000D03*
X143141000Y-105918000D03*
D19*
X143141000Y-104648000D03*
%TD*%
%TO.C,J1*%
X86741000Y-104648000D03*
D18*
X86741000Y-105918000D03*
X86741000Y-107188000D03*
X86741000Y-108458000D03*
X86741000Y-109728000D03*
%TD*%
D17*
%TO.C,SW1*%
X96393000Y-106680000D03*
X90043000Y-109220000D03*
D16*
X93853000Y-111760000D03*
D15*
X88773000Y-111760000D03*
X98933000Y-111760000D03*
%TD*%
D14*
%TO.C,D1*%
X94834000Y-117856000D03*
D13*
X97409000Y-117856000D03*
%TD*%
%TO.C,D1*%
X116209000Y-117856000D03*
D14*
X113634000Y-117856000D03*
%TD*%
D18*
%TO.C,J1*%
X143141000Y-128528000D03*
X143141000Y-127258000D03*
X143141000Y-125988000D03*
X143141000Y-124718000D03*
D19*
X143141000Y-123448000D03*
%TD*%
D18*
%TO.C,J1*%
X105541000Y-128528000D03*
X105541000Y-127258000D03*
X105541000Y-125988000D03*
X105541000Y-124718000D03*
D19*
X105541000Y-123448000D03*
%TD*%
D18*
%TO.C,J1*%
X124341000Y-128528000D03*
X124341000Y-127258000D03*
X124341000Y-125988000D03*
X124341000Y-124718000D03*
D19*
X124341000Y-123448000D03*
%TD*%
D18*
%TO.C,J1*%
X86741000Y-128528000D03*
X86741000Y-127258000D03*
X86741000Y-125988000D03*
X86741000Y-124718000D03*
D19*
X86741000Y-123448000D03*
%TD*%
%TO.C,J1*%
X143141000Y-80903000D03*
D18*
X143141000Y-82173000D03*
X143141000Y-83443000D03*
X143141000Y-84713000D03*
X143141000Y-85983000D03*
%TD*%
D19*
%TO.C,J1*%
X124341000Y-80903000D03*
D18*
X124341000Y-82173000D03*
X124341000Y-83443000D03*
X124341000Y-84713000D03*
X124341000Y-85983000D03*
%TD*%
D19*
%TO.C,J1*%
X105541000Y-80903000D03*
D18*
X105541000Y-82173000D03*
X105541000Y-83443000D03*
X105541000Y-84713000D03*
X105541000Y-85983000D03*
%TD*%
D19*
%TO.C,J1*%
X86741000Y-80903000D03*
D18*
X86741000Y-82173000D03*
X86741000Y-83443000D03*
X86741000Y-84713000D03*
X86741000Y-85983000D03*
%TD*%
D19*
%TO.C,J1*%
X143141000Y-62103000D03*
D18*
X143141000Y-63373000D03*
X143141000Y-64643000D03*
X143141000Y-65913000D03*
X143141000Y-67183000D03*
%TD*%
D19*
%TO.C,J1*%
X124341000Y-62103000D03*
D18*
X124341000Y-63373000D03*
X124341000Y-64643000D03*
X124341000Y-65913000D03*
X124341000Y-67183000D03*
%TD*%
D19*
%TO.C,J1*%
X105541000Y-62103000D03*
D18*
X105541000Y-63373000D03*
X105541000Y-64643000D03*
X105541000Y-65913000D03*
X105541000Y-67183000D03*
%TD*%
D17*
%TO.C,SW1*%
X152793000Y-82935000D03*
X146443000Y-85475000D03*
D16*
X150253000Y-88015000D03*
D15*
X145173000Y-88015000D03*
X155333000Y-88015000D03*
%TD*%
D17*
%TO.C,SW1*%
X133993000Y-82935000D03*
X127643000Y-85475000D03*
D16*
X131453000Y-88015000D03*
D15*
X126373000Y-88015000D03*
X136533000Y-88015000D03*
%TD*%
D17*
%TO.C,SW1*%
X115193000Y-82935000D03*
X108843000Y-85475000D03*
D16*
X112653000Y-88015000D03*
D15*
X107573000Y-88015000D03*
X117733000Y-88015000D03*
%TD*%
D17*
%TO.C,SW1*%
X96393000Y-82935000D03*
X90043000Y-85475000D03*
D16*
X93853000Y-88015000D03*
D15*
X88773000Y-88015000D03*
X98933000Y-88015000D03*
%TD*%
D17*
%TO.C,SW1*%
X152793000Y-64135000D03*
X146443000Y-66675000D03*
D16*
X150253000Y-69215000D03*
D15*
X145173000Y-69215000D03*
X155333000Y-69215000D03*
%TD*%
D17*
%TO.C,SW1*%
X133993000Y-64135000D03*
X127643000Y-66675000D03*
D16*
X131453000Y-69215000D03*
D15*
X126373000Y-69215000D03*
X136533000Y-69215000D03*
%TD*%
D17*
%TO.C,SW1*%
X115193000Y-64135000D03*
X108843000Y-66675000D03*
D16*
X112653000Y-69215000D03*
D15*
X107573000Y-69215000D03*
X117733000Y-69215000D03*
%TD*%
D14*
%TO.C,D1*%
X151234000Y-94111000D03*
D13*
X153809000Y-94111000D03*
%TD*%
D14*
%TO.C,D1*%
X132434000Y-94111000D03*
D13*
X135009000Y-94111000D03*
%TD*%
D14*
%TO.C,D1*%
X113634000Y-94111000D03*
D13*
X116209000Y-94111000D03*
%TD*%
D14*
%TO.C,D1*%
X94834000Y-94111000D03*
D13*
X97409000Y-94111000D03*
%TD*%
D14*
%TO.C,D1*%
X151234000Y-75311000D03*
D13*
X153809000Y-75311000D03*
%TD*%
D14*
%TO.C,D1*%
X132434000Y-75311000D03*
D13*
X135009000Y-75311000D03*
%TD*%
D14*
%TO.C,D1*%
X113634000Y-75311000D03*
D13*
X116209000Y-75311000D03*
%TD*%
D18*
%TO.C,J1*%
X86741000Y-67183000D03*
X86741000Y-65913000D03*
X86741000Y-64643000D03*
X86741000Y-63373000D03*
D19*
X86741000Y-62103000D03*
%TD*%
D15*
%TO.C,SW1*%
X98933000Y-69215000D03*
X88773000Y-69215000D03*
D16*
X93853000Y-69215000D03*
D17*
X90043000Y-66675000D03*
X96393000Y-64135000D03*
%TD*%
D13*
%TO.C,D1*%
X97409000Y-75311000D03*
D14*
X94834000Y-75311000D03*
%TD*%
M02*
