%TF.GenerationSoftware,KiCad,Pcbnew,(5.1.6)-1*%
%TF.CreationDate,2021-05-22T18:41:59+09:00*%
%TF.ProjectId,TinyIR-Panel,54696e79-4952-42d5-9061-6e656c2e6b69,rev?*%
%TF.SameCoordinates,Original*%
%TF.FileFunction,Soldermask,Bot*%
%TF.FilePolarity,Negative*%
%FSLAX46Y46*%
G04 Gerber Fmt 4.6, Leading zero omitted, Abs format (unit mm)*
G04 Created by KiCad (PCBNEW (5.1.6)-1) date 2021-05-22 18:41:59*
%MOMM*%
%LPD*%
G01*
G04 APERTURE LIST*
%ADD10C,1.800000*%
%ADD11C,4.100000*%
%ADD12C,2.300000*%
%ADD13O,1.100000X1.100000*%
%ADD14R,1.100000X1.100000*%
%ADD15R,1.650000X2.300000*%
%ADD16R,2.600000X2.300000*%
%ADD17R,0.750000X2.100000*%
%ADD18R,0.600000X2.100000*%
%ADD19R,1.660000X0.750000*%
G04 APERTURE END LIST*
D10*
%TO.C,SW1*%
X155333000Y-111760000D03*
X145173000Y-111760000D03*
D11*
X150253000Y-111760000D03*
D12*
X146443000Y-109220000D03*
X152793000Y-106680000D03*
%TD*%
D13*
%TO.C,J1*%
X124341000Y-109728000D03*
X124341000Y-108458000D03*
X124341000Y-107188000D03*
X124341000Y-105918000D03*
D14*
X124341000Y-104648000D03*
%TD*%
D10*
%TO.C,SW1*%
X155333000Y-130560000D03*
X145173000Y-130560000D03*
D11*
X150253000Y-130560000D03*
D12*
X146443000Y-128020000D03*
X152793000Y-125480000D03*
%TD*%
D13*
%TO.C,J1*%
X105541000Y-109728000D03*
X105541000Y-108458000D03*
X105541000Y-107188000D03*
X105541000Y-105918000D03*
D14*
X105541000Y-104648000D03*
%TD*%
D10*
%TO.C,SW1*%
X98933000Y-130560000D03*
X88773000Y-130560000D03*
D11*
X93853000Y-130560000D03*
D12*
X90043000Y-128020000D03*
X96393000Y-125480000D03*
%TD*%
D10*
%TO.C,SW1*%
X117733000Y-130560000D03*
X107573000Y-130560000D03*
D11*
X112653000Y-130560000D03*
D12*
X108843000Y-128020000D03*
X115193000Y-125480000D03*
%TD*%
D10*
%TO.C,SW1*%
X136533000Y-130560000D03*
X126373000Y-130560000D03*
D11*
X131453000Y-130560000D03*
D12*
X127643000Y-128020000D03*
X133993000Y-125480000D03*
%TD*%
D10*
%TO.C,SW1*%
X117733000Y-111760000D03*
X107573000Y-111760000D03*
D11*
X112653000Y-111760000D03*
D12*
X108843000Y-109220000D03*
X115193000Y-106680000D03*
%TD*%
D10*
%TO.C,SW1*%
X136533000Y-111760000D03*
X126373000Y-111760000D03*
D11*
X131453000Y-111760000D03*
D12*
X127643000Y-109220000D03*
X133993000Y-106680000D03*
%TD*%
D13*
%TO.C,J1*%
X143141000Y-109728000D03*
X143141000Y-108458000D03*
X143141000Y-107188000D03*
X143141000Y-105918000D03*
D14*
X143141000Y-104648000D03*
%TD*%
%TO.C,R2*%
G36*
G01*
X98308000Y-133070262D02*
X98308000Y-132113738D01*
G75*
G02*
X98579738Y-131842000I271738J0D01*
G01*
X99286262Y-131842000D01*
G75*
G02*
X99558000Y-132113738I0J-271738D01*
G01*
X99558000Y-133070262D01*
G75*
G02*
X99286262Y-133342000I-271738J0D01*
G01*
X98579738Y-133342000D01*
G75*
G02*
X98308000Y-133070262I0J271738D01*
G01*
G37*
G36*
G01*
X96258000Y-133070262D02*
X96258000Y-132113738D01*
G75*
G02*
X96529738Y-131842000I271738J0D01*
G01*
X97236262Y-131842000D01*
G75*
G02*
X97508000Y-132113738I0J-271738D01*
G01*
X97508000Y-133070262D01*
G75*
G02*
X97236262Y-133342000I-271738J0D01*
G01*
X96529738Y-133342000D01*
G75*
G02*
X96258000Y-133070262I0J271738D01*
G01*
G37*
%TD*%
%TO.C,R2*%
G36*
G01*
X154708000Y-114270262D02*
X154708000Y-113313738D01*
G75*
G02*
X154979738Y-113042000I271738J0D01*
G01*
X155686262Y-113042000D01*
G75*
G02*
X155958000Y-113313738I0J-271738D01*
G01*
X155958000Y-114270262D01*
G75*
G02*
X155686262Y-114542000I-271738J0D01*
G01*
X154979738Y-114542000D01*
G75*
G02*
X154708000Y-114270262I0J271738D01*
G01*
G37*
G36*
G01*
X152658000Y-114270262D02*
X152658000Y-113313738D01*
G75*
G02*
X152929738Y-113042000I271738J0D01*
G01*
X153636262Y-113042000D01*
G75*
G02*
X153908000Y-113313738I0J-271738D01*
G01*
X153908000Y-114270262D01*
G75*
G02*
X153636262Y-114542000I-271738J0D01*
G01*
X152929738Y-114542000D01*
G75*
G02*
X152658000Y-114270262I0J271738D01*
G01*
G37*
%TD*%
D15*
%TO.C,D2*%
X116210000Y-136656000D03*
D16*
X113635000Y-136656000D03*
%TD*%
D17*
%TO.C,Q1*%
X127897000Y-134692000D03*
X126947000Y-138112000D03*
X128847000Y-138112000D03*
%TD*%
%TO.C,R2*%
G36*
G01*
X135908000Y-114270262D02*
X135908000Y-113313738D01*
G75*
G02*
X136179738Y-113042000I271738J0D01*
G01*
X136886262Y-113042000D01*
G75*
G02*
X137158000Y-113313738I0J-271738D01*
G01*
X137158000Y-114270262D01*
G75*
G02*
X136886262Y-114542000I-271738J0D01*
G01*
X136179738Y-114542000D01*
G75*
G02*
X135908000Y-114270262I0J271738D01*
G01*
G37*
G36*
G01*
X133858000Y-114270262D02*
X133858000Y-113313738D01*
G75*
G02*
X134129738Y-113042000I271738J0D01*
G01*
X134836262Y-113042000D01*
G75*
G02*
X135108000Y-113313738I0J-271738D01*
G01*
X135108000Y-114270262D01*
G75*
G02*
X134836262Y-114542000I-271738J0D01*
G01*
X134129738Y-114542000D01*
G75*
G02*
X133858000Y-114270262I0J271738D01*
G01*
G37*
%TD*%
%TO.C,R2*%
G36*
G01*
X117108000Y-133070262D02*
X117108000Y-132113738D01*
G75*
G02*
X117379738Y-131842000I271738J0D01*
G01*
X118086262Y-131842000D01*
G75*
G02*
X118358000Y-132113738I0J-271738D01*
G01*
X118358000Y-133070262D01*
G75*
G02*
X118086262Y-133342000I-271738J0D01*
G01*
X117379738Y-133342000D01*
G75*
G02*
X117108000Y-133070262I0J271738D01*
G01*
G37*
G36*
G01*
X115058000Y-133070262D02*
X115058000Y-132113738D01*
G75*
G02*
X115329738Y-131842000I271738J0D01*
G01*
X116036262Y-131842000D01*
G75*
G02*
X116308000Y-132113738I0J-271738D01*
G01*
X116308000Y-133070262D01*
G75*
G02*
X116036262Y-133342000I-271738J0D01*
G01*
X115329738Y-133342000D01*
G75*
G02*
X115058000Y-133070262I0J271738D01*
G01*
G37*
%TD*%
D15*
%TO.C,D2*%
X97410000Y-136656000D03*
D16*
X94835000Y-136656000D03*
%TD*%
D15*
%TO.C,D2*%
X153810000Y-117856000D03*
D16*
X151235000Y-117856000D03*
%TD*%
D15*
%TO.C,D2*%
X116210000Y-117856000D03*
D16*
X113635000Y-117856000D03*
%TD*%
%TO.C,R2*%
G36*
G01*
X135908000Y-133070262D02*
X135908000Y-132113738D01*
G75*
G02*
X136179738Y-131842000I271738J0D01*
G01*
X136886262Y-131842000D01*
G75*
G02*
X137158000Y-132113738I0J-271738D01*
G01*
X137158000Y-133070262D01*
G75*
G02*
X136886262Y-133342000I-271738J0D01*
G01*
X136179738Y-133342000D01*
G75*
G02*
X135908000Y-133070262I0J271738D01*
G01*
G37*
G36*
G01*
X133858000Y-133070262D02*
X133858000Y-132113738D01*
G75*
G02*
X134129738Y-131842000I271738J0D01*
G01*
X134836262Y-131842000D01*
G75*
G02*
X135108000Y-132113738I0J-271738D01*
G01*
X135108000Y-133070262D01*
G75*
G02*
X134836262Y-133342000I-271738J0D01*
G01*
X134129738Y-133342000D01*
G75*
G02*
X133858000Y-133070262I0J271738D01*
G01*
G37*
%TD*%
D15*
%TO.C,D2*%
X153810000Y-136656000D03*
D16*
X151235000Y-136656000D03*
%TD*%
%TO.C,R2*%
G36*
G01*
X154708000Y-133070262D02*
X154708000Y-132113738D01*
G75*
G02*
X154979738Y-131842000I271738J0D01*
G01*
X155686262Y-131842000D01*
G75*
G02*
X155958000Y-132113738I0J-271738D01*
G01*
X155958000Y-133070262D01*
G75*
G02*
X155686262Y-133342000I-271738J0D01*
G01*
X154979738Y-133342000D01*
G75*
G02*
X154708000Y-133070262I0J271738D01*
G01*
G37*
G36*
G01*
X152658000Y-133070262D02*
X152658000Y-132113738D01*
G75*
G02*
X152929738Y-131842000I271738J0D01*
G01*
X153636262Y-131842000D01*
G75*
G02*
X153908000Y-132113738I0J-271738D01*
G01*
X153908000Y-133070262D01*
G75*
G02*
X153636262Y-133342000I-271738J0D01*
G01*
X152929738Y-133342000D01*
G75*
G02*
X152658000Y-133070262I0J271738D01*
G01*
G37*
%TD*%
%TO.C,R2*%
G36*
G01*
X117108000Y-114270262D02*
X117108000Y-113313738D01*
G75*
G02*
X117379738Y-113042000I271738J0D01*
G01*
X118086262Y-113042000D01*
G75*
G02*
X118358000Y-113313738I0J-271738D01*
G01*
X118358000Y-114270262D01*
G75*
G02*
X118086262Y-114542000I-271738J0D01*
G01*
X117379738Y-114542000D01*
G75*
G02*
X117108000Y-114270262I0J271738D01*
G01*
G37*
G36*
G01*
X115058000Y-114270262D02*
X115058000Y-113313738D01*
G75*
G02*
X115329738Y-113042000I271738J0D01*
G01*
X116036262Y-113042000D01*
G75*
G02*
X116308000Y-113313738I0J-271738D01*
G01*
X116308000Y-114270262D01*
G75*
G02*
X116036262Y-114542000I-271738J0D01*
G01*
X115329738Y-114542000D01*
G75*
G02*
X115058000Y-114270262I0J271738D01*
G01*
G37*
%TD*%
D17*
%TO.C,Q1*%
X146697000Y-134692000D03*
X145747000Y-138112000D03*
X147647000Y-138112000D03*
%TD*%
D15*
%TO.C,D2*%
X135010000Y-136656000D03*
D16*
X132435000Y-136656000D03*
%TD*%
D15*
%TO.C,D2*%
X135010000Y-117856000D03*
D16*
X132435000Y-117856000D03*
%TD*%
%TO.C,D2*%
X94835000Y-117856000D03*
D15*
X97410000Y-117856000D03*
%TD*%
%TO.C,R2*%
G36*
G01*
X96258000Y-114270262D02*
X96258000Y-113313738D01*
G75*
G02*
X96529738Y-113042000I271738J0D01*
G01*
X97236262Y-113042000D01*
G75*
G02*
X97508000Y-113313738I0J-271738D01*
G01*
X97508000Y-114270262D01*
G75*
G02*
X97236262Y-114542000I-271738J0D01*
G01*
X96529738Y-114542000D01*
G75*
G02*
X96258000Y-114270262I0J271738D01*
G01*
G37*
G36*
G01*
X98308000Y-114270262D02*
X98308000Y-113313738D01*
G75*
G02*
X98579738Y-113042000I271738J0D01*
G01*
X99286262Y-113042000D01*
G75*
G02*
X99558000Y-113313738I0J-271738D01*
G01*
X99558000Y-114270262D01*
G75*
G02*
X99286262Y-114542000I-271738J0D01*
G01*
X98579738Y-114542000D01*
G75*
G02*
X98308000Y-114270262I0J271738D01*
G01*
G37*
%TD*%
D17*
%TO.C,Q1*%
X91247000Y-119312000D03*
X89347000Y-119312000D03*
X90297000Y-115892000D03*
%TD*%
D18*
%TO.C,BT1*%
X101727000Y-113918000D03*
X101727000Y-110618000D03*
%TD*%
D14*
%TO.C,J1*%
X86741000Y-104648000D03*
D13*
X86741000Y-105918000D03*
X86741000Y-107188000D03*
X86741000Y-108458000D03*
X86741000Y-109728000D03*
%TD*%
D12*
%TO.C,SW1*%
X96393000Y-106680000D03*
X90043000Y-109220000D03*
D11*
X93853000Y-111760000D03*
D10*
X88773000Y-111760000D03*
X98933000Y-111760000D03*
%TD*%
D19*
%TO.C,U1*%
X90391000Y-106548000D03*
X90391000Y-105598000D03*
X90391000Y-104648000D03*
X93091000Y-104648000D03*
X93091000Y-106548000D03*
X93091000Y-105598000D03*
%TD*%
%TO.C,R1*%
G36*
G01*
X98962738Y-104014000D02*
X99919262Y-104014000D01*
G75*
G02*
X100191000Y-104285738I0J-271738D01*
G01*
X100191000Y-104992262D01*
G75*
G02*
X99919262Y-105264000I-271738J0D01*
G01*
X98962738Y-105264000D01*
G75*
G02*
X98691000Y-104992262I0J271738D01*
G01*
X98691000Y-104285738D01*
G75*
G02*
X98962738Y-104014000I271738J0D01*
G01*
G37*
G36*
G01*
X98962738Y-106064000D02*
X99919262Y-106064000D01*
G75*
G02*
X100191000Y-106335738I0J-271738D01*
G01*
X100191000Y-107042262D01*
G75*
G02*
X99919262Y-107314000I-271738J0D01*
G01*
X98962738Y-107314000D01*
G75*
G02*
X98691000Y-107042262I0J271738D01*
G01*
X98691000Y-106335738D01*
G75*
G02*
X98962738Y-106064000I271738J0D01*
G01*
G37*
%TD*%
%TO.C,U1*%
X149491000Y-105598000D03*
X149491000Y-106548000D03*
X149491000Y-104648000D03*
X146791000Y-104648000D03*
X146791000Y-105598000D03*
X146791000Y-106548000D03*
%TD*%
%TO.C,R1*%
G36*
G01*
X117762738Y-106064000D02*
X118719262Y-106064000D01*
G75*
G02*
X118991000Y-106335738I0J-271738D01*
G01*
X118991000Y-107042262D01*
G75*
G02*
X118719262Y-107314000I-271738J0D01*
G01*
X117762738Y-107314000D01*
G75*
G02*
X117491000Y-107042262I0J271738D01*
G01*
X117491000Y-106335738D01*
G75*
G02*
X117762738Y-106064000I271738J0D01*
G01*
G37*
G36*
G01*
X117762738Y-104014000D02*
X118719262Y-104014000D01*
G75*
G02*
X118991000Y-104285738I0J-271738D01*
G01*
X118991000Y-104992262D01*
G75*
G02*
X118719262Y-105264000I-271738J0D01*
G01*
X117762738Y-105264000D01*
G75*
G02*
X117491000Y-104992262I0J271738D01*
G01*
X117491000Y-104285738D01*
G75*
G02*
X117762738Y-104014000I271738J0D01*
G01*
G37*
%TD*%
%TO.C,U1*%
X130691000Y-124398000D03*
X130691000Y-125348000D03*
X130691000Y-123448000D03*
X127991000Y-123448000D03*
X127991000Y-124398000D03*
X127991000Y-125348000D03*
%TD*%
%TO.C,U1*%
X111891000Y-124398000D03*
X111891000Y-125348000D03*
X111891000Y-123448000D03*
X109191000Y-123448000D03*
X109191000Y-124398000D03*
X109191000Y-125348000D03*
%TD*%
%TO.C,U1*%
X93091000Y-124398000D03*
X93091000Y-125348000D03*
X93091000Y-123448000D03*
X90391000Y-123448000D03*
X90391000Y-124398000D03*
X90391000Y-125348000D03*
%TD*%
%TO.C,U1*%
X130691000Y-105598000D03*
X130691000Y-106548000D03*
X130691000Y-104648000D03*
X127991000Y-104648000D03*
X127991000Y-105598000D03*
X127991000Y-106548000D03*
%TD*%
%TO.C,U1*%
X111891000Y-105598000D03*
X111891000Y-106548000D03*
X111891000Y-104648000D03*
X109191000Y-104648000D03*
X109191000Y-105598000D03*
X109191000Y-106548000D03*
%TD*%
%TO.C,R1*%
G36*
G01*
X155362738Y-106064000D02*
X156319262Y-106064000D01*
G75*
G02*
X156591000Y-106335738I0J-271738D01*
G01*
X156591000Y-107042262D01*
G75*
G02*
X156319262Y-107314000I-271738J0D01*
G01*
X155362738Y-107314000D01*
G75*
G02*
X155091000Y-107042262I0J271738D01*
G01*
X155091000Y-106335738D01*
G75*
G02*
X155362738Y-106064000I271738J0D01*
G01*
G37*
G36*
G01*
X155362738Y-104014000D02*
X156319262Y-104014000D01*
G75*
G02*
X156591000Y-104285738I0J-271738D01*
G01*
X156591000Y-104992262D01*
G75*
G02*
X156319262Y-105264000I-271738J0D01*
G01*
X155362738Y-105264000D01*
G75*
G02*
X155091000Y-104992262I0J271738D01*
G01*
X155091000Y-104285738D01*
G75*
G02*
X155362738Y-104014000I271738J0D01*
G01*
G37*
%TD*%
%TO.C,R1*%
G36*
G01*
X155362738Y-124864000D02*
X156319262Y-124864000D01*
G75*
G02*
X156591000Y-125135738I0J-271738D01*
G01*
X156591000Y-125842262D01*
G75*
G02*
X156319262Y-126114000I-271738J0D01*
G01*
X155362738Y-126114000D01*
G75*
G02*
X155091000Y-125842262I0J271738D01*
G01*
X155091000Y-125135738D01*
G75*
G02*
X155362738Y-124864000I271738J0D01*
G01*
G37*
G36*
G01*
X155362738Y-122814000D02*
X156319262Y-122814000D01*
G75*
G02*
X156591000Y-123085738I0J-271738D01*
G01*
X156591000Y-123792262D01*
G75*
G02*
X156319262Y-124064000I-271738J0D01*
G01*
X155362738Y-124064000D01*
G75*
G02*
X155091000Y-123792262I0J271738D01*
G01*
X155091000Y-123085738D01*
G75*
G02*
X155362738Y-122814000I271738J0D01*
G01*
G37*
%TD*%
%TO.C,R1*%
G36*
G01*
X117762738Y-124864000D02*
X118719262Y-124864000D01*
G75*
G02*
X118991000Y-125135738I0J-271738D01*
G01*
X118991000Y-125842262D01*
G75*
G02*
X118719262Y-126114000I-271738J0D01*
G01*
X117762738Y-126114000D01*
G75*
G02*
X117491000Y-125842262I0J271738D01*
G01*
X117491000Y-125135738D01*
G75*
G02*
X117762738Y-124864000I271738J0D01*
G01*
G37*
G36*
G01*
X117762738Y-122814000D02*
X118719262Y-122814000D01*
G75*
G02*
X118991000Y-123085738I0J-271738D01*
G01*
X118991000Y-123792262D01*
G75*
G02*
X118719262Y-124064000I-271738J0D01*
G01*
X117762738Y-124064000D01*
G75*
G02*
X117491000Y-123792262I0J271738D01*
G01*
X117491000Y-123085738D01*
G75*
G02*
X117762738Y-122814000I271738J0D01*
G01*
G37*
%TD*%
%TO.C,R1*%
G36*
G01*
X98962738Y-124864000D02*
X99919262Y-124864000D01*
G75*
G02*
X100191000Y-125135738I0J-271738D01*
G01*
X100191000Y-125842262D01*
G75*
G02*
X99919262Y-126114000I-271738J0D01*
G01*
X98962738Y-126114000D01*
G75*
G02*
X98691000Y-125842262I0J271738D01*
G01*
X98691000Y-125135738D01*
G75*
G02*
X98962738Y-124864000I271738J0D01*
G01*
G37*
G36*
G01*
X98962738Y-122814000D02*
X99919262Y-122814000D01*
G75*
G02*
X100191000Y-123085738I0J-271738D01*
G01*
X100191000Y-123792262D01*
G75*
G02*
X99919262Y-124064000I-271738J0D01*
G01*
X98962738Y-124064000D01*
G75*
G02*
X98691000Y-123792262I0J271738D01*
G01*
X98691000Y-123085738D01*
G75*
G02*
X98962738Y-122814000I271738J0D01*
G01*
G37*
%TD*%
%TO.C,R1*%
G36*
G01*
X136562738Y-106064000D02*
X137519262Y-106064000D01*
G75*
G02*
X137791000Y-106335738I0J-271738D01*
G01*
X137791000Y-107042262D01*
G75*
G02*
X137519262Y-107314000I-271738J0D01*
G01*
X136562738Y-107314000D01*
G75*
G02*
X136291000Y-107042262I0J271738D01*
G01*
X136291000Y-106335738D01*
G75*
G02*
X136562738Y-106064000I271738J0D01*
G01*
G37*
G36*
G01*
X136562738Y-104014000D02*
X137519262Y-104014000D01*
G75*
G02*
X137791000Y-104285738I0J-271738D01*
G01*
X137791000Y-104992262D01*
G75*
G02*
X137519262Y-105264000I-271738J0D01*
G01*
X136562738Y-105264000D01*
G75*
G02*
X136291000Y-104992262I0J271738D01*
G01*
X136291000Y-104285738D01*
G75*
G02*
X136562738Y-104014000I271738J0D01*
G01*
G37*
%TD*%
%TO.C,R1*%
G36*
G01*
X136562738Y-124864000D02*
X137519262Y-124864000D01*
G75*
G02*
X137791000Y-125135738I0J-271738D01*
G01*
X137791000Y-125842262D01*
G75*
G02*
X137519262Y-126114000I-271738J0D01*
G01*
X136562738Y-126114000D01*
G75*
G02*
X136291000Y-125842262I0J271738D01*
G01*
X136291000Y-125135738D01*
G75*
G02*
X136562738Y-124864000I271738J0D01*
G01*
G37*
G36*
G01*
X136562738Y-122814000D02*
X137519262Y-122814000D01*
G75*
G02*
X137791000Y-123085738I0J-271738D01*
G01*
X137791000Y-123792262D01*
G75*
G02*
X137519262Y-124064000I-271738J0D01*
G01*
X136562738Y-124064000D01*
G75*
G02*
X136291000Y-123792262I0J271738D01*
G01*
X136291000Y-123085738D01*
G75*
G02*
X136562738Y-122814000I271738J0D01*
G01*
G37*
%TD*%
%TO.C,U1*%
X149491000Y-124398000D03*
X149491000Y-125348000D03*
X149491000Y-123448000D03*
X146791000Y-123448000D03*
X146791000Y-124398000D03*
X146791000Y-125348000D03*
%TD*%
D17*
%TO.C,Q1*%
X109097000Y-134692000D03*
X108147000Y-138112000D03*
X110047000Y-138112000D03*
%TD*%
D18*
%TO.C,BT1*%
X158127000Y-129418000D03*
X158127000Y-132718000D03*
%TD*%
%TO.C,BT1*%
X158127000Y-110618000D03*
X158127000Y-113918000D03*
%TD*%
D13*
%TO.C,J1*%
X143141000Y-128528000D03*
X143141000Y-127258000D03*
X143141000Y-125988000D03*
X143141000Y-124718000D03*
D14*
X143141000Y-123448000D03*
%TD*%
D13*
%TO.C,J1*%
X105541000Y-128528000D03*
X105541000Y-127258000D03*
X105541000Y-125988000D03*
X105541000Y-124718000D03*
D14*
X105541000Y-123448000D03*
%TD*%
D18*
%TO.C,BT1*%
X120527000Y-129418000D03*
X120527000Y-132718000D03*
%TD*%
D17*
%TO.C,Q1*%
X90297000Y-134692000D03*
X89347000Y-138112000D03*
X91247000Y-138112000D03*
%TD*%
%TO.C,Q1*%
X146697000Y-115892000D03*
X145747000Y-119312000D03*
X147647000Y-119312000D03*
%TD*%
%TO.C,Q1*%
X127897000Y-115892000D03*
X126947000Y-119312000D03*
X128847000Y-119312000D03*
%TD*%
D18*
%TO.C,BT1*%
X139327000Y-129418000D03*
X139327000Y-132718000D03*
%TD*%
D13*
%TO.C,J1*%
X124341000Y-128528000D03*
X124341000Y-127258000D03*
X124341000Y-125988000D03*
X124341000Y-124718000D03*
D14*
X124341000Y-123448000D03*
%TD*%
D18*
%TO.C,BT1*%
X101727000Y-129418000D03*
X101727000Y-132718000D03*
%TD*%
D13*
%TO.C,J1*%
X86741000Y-128528000D03*
X86741000Y-127258000D03*
X86741000Y-125988000D03*
X86741000Y-124718000D03*
D14*
X86741000Y-123448000D03*
%TD*%
D17*
%TO.C,Q1*%
X109097000Y-115892000D03*
X108147000Y-119312000D03*
X110047000Y-119312000D03*
%TD*%
D18*
%TO.C,BT1*%
X139327000Y-110618000D03*
X139327000Y-113918000D03*
%TD*%
%TO.C,BT1*%
X120527000Y-110618000D03*
X120527000Y-113918000D03*
%TD*%
D16*
%TO.C,D2*%
X151235000Y-94111000D03*
D15*
X153810000Y-94111000D03*
%TD*%
D16*
%TO.C,D2*%
X132435000Y-94111000D03*
D15*
X135010000Y-94111000D03*
%TD*%
D16*
%TO.C,D2*%
X113635000Y-94111000D03*
D15*
X116210000Y-94111000D03*
%TD*%
D16*
%TO.C,D2*%
X94835000Y-94111000D03*
D15*
X97410000Y-94111000D03*
%TD*%
D16*
%TO.C,D2*%
X151235000Y-75311000D03*
D15*
X153810000Y-75311000D03*
%TD*%
D16*
%TO.C,D2*%
X132435000Y-75311000D03*
D15*
X135010000Y-75311000D03*
%TD*%
D16*
%TO.C,D2*%
X113635000Y-75311000D03*
D15*
X116210000Y-75311000D03*
%TD*%
%TO.C,R2*%
G36*
G01*
X152658000Y-90525262D02*
X152658000Y-89568738D01*
G75*
G02*
X152929738Y-89297000I271738J0D01*
G01*
X153636262Y-89297000D01*
G75*
G02*
X153908000Y-89568738I0J-271738D01*
G01*
X153908000Y-90525262D01*
G75*
G02*
X153636262Y-90797000I-271738J0D01*
G01*
X152929738Y-90797000D01*
G75*
G02*
X152658000Y-90525262I0J271738D01*
G01*
G37*
G36*
G01*
X154708000Y-90525262D02*
X154708000Y-89568738D01*
G75*
G02*
X154979738Y-89297000I271738J0D01*
G01*
X155686262Y-89297000D01*
G75*
G02*
X155958000Y-89568738I0J-271738D01*
G01*
X155958000Y-90525262D01*
G75*
G02*
X155686262Y-90797000I-271738J0D01*
G01*
X154979738Y-90797000D01*
G75*
G02*
X154708000Y-90525262I0J271738D01*
G01*
G37*
%TD*%
%TO.C,R2*%
G36*
G01*
X133858000Y-90525262D02*
X133858000Y-89568738D01*
G75*
G02*
X134129738Y-89297000I271738J0D01*
G01*
X134836262Y-89297000D01*
G75*
G02*
X135108000Y-89568738I0J-271738D01*
G01*
X135108000Y-90525262D01*
G75*
G02*
X134836262Y-90797000I-271738J0D01*
G01*
X134129738Y-90797000D01*
G75*
G02*
X133858000Y-90525262I0J271738D01*
G01*
G37*
G36*
G01*
X135908000Y-90525262D02*
X135908000Y-89568738D01*
G75*
G02*
X136179738Y-89297000I271738J0D01*
G01*
X136886262Y-89297000D01*
G75*
G02*
X137158000Y-89568738I0J-271738D01*
G01*
X137158000Y-90525262D01*
G75*
G02*
X136886262Y-90797000I-271738J0D01*
G01*
X136179738Y-90797000D01*
G75*
G02*
X135908000Y-90525262I0J271738D01*
G01*
G37*
%TD*%
%TO.C,R2*%
G36*
G01*
X115058000Y-90525262D02*
X115058000Y-89568738D01*
G75*
G02*
X115329738Y-89297000I271738J0D01*
G01*
X116036262Y-89297000D01*
G75*
G02*
X116308000Y-89568738I0J-271738D01*
G01*
X116308000Y-90525262D01*
G75*
G02*
X116036262Y-90797000I-271738J0D01*
G01*
X115329738Y-90797000D01*
G75*
G02*
X115058000Y-90525262I0J271738D01*
G01*
G37*
G36*
G01*
X117108000Y-90525262D02*
X117108000Y-89568738D01*
G75*
G02*
X117379738Y-89297000I271738J0D01*
G01*
X118086262Y-89297000D01*
G75*
G02*
X118358000Y-89568738I0J-271738D01*
G01*
X118358000Y-90525262D01*
G75*
G02*
X118086262Y-90797000I-271738J0D01*
G01*
X117379738Y-90797000D01*
G75*
G02*
X117108000Y-90525262I0J271738D01*
G01*
G37*
%TD*%
%TO.C,R2*%
G36*
G01*
X96258000Y-90525262D02*
X96258000Y-89568738D01*
G75*
G02*
X96529738Y-89297000I271738J0D01*
G01*
X97236262Y-89297000D01*
G75*
G02*
X97508000Y-89568738I0J-271738D01*
G01*
X97508000Y-90525262D01*
G75*
G02*
X97236262Y-90797000I-271738J0D01*
G01*
X96529738Y-90797000D01*
G75*
G02*
X96258000Y-90525262I0J271738D01*
G01*
G37*
G36*
G01*
X98308000Y-90525262D02*
X98308000Y-89568738D01*
G75*
G02*
X98579738Y-89297000I271738J0D01*
G01*
X99286262Y-89297000D01*
G75*
G02*
X99558000Y-89568738I0J-271738D01*
G01*
X99558000Y-90525262D01*
G75*
G02*
X99286262Y-90797000I-271738J0D01*
G01*
X98579738Y-90797000D01*
G75*
G02*
X98308000Y-90525262I0J271738D01*
G01*
G37*
%TD*%
%TO.C,R2*%
G36*
G01*
X152658000Y-71725262D02*
X152658000Y-70768738D01*
G75*
G02*
X152929738Y-70497000I271738J0D01*
G01*
X153636262Y-70497000D01*
G75*
G02*
X153908000Y-70768738I0J-271738D01*
G01*
X153908000Y-71725262D01*
G75*
G02*
X153636262Y-71997000I-271738J0D01*
G01*
X152929738Y-71997000D01*
G75*
G02*
X152658000Y-71725262I0J271738D01*
G01*
G37*
G36*
G01*
X154708000Y-71725262D02*
X154708000Y-70768738D01*
G75*
G02*
X154979738Y-70497000I271738J0D01*
G01*
X155686262Y-70497000D01*
G75*
G02*
X155958000Y-70768738I0J-271738D01*
G01*
X155958000Y-71725262D01*
G75*
G02*
X155686262Y-71997000I-271738J0D01*
G01*
X154979738Y-71997000D01*
G75*
G02*
X154708000Y-71725262I0J271738D01*
G01*
G37*
%TD*%
%TO.C,R2*%
G36*
G01*
X133858000Y-71725262D02*
X133858000Y-70768738D01*
G75*
G02*
X134129738Y-70497000I271738J0D01*
G01*
X134836262Y-70497000D01*
G75*
G02*
X135108000Y-70768738I0J-271738D01*
G01*
X135108000Y-71725262D01*
G75*
G02*
X134836262Y-71997000I-271738J0D01*
G01*
X134129738Y-71997000D01*
G75*
G02*
X133858000Y-71725262I0J271738D01*
G01*
G37*
G36*
G01*
X135908000Y-71725262D02*
X135908000Y-70768738D01*
G75*
G02*
X136179738Y-70497000I271738J0D01*
G01*
X136886262Y-70497000D01*
G75*
G02*
X137158000Y-70768738I0J-271738D01*
G01*
X137158000Y-71725262D01*
G75*
G02*
X136886262Y-71997000I-271738J0D01*
G01*
X136179738Y-71997000D01*
G75*
G02*
X135908000Y-71725262I0J271738D01*
G01*
G37*
%TD*%
%TO.C,R2*%
G36*
G01*
X115058000Y-71725262D02*
X115058000Y-70768738D01*
G75*
G02*
X115329738Y-70497000I271738J0D01*
G01*
X116036262Y-70497000D01*
G75*
G02*
X116308000Y-70768738I0J-271738D01*
G01*
X116308000Y-71725262D01*
G75*
G02*
X116036262Y-71997000I-271738J0D01*
G01*
X115329738Y-71997000D01*
G75*
G02*
X115058000Y-71725262I0J271738D01*
G01*
G37*
G36*
G01*
X117108000Y-71725262D02*
X117108000Y-70768738D01*
G75*
G02*
X117379738Y-70497000I271738J0D01*
G01*
X118086262Y-70497000D01*
G75*
G02*
X118358000Y-70768738I0J-271738D01*
G01*
X118358000Y-71725262D01*
G75*
G02*
X118086262Y-71997000I-271738J0D01*
G01*
X117379738Y-71997000D01*
G75*
G02*
X117108000Y-71725262I0J271738D01*
G01*
G37*
%TD*%
D17*
%TO.C,Q1*%
X147647000Y-95567000D03*
X145747000Y-95567000D03*
X146697000Y-92147000D03*
%TD*%
%TO.C,Q1*%
X128847000Y-95567000D03*
X126947000Y-95567000D03*
X127897000Y-92147000D03*
%TD*%
%TO.C,Q1*%
X110047000Y-95567000D03*
X108147000Y-95567000D03*
X109097000Y-92147000D03*
%TD*%
%TO.C,Q1*%
X91247000Y-95567000D03*
X89347000Y-95567000D03*
X90297000Y-92147000D03*
%TD*%
%TO.C,Q1*%
X147647000Y-76767000D03*
X145747000Y-76767000D03*
X146697000Y-73347000D03*
%TD*%
%TO.C,Q1*%
X128847000Y-76767000D03*
X126947000Y-76767000D03*
X127897000Y-73347000D03*
%TD*%
%TO.C,Q1*%
X110047000Y-76767000D03*
X108147000Y-76767000D03*
X109097000Y-73347000D03*
%TD*%
D18*
%TO.C,BT1*%
X158127000Y-90173000D03*
X158127000Y-86873000D03*
%TD*%
%TO.C,BT1*%
X139327000Y-90173000D03*
X139327000Y-86873000D03*
%TD*%
%TO.C,BT1*%
X120527000Y-90173000D03*
X120527000Y-86873000D03*
%TD*%
%TO.C,BT1*%
X101727000Y-90173000D03*
X101727000Y-86873000D03*
%TD*%
%TO.C,BT1*%
X158127000Y-71373000D03*
X158127000Y-68073000D03*
%TD*%
%TO.C,BT1*%
X139327000Y-71373000D03*
X139327000Y-68073000D03*
%TD*%
%TO.C,BT1*%
X120527000Y-71373000D03*
X120527000Y-68073000D03*
%TD*%
D14*
%TO.C,J1*%
X143141000Y-80903000D03*
D13*
X143141000Y-82173000D03*
X143141000Y-83443000D03*
X143141000Y-84713000D03*
X143141000Y-85983000D03*
%TD*%
D14*
%TO.C,J1*%
X124341000Y-80903000D03*
D13*
X124341000Y-82173000D03*
X124341000Y-83443000D03*
X124341000Y-84713000D03*
X124341000Y-85983000D03*
%TD*%
D14*
%TO.C,J1*%
X105541000Y-80903000D03*
D13*
X105541000Y-82173000D03*
X105541000Y-83443000D03*
X105541000Y-84713000D03*
X105541000Y-85983000D03*
%TD*%
D14*
%TO.C,J1*%
X86741000Y-80903000D03*
D13*
X86741000Y-82173000D03*
X86741000Y-83443000D03*
X86741000Y-84713000D03*
X86741000Y-85983000D03*
%TD*%
D14*
%TO.C,J1*%
X143141000Y-62103000D03*
D13*
X143141000Y-63373000D03*
X143141000Y-64643000D03*
X143141000Y-65913000D03*
X143141000Y-67183000D03*
%TD*%
D14*
%TO.C,J1*%
X124341000Y-62103000D03*
D13*
X124341000Y-63373000D03*
X124341000Y-64643000D03*
X124341000Y-65913000D03*
X124341000Y-67183000D03*
%TD*%
D14*
%TO.C,J1*%
X105541000Y-62103000D03*
D13*
X105541000Y-63373000D03*
X105541000Y-64643000D03*
X105541000Y-65913000D03*
X105541000Y-67183000D03*
%TD*%
D12*
%TO.C,SW1*%
X152793000Y-82935000D03*
X146443000Y-85475000D03*
D11*
X150253000Y-88015000D03*
D10*
X145173000Y-88015000D03*
X155333000Y-88015000D03*
%TD*%
D12*
%TO.C,SW1*%
X133993000Y-82935000D03*
X127643000Y-85475000D03*
D11*
X131453000Y-88015000D03*
D10*
X126373000Y-88015000D03*
X136533000Y-88015000D03*
%TD*%
D12*
%TO.C,SW1*%
X115193000Y-82935000D03*
X108843000Y-85475000D03*
D11*
X112653000Y-88015000D03*
D10*
X107573000Y-88015000D03*
X117733000Y-88015000D03*
%TD*%
D12*
%TO.C,SW1*%
X96393000Y-82935000D03*
X90043000Y-85475000D03*
D11*
X93853000Y-88015000D03*
D10*
X88773000Y-88015000D03*
X98933000Y-88015000D03*
%TD*%
D12*
%TO.C,SW1*%
X152793000Y-64135000D03*
X146443000Y-66675000D03*
D11*
X150253000Y-69215000D03*
D10*
X145173000Y-69215000D03*
X155333000Y-69215000D03*
%TD*%
D12*
%TO.C,SW1*%
X133993000Y-64135000D03*
X127643000Y-66675000D03*
D11*
X131453000Y-69215000D03*
D10*
X126373000Y-69215000D03*
X136533000Y-69215000D03*
%TD*%
D12*
%TO.C,SW1*%
X115193000Y-64135000D03*
X108843000Y-66675000D03*
D11*
X112653000Y-69215000D03*
D10*
X107573000Y-69215000D03*
X117733000Y-69215000D03*
%TD*%
D19*
%TO.C,U1*%
X146791000Y-82803000D03*
X146791000Y-81853000D03*
X146791000Y-80903000D03*
X149491000Y-80903000D03*
X149491000Y-82803000D03*
X149491000Y-81853000D03*
%TD*%
%TO.C,U1*%
X127991000Y-82803000D03*
X127991000Y-81853000D03*
X127991000Y-80903000D03*
X130691000Y-80903000D03*
X130691000Y-82803000D03*
X130691000Y-81853000D03*
%TD*%
%TO.C,U1*%
X109191000Y-82803000D03*
X109191000Y-81853000D03*
X109191000Y-80903000D03*
X111891000Y-80903000D03*
X111891000Y-82803000D03*
X111891000Y-81853000D03*
%TD*%
%TO.C,U1*%
X90391000Y-82803000D03*
X90391000Y-81853000D03*
X90391000Y-80903000D03*
X93091000Y-80903000D03*
X93091000Y-82803000D03*
X93091000Y-81853000D03*
%TD*%
%TO.C,U1*%
X146791000Y-64003000D03*
X146791000Y-63053000D03*
X146791000Y-62103000D03*
X149491000Y-62103000D03*
X149491000Y-64003000D03*
X149491000Y-63053000D03*
%TD*%
%TO.C,U1*%
X127991000Y-64003000D03*
X127991000Y-63053000D03*
X127991000Y-62103000D03*
X130691000Y-62103000D03*
X130691000Y-64003000D03*
X130691000Y-63053000D03*
%TD*%
%TO.C,U1*%
X109191000Y-64003000D03*
X109191000Y-63053000D03*
X109191000Y-62103000D03*
X111891000Y-62103000D03*
X111891000Y-64003000D03*
X111891000Y-63053000D03*
%TD*%
%TO.C,R1*%
G36*
G01*
X155362738Y-80269000D02*
X156319262Y-80269000D01*
G75*
G02*
X156591000Y-80540738I0J-271738D01*
G01*
X156591000Y-81247262D01*
G75*
G02*
X156319262Y-81519000I-271738J0D01*
G01*
X155362738Y-81519000D01*
G75*
G02*
X155091000Y-81247262I0J271738D01*
G01*
X155091000Y-80540738D01*
G75*
G02*
X155362738Y-80269000I271738J0D01*
G01*
G37*
G36*
G01*
X155362738Y-82319000D02*
X156319262Y-82319000D01*
G75*
G02*
X156591000Y-82590738I0J-271738D01*
G01*
X156591000Y-83297262D01*
G75*
G02*
X156319262Y-83569000I-271738J0D01*
G01*
X155362738Y-83569000D01*
G75*
G02*
X155091000Y-83297262I0J271738D01*
G01*
X155091000Y-82590738D01*
G75*
G02*
X155362738Y-82319000I271738J0D01*
G01*
G37*
%TD*%
%TO.C,R1*%
G36*
G01*
X136562738Y-80269000D02*
X137519262Y-80269000D01*
G75*
G02*
X137791000Y-80540738I0J-271738D01*
G01*
X137791000Y-81247262D01*
G75*
G02*
X137519262Y-81519000I-271738J0D01*
G01*
X136562738Y-81519000D01*
G75*
G02*
X136291000Y-81247262I0J271738D01*
G01*
X136291000Y-80540738D01*
G75*
G02*
X136562738Y-80269000I271738J0D01*
G01*
G37*
G36*
G01*
X136562738Y-82319000D02*
X137519262Y-82319000D01*
G75*
G02*
X137791000Y-82590738I0J-271738D01*
G01*
X137791000Y-83297262D01*
G75*
G02*
X137519262Y-83569000I-271738J0D01*
G01*
X136562738Y-83569000D01*
G75*
G02*
X136291000Y-83297262I0J271738D01*
G01*
X136291000Y-82590738D01*
G75*
G02*
X136562738Y-82319000I271738J0D01*
G01*
G37*
%TD*%
%TO.C,R1*%
G36*
G01*
X117762738Y-80269000D02*
X118719262Y-80269000D01*
G75*
G02*
X118991000Y-80540738I0J-271738D01*
G01*
X118991000Y-81247262D01*
G75*
G02*
X118719262Y-81519000I-271738J0D01*
G01*
X117762738Y-81519000D01*
G75*
G02*
X117491000Y-81247262I0J271738D01*
G01*
X117491000Y-80540738D01*
G75*
G02*
X117762738Y-80269000I271738J0D01*
G01*
G37*
G36*
G01*
X117762738Y-82319000D02*
X118719262Y-82319000D01*
G75*
G02*
X118991000Y-82590738I0J-271738D01*
G01*
X118991000Y-83297262D01*
G75*
G02*
X118719262Y-83569000I-271738J0D01*
G01*
X117762738Y-83569000D01*
G75*
G02*
X117491000Y-83297262I0J271738D01*
G01*
X117491000Y-82590738D01*
G75*
G02*
X117762738Y-82319000I271738J0D01*
G01*
G37*
%TD*%
%TO.C,R1*%
G36*
G01*
X98962738Y-80269000D02*
X99919262Y-80269000D01*
G75*
G02*
X100191000Y-80540738I0J-271738D01*
G01*
X100191000Y-81247262D01*
G75*
G02*
X99919262Y-81519000I-271738J0D01*
G01*
X98962738Y-81519000D01*
G75*
G02*
X98691000Y-81247262I0J271738D01*
G01*
X98691000Y-80540738D01*
G75*
G02*
X98962738Y-80269000I271738J0D01*
G01*
G37*
G36*
G01*
X98962738Y-82319000D02*
X99919262Y-82319000D01*
G75*
G02*
X100191000Y-82590738I0J-271738D01*
G01*
X100191000Y-83297262D01*
G75*
G02*
X99919262Y-83569000I-271738J0D01*
G01*
X98962738Y-83569000D01*
G75*
G02*
X98691000Y-83297262I0J271738D01*
G01*
X98691000Y-82590738D01*
G75*
G02*
X98962738Y-82319000I271738J0D01*
G01*
G37*
%TD*%
%TO.C,R1*%
G36*
G01*
X155362738Y-61469000D02*
X156319262Y-61469000D01*
G75*
G02*
X156591000Y-61740738I0J-271738D01*
G01*
X156591000Y-62447262D01*
G75*
G02*
X156319262Y-62719000I-271738J0D01*
G01*
X155362738Y-62719000D01*
G75*
G02*
X155091000Y-62447262I0J271738D01*
G01*
X155091000Y-61740738D01*
G75*
G02*
X155362738Y-61469000I271738J0D01*
G01*
G37*
G36*
G01*
X155362738Y-63519000D02*
X156319262Y-63519000D01*
G75*
G02*
X156591000Y-63790738I0J-271738D01*
G01*
X156591000Y-64497262D01*
G75*
G02*
X156319262Y-64769000I-271738J0D01*
G01*
X155362738Y-64769000D01*
G75*
G02*
X155091000Y-64497262I0J271738D01*
G01*
X155091000Y-63790738D01*
G75*
G02*
X155362738Y-63519000I271738J0D01*
G01*
G37*
%TD*%
%TO.C,R1*%
G36*
G01*
X136562738Y-61469000D02*
X137519262Y-61469000D01*
G75*
G02*
X137791000Y-61740738I0J-271738D01*
G01*
X137791000Y-62447262D01*
G75*
G02*
X137519262Y-62719000I-271738J0D01*
G01*
X136562738Y-62719000D01*
G75*
G02*
X136291000Y-62447262I0J271738D01*
G01*
X136291000Y-61740738D01*
G75*
G02*
X136562738Y-61469000I271738J0D01*
G01*
G37*
G36*
G01*
X136562738Y-63519000D02*
X137519262Y-63519000D01*
G75*
G02*
X137791000Y-63790738I0J-271738D01*
G01*
X137791000Y-64497262D01*
G75*
G02*
X137519262Y-64769000I-271738J0D01*
G01*
X136562738Y-64769000D01*
G75*
G02*
X136291000Y-64497262I0J271738D01*
G01*
X136291000Y-63790738D01*
G75*
G02*
X136562738Y-63519000I271738J0D01*
G01*
G37*
%TD*%
%TO.C,R1*%
G36*
G01*
X117762738Y-61469000D02*
X118719262Y-61469000D01*
G75*
G02*
X118991000Y-61740738I0J-271738D01*
G01*
X118991000Y-62447262D01*
G75*
G02*
X118719262Y-62719000I-271738J0D01*
G01*
X117762738Y-62719000D01*
G75*
G02*
X117491000Y-62447262I0J271738D01*
G01*
X117491000Y-61740738D01*
G75*
G02*
X117762738Y-61469000I271738J0D01*
G01*
G37*
G36*
G01*
X117762738Y-63519000D02*
X118719262Y-63519000D01*
G75*
G02*
X118991000Y-63790738I0J-271738D01*
G01*
X118991000Y-64497262D01*
G75*
G02*
X118719262Y-64769000I-271738J0D01*
G01*
X117762738Y-64769000D01*
G75*
G02*
X117491000Y-64497262I0J271738D01*
G01*
X117491000Y-63790738D01*
G75*
G02*
X117762738Y-63519000I271738J0D01*
G01*
G37*
%TD*%
D17*
%TO.C,Q1*%
X90297000Y-73347000D03*
X89347000Y-76767000D03*
X91247000Y-76767000D03*
%TD*%
D19*
%TO.C,U1*%
X93091000Y-63053000D03*
X93091000Y-64003000D03*
X93091000Y-62103000D03*
X90391000Y-62103000D03*
X90391000Y-63053000D03*
X90391000Y-64003000D03*
%TD*%
D18*
%TO.C,BT1*%
X101727000Y-68073000D03*
X101727000Y-71373000D03*
%TD*%
D13*
%TO.C,J1*%
X86741000Y-67183000D03*
X86741000Y-65913000D03*
X86741000Y-64643000D03*
X86741000Y-63373000D03*
D14*
X86741000Y-62103000D03*
%TD*%
D10*
%TO.C,SW1*%
X98933000Y-69215000D03*
X88773000Y-69215000D03*
D11*
X93853000Y-69215000D03*
D12*
X90043000Y-66675000D03*
X96393000Y-64135000D03*
%TD*%
%TO.C,R1*%
G36*
G01*
X98962738Y-63519000D02*
X99919262Y-63519000D01*
G75*
G02*
X100191000Y-63790738I0J-271738D01*
G01*
X100191000Y-64497262D01*
G75*
G02*
X99919262Y-64769000I-271738J0D01*
G01*
X98962738Y-64769000D01*
G75*
G02*
X98691000Y-64497262I0J271738D01*
G01*
X98691000Y-63790738D01*
G75*
G02*
X98962738Y-63519000I271738J0D01*
G01*
G37*
G36*
G01*
X98962738Y-61469000D02*
X99919262Y-61469000D01*
G75*
G02*
X100191000Y-61740738I0J-271738D01*
G01*
X100191000Y-62447262D01*
G75*
G02*
X99919262Y-62719000I-271738J0D01*
G01*
X98962738Y-62719000D01*
G75*
G02*
X98691000Y-62447262I0J271738D01*
G01*
X98691000Y-61740738D01*
G75*
G02*
X98962738Y-61469000I271738J0D01*
G01*
G37*
%TD*%
D15*
%TO.C,D2*%
X97410000Y-75311000D03*
D16*
X94835000Y-75311000D03*
%TD*%
%TO.C,R2*%
G36*
G01*
X98308000Y-71725262D02*
X98308000Y-70768738D01*
G75*
G02*
X98579738Y-70497000I271738J0D01*
G01*
X99286262Y-70497000D01*
G75*
G02*
X99558000Y-70768738I0J-271738D01*
G01*
X99558000Y-71725262D01*
G75*
G02*
X99286262Y-71997000I-271738J0D01*
G01*
X98579738Y-71997000D01*
G75*
G02*
X98308000Y-71725262I0J271738D01*
G01*
G37*
G36*
G01*
X96258000Y-71725262D02*
X96258000Y-70768738D01*
G75*
G02*
X96529738Y-70497000I271738J0D01*
G01*
X97236262Y-70497000D01*
G75*
G02*
X97508000Y-70768738I0J-271738D01*
G01*
X97508000Y-71725262D01*
G75*
G02*
X97236262Y-71997000I-271738J0D01*
G01*
X96529738Y-71997000D01*
G75*
G02*
X96258000Y-71725262I0J271738D01*
G01*
G37*
%TD*%
M02*
